<?xml version="1.0" encoding="UTF-8" standalone="no"?>
<?xml-stylesheet type="text/css" href="extra.css" ?>
<!-- Created with Inkscape (http://www.inkscape.org/) -->

<svg
   xmlns:dc="http://purl.org/dc/elements/1.1/"
   xmlns:cc="http://creativecommons.org/ns#"
   xmlns:rdf="http://www.w3.org/1999/02/22-rdf-syntax-ns#"
   xmlns:svg="http://www.w3.org/2000/svg"
   xmlns="http://www.w3.org/2000/svg"
   xmlns:sodipodi="http://sodipodi.sourceforge.net/DTD/sodipodi-0.dtd"
   xmlns:inkscape="http://www.inkscape.org/namespaces/inkscape"
   width="63.265263mm"
   height="5.1207166mm"
   viewBox="0 0 224.16825 18.144271"
   id="svg5902"
   version="1.1"
   inkscape:version="0.91 r13725"
   sodipodi:docname="svg-sample.svg">
  <defs
     id="defs5904" />
  <sodipodi:namedview
     id="base"
     pagecolor="#ffffff"
     bordercolor="#666666"
     borderopacity="1.0"
     inkscape:pageopacity="0.0"
     inkscape:pageshadow="2"
     inkscape:zoom="2.8"
     inkscape:cx="163.41028"
     inkscape:cy="-44.424599"
     inkscape:document-units="px"
     inkscape:current-layer="layer1"
     showgrid="false"
     fit-margin-top="0"
     fit-margin-left="0"
     fit-margin-right="0"
     fit-margin-bottom="0" />
  <metadata
     id="metadata5907">
    <rdf:RDF>
      <cc:Work
         rdf:about="">
        <dc:format>image/svg+xml</dc:format>
        <dc:type
           rdf:resource="http://purl.org/dc/dcmitype/StillImage" />
        <dc:title></dc:title>
      </cc:Work>
    </rdf:RDF>
  </metadata>
  <g
     inkscape:label="Layer 1"
     inkscape:groupmode="layer"
     id="layer1"
     transform="translate(-10.773029,-11.861497)">
    <path
       d="m 17.959229,18.211237 0.064,-0.12836 0,-0.0641 0,-0.0642 0,0.0642 0,0.19245 -0.064,1.47571 -0.1283,1.21911 -0.1925,1.28333 -0.1284,1.4115 -0.1924,2.63074 -0.064,0.9624 0,0.96246 -0.1284,0.6416 0,0.19245 0,-0.0642 0,-0.0642 -0.1283,-0.19251 -0.1925,-0.76995"
       id="path1426"
       inkscape:connector-curvature="0"
       style="fill:none;stroke:#000000;stroke-width:1" />
    <path
       d="m 10.773029,18.660397 0.064,0 0.1925,0 1.0265,-0.0642 1.0908,-0.0641 4.1064,-0.57751 3.8498,-0.76996 1.6682,-0.1283 1.2833,-0.12829 0.7699,-0.0642 0.4492,-0.12836 0.064,-0.0641 0,-0.0642"
       id="path1428"
       inkscape:connector-curvature="0"
       style="fill:none;stroke:#000000;stroke-width:1" />
    <path
       d="m 28.353529,16.799677 0,0 0,0 0.064,0.0642 0,0 0,0.25665 0.064,0.38501 -0.064,0.5133 -0.064,0.96247 -0.1283,1.2832 -0.064,3.01563 -0.064,1.28326 -0.064,1.02661 0,0.89826 -0.1283,1.09076 0,0.38495 0,0 0,0 0,-0.0642 -0.064,-0.1283 -0.064,-0.4491"
       id="path1430"
       inkscape:connector-curvature="0"
       style="fill:none;stroke:#000000;stroke-width:1" />
    <path
       d="m 35.283129,15.131397 -0.064,0.0642 0,0.0641 0.064,0.12836 0.064,0.19244 -0.064,0.70581 0,0.70581 -0.064,1.15491 -0.1925,1.21912 -0.2566,1.53985 -0.1284,2.69483 -0.1283,1.47577 0,1.09076 0.064,1.02661 0.064,0.8341 0,0.89826 -0.064,0.38501 -0.064,0.12829 -0.064,0 -0.064,0"
       id="path1432"
       inkscape:connector-curvature="0"
       style="fill:none;stroke:#000000;stroke-width:1" />
    <path
       d="m 27.519429,23.857537 0.77,-0.19244 0.6416,-0.19251 1.1549,-0.25665 1.4758,-0.32086 2.1815,-0.4491 0.7058,-0.12836 0.5133,-0.12823 0,-0.0642 0,-0.12836"
       id="path1434"
       inkscape:connector-curvature="0"
       style="fill:none;stroke:#000000;stroke-width:1" />
    <path
       d="m 42.726029,18.211237 0,-0.12836 0.064,-0.19244 0.064,0 -0.064,0.0641 0,0.12829 0,0.25665 0,0.44916 -0.1284,0.76996 -0.1283,1.09076 0.064,2.63068 0,1.28326 -0.1283,1.53986 0.1925,2.43823 0,0.5133 0,0.19251 0,-0.0642 0.064,-0.1925 0,-0.51331"
       id="path1436"
       inkscape:connector-curvature="0"
       style="fill:none;stroke:#000000;stroke-width:1" />
    <path
       d="m 41.763529,18.018787 0.1284,0 0.3849,-0.0642 0.7058,-0.0641 3.2081,-0.89826 2.1174,-0.57745 0.8341,-0.12836 0.5133,-0.12835 0.2567,-0.0642 0.3208,-0.0642 0.4491,0 0.1284,0 0.064,-0.0641"
       id="path1438"
       inkscape:connector-curvature="0"
       style="fill:none;stroke:#000000;stroke-width:1" />
    <path
       d="m 41.763529,25.076657 0.1925,0 0.3208,0 0.3208,-0.0641 0.1284,0 0.4491,-0.12836 0.6416,-0.12836 0.9625,-0.44909 0.9624,-0.25666 1.7966,-0.70574 1.4115,-0.64173 0.3209,-0.0641 0.1283,-0.0641 -0.064,0 -0.1283,0.0641"
       id="path1440"
       inkscape:connector-curvature="0"
       style="fill:none;stroke:#000000;stroke-width:1" />
    <path
       d="m 41.186129,29.375547 0.3208,0.0641 0.6416,0.0642 0.8341,-0.0642 0.7058,-0.12829 2.2457,-0.51331 1.2833,-0.44909 1.0265,-0.51331 0.8342,-0.32086 0.4491,-0.25666 0.5775,-0.44915 0.1283,-0.1283"
       id="path1442"
       inkscape:connector-curvature="0"
       style="fill:none;stroke:#000000;stroke-width:1" />
    <path
       inkscape:connector-curvature="0"
       style="fill:none;stroke:#000000;stroke-width:1"
       d="m 70.558429,19.740167 -0.064,0 0.064,-0.0641 0,-0.0642 0,-0.0641 -0.064,-0.0642 -0.064,-0.0642 -0.064,-0.0642 -0.1283,-0.12836 -0.1283,-0.12829 -0.4491,-0.44916 -0.2567,-0.12829 -0.2566,-0.19251 -0.3209,-0.12836 -0.3208,-0.12823 -0.8341,0 -0.385,0 -0.3208,0.0642 -0.3849,0.19244 -0.5134,0.44916 -1.1549,1.15491 -0.4491,0.57745 -0.4491,0.70581 -0.385,0.8341 -0.385,1.02662 -0.5133,1.92486 0,0.96241 0,0.64166 0.064,0.3208 0.1925,0.70581 0.5774,0.89825 0.5133,0.32087 0.4492,0.12829 0.7057,0 0.8983,-0.25665 1.7966,-0.89826 0.8341,-0.70581 0.5133,-0.64166 0.2567,-0.57745 0.3208,-0.83411 0.2566,-1.66821 0.064,-0.83411 -0.064,-0.8341 0,-0.51331 0,-0.38495 -0.1925,-0.89831 -0.064,-0.2566 -0.1283,-0.1925 -0.1283,-0.25672 -0.064,-0.12829 -0.1926,-0.25665 -0.1282,0 -0.1926,0 -0.3849,0.25665"
       id="path1452" />
    <path
       inkscape:connector-curvature="0"
       style="fill:none;stroke:#000000;stroke-width:1"
       d="m 65.104629,24.680717 0.1283,0.1283 0.2567,0.32086 0.5133,0.51331 0.4491,0.44909 1.5399,0.89826 0.77,0.25671 0.3849,0.1283 0.5134,0.12835 0.2566,0.1283 0.064,0 -0.064,0 -0.064,0.0641 -0.064,0.0642 -0.1283,0.25659"
       id="path1454" />
    <path
       inkscape:connector-curvature="0"
       style="fill:none;stroke:#000000;stroke-width:1"
       d="m 73.894929,19.034417 0.064,0 0.064,0 0.1925,0.0642 0.064,0.0641 0.1925,0.0641 0.064,0.12836 0,0.0642 -0.064,0.0642 0,0.12829 0.064,0.32081 0,0.1925 0,0.70581 0,0.6416 -0.064,0.6416 0.064,1.15497 0,1.02661 -0.064,0.6416 0.064,0.57746 0.1283,0.5133 0.385,0.70581 0.2566,0.19245 0.1283,0.0642 0.2567,0.1925 0.2567,0.0642 1.2191,-0.12836 0.5774,-0.1925 0.8341,-0.38495 0.5133,-0.19244 0.4492,-0.32087 0.9624,-0.70575 0.1283,-0.1925 0.2567,-0.38495 0.3208,-0.32086 0.7699,-1.41156 0.4492,-1.28326 0.1283,-0.83417 0.1925,-1.34735 0.1283,-1.02661 -0.064,-0.76996 -0.3208,-1.15497 -0.1283,-0.19245 -0.2567,-0.25665 -0.3208,-0.0642 -0.5775,0.0642"
       id="path1456" />
    <path
       inkscape:connector-curvature="0"
       style="fill:none;stroke:#000000;stroke-width:1"
       d="m 88.203129,16.660397 -0.064,0 0.064,0.0641 0,0.12836 0.064,0.19245 0.1283,1.09082 -0.064,1.15484 0.064,1.02661 -0.064,1.09076 -0.1283,1.34741 -0.1925,2.05323 0,0.76996 -0.064,0.77002 -0.064,0.19244 0,0.0642 -0.064,-0.0642 0,-0.0642 0,-0.12823 -0.064,-0.25672 -0.064,-0.57745"
       id="path1458" />
    <path
       inkscape:connector-curvature="0"
       style="fill:none;stroke:#000000;stroke-width:1"
       d="m 98.533329,17.494497 -0.064,0.44916 0.064,0.25659 0.064,0.32087 0.064,0.25665 0.064,0.38495 0,0 0,-0.0641 0,0 0,0 -0.064,-0.19251 -0.064,-0.32074 -0.1283,-0.32086 -0.2567,-0.38495 -0.3849,-0.38501 -1.1549,-0.25665 -0.5134,0.12836 -1.0266,0.38495 -1.1549,0.83416 -1.0266,0.83405 -1.155,1.79657 -0.2566,0.70575 -0.064,0.70581 0.064,0.51337 0.1284,0.44909 1.0907,0.7699 1.7966,0.44916 1.2191,0 1.1549,-0.0641 1.604,0 0.8342,-0.25671 0.1283,-0.19245 0.064,-0.12835 0,-0.32081 0.064,-0.64166"
       id="path1460" />
    <path
       inkscape:connector-curvature="0"
       style="fill:none;stroke:#000000;stroke-width:1"
       d="m 104.88543,16.082877 0.064,0.0642 0,0.0642 0,0.1925 0.064,0.3208 0.1925,1.34748 0.064,1.2832 -0.064,1.09076 -0.064,1.21912 -0.1925,2.18151 0,1.28327 -0.064,0.70581 0,0.3208 0,0.0642 0.064,0.12836 0,0.19244 0,-0.0642 0,0 0,-0.0642 -0.064,-0.12829 -0.3849,-0.70581"
       id="path1462" />
    <path
       inkscape:connector-curvature="0"
       style="fill:none;stroke:#000000;stroke-width:1"
       d="m 104.05133,22.114187 0.2567,-0.12829 0.8341,-0.25665 0.5775,-0.38495 1.5399,-0.96247 2.8231,-1.60406 0.8342,-0.51331 0.9624,-0.70581 0.7699,-0.5133 0.7058,-0.44916 0.5133,-0.25666 0.064,-0.0641 -0.1283,0.0641 -0.1925,0.19257 -0.6416,0.51325"
       id="path1464" />
    <path
       inkscape:connector-curvature="0"
       style="fill:none;stroke:#000000;stroke-width:1"
       d="m 106.48953,21.087637 0.064,-0.0642 0.064,-0.0641 0,0 0.064,-0.0642 0.064,0 0.064,0 0.1283,0 0.1926,0 0.1924,0 0.3208,0.19256 0.1925,0.1283 0.5133,0.44916 0.1925,0.3208 0.385,0.38495 1.0266,1.28326 0.6416,0.76996 0.6417,0.6416 0.5132,0.57752 0.5775,0.70581 0.8983,0.9624 0.385,0.3208 0.1924,0.1925 0,0 0,0 -0.064,-0.0641 -0.064,0 -0.1924,-0.25666 -0.385,-0.57751 -0.4492,-0.89826"
       id="path1466" />
    <path
       inkscape:connector-curvature="0"
       style="fill:none;stroke:#000000;stroke-width:1"
       d="m 129.33143,17.173697 0.064,0 0,-0.0642 0.064,0 0,0.0642 0.064,0.0642 0,0.0642 0.064,0.12836 0,0.25659 0.064,0.5133 0.1283,1.53992 0.064,0.9624 0,2.18158 -0.064,1.02661 -0.064,1.02661 0,1.09076 0,0.25666 -0.064,0.12829 0,0.12836 0,0 -0.064,-0.0642 0,-0.0642 0,-0.0641 -0.064,-0.19251 0,-0.57751"
       id="path1468" />
    <path
       inkscape:connector-curvature="0"
       style="fill:none;stroke:#000000;stroke-width:1"
       d="m 127.91983,17.366207 0.1284,-0.0642 0.1925,-0.0642 1.1549,-0.38495 0.5133,-0.1925 1.9249,-0.70581 1.1549,-0.19245 0.8983,-0.0642 0.7699,0.0642 0.5133,0.1283 0.7058,0.57751 0.1925,0.19245 0,0.25665 0,0.25665 -0.1283,0.25666 -0.9625,1.21905 -1.8607,1.60407 -0.9624,0.83416 -0.8341,0.64161 -0.77,0.57745 -0.9624,0.70581 0,0 0.064,0 0.064,-0.0642 0.1283,-0.0642 0.6416,-0.38501 0.7059,-0.38495 1.0907,-0.44909 0.8341,-0.19251 0.9624,-0.0642 1.54,0.38501 0.385,0.19251 0.3208,0.38495 0.1924,0.25665 0,0.25665 -0.064,0.57746 0,0.25665 -0.064,0.25665 -0.1924,0.44916 -0.3208,0.57745 -0.8342,1.28327 -0.5774,0.57745 -0.6417,0.44916 -0.6416,0.38495 -0.6416,0.3208 -1.3474,0.44909 -0.5133,0 -0.8341,-0.12823 -1.4758,-0.51331"
       id="path1470" />
    <path
       inkscape:connector-curvature="0"
       style="fill:none;stroke:#000000;stroke-width:1"
       d="m 141.52233,16.852897 0.064,0.12836 0.1284,0.12823 0.1283,0.25672 0.1283,0.44909 0.1283,1.60407 -0.1283,1.21911 -0.1925,1.47571 -0.1925,1.15497 -0.2566,1.28327 -0.385,1.79657 -0.1283,0.44909 -0.1925,0.38495 -0.1283,0.32086 0.1283,0"
       id="path1472" />
    <path
       inkscape:connector-curvature="0"
       style="fill:none;stroke:#000000;stroke-width:1"
       d="m 140.36743,17.558647 0.1283,-0.12829 0.5775,-0.4491 0.8983,-0.44916 1.0907,-0.25665 2.374,-0.89832 1.2192,-0.44909 1.4115,-0.19257 0.1283,0.32086 0.2567,0.57739 0.064,1.41163 -0.1283,0.83416 -0.1283,0.96241 -0.2567,0.70581 -0.385,0.57745 -1.5399,1.41156 -1.0908,0.64166 -1.0907,0.51331 -1.2833,0.44916 -1.2832,0.44909 -0.6416,0.0641 -0.064,-0.0641 0.1283,-0.12835 0.3208,-0.19245 0.5775,-0.25665 0.7057,-0.38501 0.5134,0 0.7699,0.0642 0.8983,0 0.7699,0.19244 1.2833,0.76996 0.4491,0.64166 0.3208,0.7699 0.3209,0.83411 0.1924,0.70581 0.1284,1.02661 0,0.1925 -0.064,0.19245 0,0 -0.064,0 -0.064,-0.0641 -0.064,-0.0642 0.064,-0.44916"
       id="path1474" />
    <path
       inkscape:connector-curvature="0"
       style="fill:none;stroke:#000000;stroke-width:1"
       d="m 158.97463,17.173697 0,0 -0.064,0 -0.1284,-0.0642 -0.3208,0 -0.8341,-0.0641 -0.7058,0.12835 -0.7699,0.19251 -0.7058,0.32074 -1.0266,0.5133 -1.4116,1.53992 -0.7058,1.09082 -0.385,1.02655 -0.1925,1.28333 -0.064,1.2832 0.6417,1.73242 0.4491,0.57745 0.6417,0.38495 0.8341,0.25666 0.9624,0.0641 1.9249,-0.96246 0.8983,-0.7699 0.5132,-0.76996 0.2567,-0.83416 0.1925,-0.89826 -0.1925,-2.37396 -0.2567,-1.02667 -0.3208,-0.6416 -0.4491,-0.51331 -0.385,-0.25665 -0.4491,-0.1283 0,-0.0642 -0.064,0.0642 -0.1283,0.25666"
       id="path1476" />
    <path
       inkscape:connector-curvature="0"
       style="fill:none;stroke:#000000;stroke-width:1"
       d="m 164.23593,17.686947 -0.064,-0.0641 0,-0.1283 0.064,0 0,0.0641 0.1283,0.25665 0.1284,0.38495 0.1283,0.44916 0.1925,0.76996 0.2566,1.34741 0.385,2.43817 0.3208,1.09082 0.3208,0.7699 0.3208,0.70581 0.1284,0.44916 0,0 0,-0.0642 0.064,-0.0642 0.064,-0.12835 0.064,-0.19245 0.5133,-1.60406 0.8341,-1.34742 0.5775,-1.09075 0.5133,-0.51331 0.5133,0.19244 0.4491,1.34741 0.2566,0.89832 0.3209,0.89832 0.8341,1.34735 0.4491,0.44922 0.5133,0.19244 0.5133,-0.12836 0.385,-0.25659 0.4491,-0.44916 0.6417,-0.64166 0.8341,-1.41156 0.1925,-1.02661 0,-0.9624 -0.064,-0.96253 -0.1925,-1.41156 -0.1283,-2.05316 -0.064,-0.57745 0,-0.32087 -0.064,-0.19244 -0.064,-0.1283 0,0 -0.064,0.0641 -0.1925,0.44922"
       id="path1478" />
    <path
       inkscape:connector-curvature="0"
       style="fill:none;stroke:#000000;stroke-width:1"
       d="m 177.77423,26.028127 0.1284,0.12836 0.1283,0.0642 0.1283,-0.0642 0.064,0.0642 0.1925,-0.32086 0.1925,-0.3208 0.1283,-0.51331 0.3209,-0.6416 0.3849,-0.70581 1.2191,-2.30988 0.6416,-1.21899 0.5133,-1.09082 0.5133,-1.15491 0.2567,-0.83417 0.4491,-1.73236 0.064,-0.3208 0,-0.12829 0,-0.0642 0,0 -0.064,0.57745 0.064,0.19244 0,0.25672 0,0.19244 0.064,0.25665 0,0.96247 0.064,0.3208 0.1925,0.44922 0.385,0.64154 0.2566,0.57745 0.5133,1.47577 0.1925,0.76996 0.064,0.70581 0.064,0.76996 0.1284,0.70575 0.1283,0.44916 0.064,0.12835 0,0.0641 0,0 0,0.0642 0.064,0.0642 0,0.0642 0,0.0641 0,0 0.064,0 0,-0.0641 0,0 0.064,0 0.064,-0.12836 0,-0.1283 0.4491,-0.70581 1.7324,-3.33648 0.5774,-1.09076 0.6417,-1.34742 0.8341,-1.47577 0.6416,-1.86071 0.2567,-0.57739 0.064,-0.38502 -0.064,-0.44915 0,-0.19245 -0.1284,-0.0641 -0.064,-0.0642 -0.385,0.12835"
       id="path1480" />
    <path
       inkscape:connector-curvature="0"
       style="fill:none;stroke:#000000;stroke-width:1"
       d="m 205.55663,14.286367 0,0.0642 0,0.0642 0,0.12824 -0.064,0.25671 -0.3849,2.63068 -0.1283,1.34741 -0.6417,4.42718 -0.064,0.83417 -0.1283,0.57745 0,0.0642 0,0 0,-0.0642 0,-0.12835 0,-0.19245 0.1283,-1.66827"
       id="path1482" />
    <path
       inkscape:connector-curvature="0"
       style="fill:none;stroke:#000000;stroke-width:1"
       d="m 203.82433,14.414727 1.0266,0 1.0907,0.0641 0.6417,-0.1283 1.219,-0.1925 3.3365,-0.64161 1.2191,-0.38501 1.1549,-0.1925 0.9625,-0.32074 0.5774,-0.19257 0.2567,-0.0641 -0.2567,0"
       id="path1484" />
    <path
       inkscape:connector-curvature="0"
       style="fill:none;stroke:#000000;stroke-width:1"
       d="m 204.85093,19.162717 0.1924,0.0641 0.2567,0 0.385,-0.0641 0.5133,-0.0641 1.4757,-0.25665 0.6416,-0.19251 0.77,-0.19244 0.5775,-0.12836 0.4491,-0.12836 0.6416,-0.0641"
       id="path1486" />
    <path
       inkscape:connector-curvature="0"
       style="fill:none;stroke:#000000;stroke-width:1"
       d="m 220.95573,14.158017 -0.064,-0.0642 -0.1284,0 -0.2566,0 -0.7058,0.1925 -1.6041,0.89826 -1.0907,1.09082 -1.0267,0.9624 -0.8982,1.21912 -0.8341,1.47571 -0.5775,2.05322 0.064,1.02661 0.1925,0.70575 0.4492,0.44916 0.5132,0.3208 1.9891,-0.12836 1.4115,-0.4491 1.4758,-0.8341 1.0907,-0.83411 0.77,-0.83417 0.5133,-1.60406 0.064,-1.09076 -0.1283,-1.09076 -0.3849,-0.89826 -0.3208,-0.5133 -1.0908,-1.34741 -0.4492,-0.19245 -0.4491,-0.12841 -0.2567,0 -0.2566,0.12841"
       id="path1488" />
    <path
       inkscape:connector-curvature="0"
       style="fill:none;stroke:#000000;stroke-width:1"
       d="m 226.53783,13.323967 -0.064,0.0642 0,0.0642 0.064,0.25665 0.1283,0.51331 0.6417,1.86065 1.4115,1.98914 0.77,0.9624 0.77,0.89826 0.7058,0.89831 1.6682,1.98901 0.6416,0.70581 0.4492,0.51331 0.3849,0.25665 0.3208,0.19245 0.064,0.12835 -0.064,-0.12835 -0.3208,-0.3208 -0.7699,-0.70581 -0.8341,-1.02656"
       id="path1490" />
    <path
       inkscape:connector-curvature="0"
       style="fill:none;stroke:#000000;stroke-width:1"
       d="m 234.49403,13.067257 -0.1925,0.0641 -0.1283,0.12836 -1.4116,2.24573 -0.9624,1.53986 -2.2457,3.14404 -0.7058,0.83404 -0.5133,0.70582 -0.8983,0.89825 -0.4491,0.38501 -0.77,0.4491 -0.1925,0 -0.1283,0"
       id="path1492" />
  </g>
</svg>
