<?xml version="1.0" encoding="UTF-8" standalone="no"?>
<!-- Created with Inkscape (http://www.inkscape.org/) -->

<svg
   xmlns:dc="http://purl.org/dc/elements/1.1/"
   xmlns:cc="http://creativecommons.org/ns#"
   xmlns:rdf="http://www.w3.org/1999/02/22-rdf-syntax-ns#"
   xmlns:svg="http://www.w3.org/2000/svg"
   xmlns="http://www.w3.org/2000/svg"
   xmlns:sodipodi="http://sodipodi.sourceforge.net/DTD/sodipodi-0.dtd"
   xmlns:inkscape="http://www.inkscape.org/namespaces/inkscape"
   id="svg2"
   version="1.1"
   inkscape:version="0.91 r13725"
   xml:space="preserve"
   width="802.55353"
   height="213.509"
   viewBox="0 0 802.55353 213.509"
   sodipodi:docname="pdftables-logo.svg"><metadata
     id="metadata8"><rdf:RDF><cc:Work
         rdf:about=""><dc:format>image/svg+xml</dc:format><dc:type
           rdf:resource="http://purl.org/dc/dcmitype/StillImage" /><dc:title></dc:title></cc:Work></rdf:RDF></metadata><defs
     id="defs6"><clipPath
       clipPathUnits="userSpaceOnUse"
       id="clipPath18"><path
         d="m 373.092,229.354 0,-76.296 17.2,0 0,29.638 24.735,0 0,13.932 -24.735,0 0,18.741 26.915,0 0,13.985 -44.115,0 z m -76.26,0 0,-76.296 27.043,0 c 12.295,0 22.157,3.542 29.549,10.642 l 0,0 c 7.39,7.102 11.097,16.583 11.097,28.459 l 0,0 c 0,24.808 -13.549,37.195 -40.646,37.195 l 0,0 -27.043,0 z m 17.2,-13.985 8.407,0 c 7.593,0 13.477,-2.087 17.689,-6.266 l 0,0 c 4.196,-4.158 6.303,-9.878 6.303,-17.144 l 0,0 c 0,-7.7 -2.124,-13.784 -6.357,-18.253 l 0,0 c -4.249,-4.466 -10.08,-6.701 -17.525,-6.701 l 0,0 -8.517,0 0,48.364 z m -81.334,13.985 0,-76.296 17.2,0 0,26.28 8.19,0 c 9.225,0 16.598,2.377 22.102,7.101 l 0,0 c 5.521,4.739 8.283,10.932 8.283,18.596 l 0,0 c 0,16.218 -9.626,24.319 -28.842,24.319 l 0,0 -26.933,0 z m 17.2,-13.186 6.755,0 c 9.153,0 13.729,-3.923 13.729,-11.769 l 0,0 c 0,-8.008 -4.576,-12.021 -13.729,-12.021 l 0,0 -6.755,0 0,23.79 z"
         id="path20"
         inkscape:connector-curvature="0" /></clipPath><linearGradient
       x1="0"
       y1="0"
       x2="1"
       y2="0"
       gradientUnits="userSpaceOnUse"
       gradientTransform="matrix(-1.7572174,192.02277,208.0934,1.9042664,325.8667,105.41211)"
       spreadMethod="pad"
       id="linearGradient26"><stop
         style="stop-opacity:1;stop-color:#921a1d"
         offset="0"
         id="stop28" /><stop
         style="stop-opacity:1;stop-color:#ed1c24"
         offset="0.99166997"
         id="stop30" /><stop
         style="stop-opacity:1;stop-color:#ed1c24"
         offset="1"
         id="stop32" /></linearGradient><clipPath
       clipPathUnits="userSpaceOnUse"
       id="clipPath40"><path
         d="m 0,424.808 791.027,0 L 791.027,0 0,0 0,424.808 Z"
         id="path42"
         inkscape:connector-curvature="0" /></clipPath><clipPath
       clipPathUnits="userSpaceOnUse"
       id="clipPath56"><path
         d="m 119.161,283.32 c 3.388,-13.456 4.976,-34.745 3.104,-52.473 l 0,0 c 17.917,7.594 36.767,7.651 58.028,3.578 l 0,0 -61.132,48.897 0,-0.002 z"
         id="path58"
         inkscape:connector-curvature="0" /></clipPath><linearGradient
       x1="0"
       y1="0"
       x2="1"
       y2="0"
       gradientUnits="userSpaceOnUse"
       gradientTransform="matrix(1.2042389,69.11943,99.128159,-1.727066,149.18262,225.50537)"
       spreadMethod="pad"
       id="linearGradient64"><stop
         style="stop-opacity:1;stop-color:#921a1d"
         offset="0"
         id="stop66" /><stop
         style="stop-opacity:1;stop-color:#ed1c24"
         offset="0.99166997"
         id="stop68" /><stop
         style="stop-opacity:1;stop-color:#ed1c24"
         offset="1"
         id="stop70" /></linearGradient><clipPath
       clipPathUnits="userSpaceOnUse"
       id="clipPath78"><path
         d="m 128.691,285.386 61.44,3.076 -4.614,-151.365 14.672,159.71 -71.498,-11.421 z"
         id="path80"
         inkscape:connector-curvature="0" /></clipPath><linearGradient
       x1="0"
       y1="0"
       x2="1"
       y2="0"
       gradientUnits="userSpaceOnUse"
       gradientTransform="matrix(1.3962097,210.19144,117.41325,-0.7799225,163.81787,121.91699)"
       spreadMethod="pad"
       id="linearGradient86"><stop
         style="stop-opacity:1;stop-color:#921a1d"
         offset="0"
         id="stop88" /><stop
         style="stop-opacity:1;stop-color:#ed1c24"
         offset="0.99166997"
         id="stop90" /><stop
         style="stop-opacity:1;stop-color:#ed1c24"
         offset="1"
         id="stop92" /></linearGradient><linearGradient
       x1="0"
       y1="0"
       x2="1"
       y2="0"
       gradientUnits="userSpaceOnUse"
       gradientTransform="matrix(0.500061,181.03792,42.073349,-0.1162262,204.36621,135.09961)"
       spreadMethod="pad"
       id="linearGradient108"><stop
         style="stop-opacity:1;stop-color:#921a1d"
         offset="0"
         id="stop110" /><stop
         style="stop-opacity:1;stop-color:#ed1c24"
         offset="0.99166997"
         id="stop112" /><stop
         style="stop-opacity:1;stop-color:#ed1c24"
         offset="1"
         id="stop114" /></linearGradient></defs><sodipodi:namedview
     pagecolor="#ffffff"
     bordercolor="#666666"
     borderopacity="1"
     objecttolerance="10"
     gridtolerance="10"
     guidetolerance="10"
     inkscape:pageopacity="0"
     inkscape:pageshadow="2"
     inkscape:window-width="1555"
     inkscape:window-height="903"
     id="namedview4"
     showgrid="false"
     inkscape:zoom="0.76255298"
     inkscape:cx="191.90869"
     inkscape:cy="174.20147"
     inkscape:window-x="0"
     inkscape:window-y="18"
     inkscape:window-maximized="0"
     inkscape:current-layer="g10"
     fit-margin-top="0"
     fit-margin-left="0"
     fit-margin-right="0"
     fit-margin-bottom="0" /><g
     id="g10"
     inkscape:groupmode="layer"
     inkscape:label="pdftables1"
     transform="matrix(1.25,0,0,-1.25,-91.865875,371.00875)"><g
       id="g3491"
       transform="translate(0,18.6813)"><g
         id="g14"><g
           clip-path="url(#clipPath18)"
           id="g16"><g
             id="g22"><g
               id="g24"><path
                 inkscape:connector-curvature="0"
                 id="path34"
                 style="fill:url(#linearGradient26);stroke:none"
                 d="m 373.092,229.354 0,-76.296 17.2,0 0,29.638 24.735,0 0,13.932 -24.735,0 0,18.741 26.915,0 0,13.985 -44.115,0 z m -76.26,0 0,-76.296 27.043,0 c 12.295,0 22.157,3.542 29.549,10.642 l 0,0 c 7.39,7.102 11.097,16.583 11.097,28.459 l 0,0 c 0,24.808 -13.549,37.195 -40.646,37.195 l 0,0 -27.043,0 z m 17.2,-13.985 8.407,0 c 7.593,0 13.477,-2.087 17.689,-6.266 l 0,0 c 4.196,-4.158 6.303,-9.878 6.303,-17.144 l 0,0 c 0,-7.7 -2.124,-13.784 -6.357,-18.253 l 0,0 c -4.249,-4.466 -10.08,-6.701 -17.525,-6.701 l 0,0 -8.517,0 0,48.364 z m -81.334,13.985 0,-76.296 17.2,0 0,26.28 8.19,0 c 9.225,0 16.598,2.377 22.102,7.101 l 0,0 c 5.521,4.739 8.283,10.932 8.283,18.596 l 0,0 c 0,16.218 -9.626,24.319 -28.842,24.319 l 0,0 -26.933,0 z m 17.2,-13.186 6.755,0 c 9.153,0 13.729,-3.923 13.729,-11.769 l 0,0 c 0,-8.008 -4.576,-12.021 -13.729,-12.021 l 0,0 -6.755,0 0,23.79 z" /></g></g></g></g><g
         transform="translate(487.1865,215.3691)"
         id="g44"><path
           inkscape:connector-curvature="0"
           id="path46"
           style="fill:#000000;fill-opacity:1;fill-rule:nonzero;stroke:none"
           d="m 0,0 -21.775,0 0,-62.312 -17.236,0 0,62.312 -21.648,0 0,13.985 L 0,13.985 0,0 Z m 186.522,-60.877 0,13.621 c 2.779,-1.671 5.54,-2.906 8.283,-3.723 2.742,-0.818 5.34,-1.216 7.792,-1.216 2.977,0 5.34,0.398 7.046,1.216 1.725,0.817 2.579,2.052 2.579,3.723 0,1.072 -0.383,1.962 -1.162,2.669 -0.782,0.709 -1.781,1.327 -3.016,1.854 -1.216,0.526 -2.56,1.016 -4.013,1.435 -1.453,0.435 -2.852,0.907 -4.196,1.434 -2.16,0.817 -4.068,1.707 -5.721,2.635 -1.652,0.943 -3.033,2.033 -4.159,3.286 -1.107,1.234 -1.962,2.67 -2.542,4.304 -0.6,1.634 -0.891,3.56 -0.891,5.793 0,3.051 0.673,5.685 1.999,7.883 1.326,2.197 3.106,3.995 5.321,5.394 2.216,1.398 4.758,2.434 7.61,3.088 2.851,0.654 5.83,0.98 8.916,0.98 2.416,0 4.85,-0.182 7.338,-0.563 2.489,-0.364 4.94,-0.908 7.337,-1.617 l 0,-12.985 c -2.125,1.253 -4.395,2.179 -6.829,2.797 -2.432,0.618 -4.812,0.927 -7.154,0.927 -1.109,0 -2.143,-0.091 -3.106,-0.291 -0.98,-0.182 -1.853,-0.473 -2.598,-0.854 -0.745,-0.364 -1.325,-0.854 -1.744,-1.434 -0.435,-0.583 -0.634,-1.254 -0.634,-1.999 0,-0.98 0.308,-1.834 0.944,-2.543 0.653,-0.708 1.471,-1.325 2.506,-1.833 1.036,-0.527 2.179,-0.981 3.432,-1.381 1.253,-0.417 2.507,-0.836 3.759,-1.252 2.235,-0.782 4.25,-1.635 6.067,-2.562 1.797,-0.927 3.36,-1.997 4.649,-3.251 1.29,-1.234 2.289,-2.687 2.978,-4.359 0.69,-1.67 1.036,-3.651 1.036,-5.956 0,-3.234 -0.691,-5.994 -2.106,-8.282 -1.399,-2.289 -3.252,-4.141 -5.577,-5.576 -2.324,-1.435 -5.012,-2.488 -8.046,-3.141 -3.031,-0.655 -6.175,-0.982 -9.443,-0.982 -5.993,0 -11.532,0.927 -16.655,2.761 m -5.237,21.013 -35.543,0 c 0.565,-7.901 5.558,-11.86 14.948,-11.86 5.994,0 11.26,1.416 15.801,4.25 l 0,-12.131 c -5.031,-2.689 -11.569,-4.033 -19.634,-4.033 -8.789,0 -15.618,2.435 -20.485,7.32 -4.85,4.867 -7.283,11.677 -7.283,20.396 0,9.044 2.615,16.218 7.883,21.502 5.248,5.284 11.695,7.919 19.359,7.919 7.938,0 14.093,-2.361 18.434,-7.065 4.341,-4.722 6.52,-11.133 6.52,-19.214 l 0,-7.084 z m -15.582,10.335 c 0,7.79 -3.161,11.695 -9.48,11.695 -2.689,0 -5.031,-1.108 -6.993,-3.342 -1.979,-2.234 -3.161,-5.031 -3.596,-8.353 l 20.069,0 z m -42.252,-32.783 -16.8,0 0,80.656 16.8,0 0,-80.656 z m -63.347,6.339 -0.219,0 0,-6.339 -16.8,0 0,80.656 16.8,0 0,-34.363 0.219,0 c 4.158,6.339 10.06,9.518 17.724,9.518 7.011,0 12.423,-2.415 16.218,-7.229 3.797,-4.831 5.703,-11.423 5.703,-19.795 0,-9.081 -2.215,-16.365 -6.646,-21.868 -4.451,-5.502 -10.371,-8.245 -17.781,-8.245 -6.701,0 -11.768,2.542 -15.218,7.665 M 59.631,-33 l 0,-5.575 c 0,-3.523 0.999,-6.429 3.032,-8.735 2.017,-2.306 4.613,-3.451 7.774,-3.451 3.814,0 6.792,1.472 8.899,4.432 2.106,2.96 3.179,7.156 3.179,12.586 0,4.503 -0.981,8.026 -2.907,10.57 -1.943,2.524 -4.686,3.795 -8.282,3.795 -3.359,0 -6.156,-1.253 -8.372,-3.777 -2.217,-2.507 -3.323,-5.794 -3.323,-9.845 m -23.218,-29.312 -15.91,0 0,7.828 -0.218,0 c -3.65,-6.102 -9.062,-9.154 -16.219,-9.154 -5.302,0 -9.462,1.49 -12.495,4.486 -3.032,2.998 -4.539,7.01 -4.539,12.006 0,10.57 6.265,16.671 18.779,18.306 l 14.8,1.962 c 0,5.956 -3.232,8.936 -9.697,8.936 -6.484,0 -12.659,-1.926 -18.508,-5.794 l 0,12.659 c 2.344,1.216 5.539,2.268 9.608,3.195 4.05,0.927 7.756,1.381 11.097,1.381 15.528,0 23.302,-7.756 23.302,-23.247 l 0,-32.564 z m -15.802,22.14 0,3.668 -9.896,-1.271 c -5.468,-0.708 -8.193,-3.178 -8.193,-7.411 0,-1.907 0.655,-3.487 1.982,-4.704 1.343,-1.215 3.142,-1.834 5.411,-1.834 3.16,0 5.722,1.09 7.719,3.27 1.979,2.179 2.977,4.939 2.977,8.282" /></g></g><g
       id="g3472"><g
         transform="translate(113.9277,282.1968)"
         id="g48"><path
           inkscape:connector-curvature="0"
           id="path50"
           style="fill:#000000;fill-opacity:1;fill-rule:evenodd;stroke:none"
           d="m 0,0 -8.062,-1.738 c -1.667,-0.362 -3.323,-0.716 -4.957,-1.069 -4.11,-0.885 -8.127,-1.75 -12.036,-2.59 -3.82,-0.823 -7.551,-1.626 -11.193,-2.411 -1.419,-0.307 -2.809,-0.606 -4.187,-0.904 l 0,-6.002 0,-11.364 0,-5.977 0,-11.381 0,-5.976 0,-11.363 0,-5.977 0,-11.381 0,-5.978 0,-11.363 0,-5.978 0,-11.381 0,-5.972 0,-11.367 0,-5.966 c 1.378,-0.258 2.768,-0.521 4.187,-0.787 3.642,-0.683 7.373,-1.384 11.193,-2.1 3.909,-0.732 7.926,-1.488 12.026,-2.26 1.644,-0.309 3.3,-0.619 4.967,-0.931 4.313,-0.812 8.76,-1.646 13.295,-2.497 4.668,-0.875 9.442,-1.775 14.367,-2.699 1.963,-0.368 3.95,-0.742 5.947,-1.119 5.213,-0.978 10.554,-1.982 16.041,-3.012 5.661,-1.061 11.482,-2.158 17.494,-3.285 2.394,-0.449 4.827,-0.907 7.283,-1.369 l 0,7.983 0,15.204 0,7.994 0,15.224 0,7.996 0,15.208 0,7.994 0,15.224 0,7.995 0,2.158 -1.006,0.192 c -2.094,0.401 -4.188,0.766 -6.277,1.087 l 0,-3.805 C 53.07,-56.046 47.248,-56.339 41.588,-56.626 36.1,-56.9 30.76,-57.173 25.547,-57.437 l 0,5.678 c -1.989,-0.365 -3.972,-0.813 -5.947,-1.347 l 0,-4.632 c -4.925,-0.247 -9.701,-0.491 -14.367,-0.727 -4.539,-0.227 -8.982,-0.454 -13.295,-0.674 l 0,12.532 11.523,0.998 c 0.148,2.219 0.25,4.506 0.305,6.837 l -11.828,-1.247 0,12.546 11.648,1.648 c -0.115,2.253 -0.273,4.503 -0.476,6.731 l -11.172,-1.791 0,12.529 9.474,1.862 C 1.009,-4.311 0.554,-2.199 0.046,-0.181 L 0,0 Z m -36.248,-13.889 c 3.642,0.716 7.373,1.447 11.193,2.197 3.909,0.767 7.926,1.557 12.026,2.363 l 0,-12.354 c -4.1,-0.658 -8.117,-1.302 -12.026,-1.927 -3.82,-0.612 -7.551,-1.211 -11.193,-1.796 l 0,11.517 z m 0,-17.574 c 3.642,0.516 7.373,1.045 11.193,1.585 3.909,0.551 7.926,1.122 12.026,1.7 l 0,-12.364 c -4.1,-0.435 -8.117,-0.858 -12.026,-1.27 -3.82,-0.402 -7.551,-0.796 -11.193,-1.182 l 0,11.531 z m 0,-17.583 c 3.642,0.314 7.373,0.638 11.193,0.966 3.909,0.337 7.926,0.688 12.026,1.042 l 0,-12.351 c -4.1,-0.209 -8.118,-0.411 -12.026,-0.609 -3.822,-0.191 -7.551,-0.383 -11.193,-0.567 l 0,11.519 z m 0,-17.575 c 3.642,0.115 7.371,0.239 11.193,0.357 3.908,0.123 7.926,0.248 12.026,0.38 l 0,-12.367 c -4.1,0.019 -8.118,0.035 -12.026,0.051 -3.822,0.015 -7.551,0.034 -11.193,0.05 l 0,11.529 z m 0,-17.585 c 3.642,-0.086 7.371,-0.172 11.193,-0.261 3.908,-0.09 7.926,-0.183 12.026,-0.277 l 0,-12.353 c -4.1,0.244 -8.117,0.483 -12.026,0.713 -3.82,0.224 -7.551,0.446 -11.193,0.66 l 0,11.518 z m 0,-17.575 c 3.642,-0.281 7.373,-0.575 11.193,-0.871 3.909,-0.305 7.926,-0.619 12.026,-0.94 l 0,-12.365 c -4.1,0.469 -8.117,0.926 -12.026,1.372 -3.82,0.435 -7.551,0.86 -11.193,1.277 l 0,11.527 z m 0,-17.585 c 3.642,-0.484 7.371,-0.983 11.193,-1.487 3.908,-0.519 7.926,-1.053 12.026,-1.6 l 0,-12.35 c -4.1,0.693 -8.117,1.373 -12.026,2.031 -3.82,0.645 -7.551,1.275 -11.193,1.89 l 0,11.516 z m 28.186,53.638 c 4.313,0.138 8.76,0.281 13.295,0.423 4.668,0.145 9.442,0.301 14.367,0.454 l 0,-13.54 c -4.925,0.022 -9.701,0.044 -14.367,0.062 -4.539,0.017 -8.982,0.039 -13.295,0.058 l 0,12.543 z m 0,-19.134 c 4.313,-0.097 8.756,-0.202 13.295,-0.305 4.666,-0.109 9.442,-0.221 14.367,-0.336 l 0,-13.525 c -4.925,0.294 -9.699,0.576 -14.367,0.85 -4.535,0.269 -8.982,0.532 -13.295,0.788 l 0,12.528 z m 0,-19.116 c 4.313,-0.337 8.756,-0.686 13.295,-1.039 4.666,-0.362 9.442,-0.735 14.367,-1.122 l 0,-13.538 c -4.925,0.561 -9.701,1.104 -14.367,1.636 -4.539,0.516 -8.982,1.026 -13.295,1.517 l 0,12.546 z m 0,-19.134 c 4.313,-0.574 8.76,-1.162 13.295,-1.766 4.668,-0.62 9.442,-1.256 14.367,-1.911 l 0,-13.528 c -4.925,0.834 -9.699,1.643 -14.367,2.43 -4.535,0.765 -8.982,1.516 -13.295,2.245 l 0,12.53 z m 33.609,58.451 c 5.213,0.164 10.554,0.334 16.041,0.507 5.661,0.178 11.482,0.365 17.494,0.554 l 0,-14.961 c -6.012,0.024 -11.833,0.055 -17.494,0.077 -5.487,0.023 -10.828,0.046 -16.041,0.068 l 0,13.755 z m 0,-20.978 c 5.213,-0.121 10.553,-0.247 16.041,-0.373 5.66,-0.133 11.482,-0.266 17.494,-0.406 l 0,-14.946 c -6.012,0.355 -11.834,0.699 -17.494,1.033 -5.488,0.326 -10.828,0.643 -16.041,0.953 l 0,13.739 z m 0,-20.963 c 5.213,-0.408 10.554,-0.825 16.041,-1.254 5.661,-0.437 11.482,-0.898 17.494,-1.364 l 0,-14.964 c -6.012,0.684 -11.834,1.351 -17.494,1.996 -5.488,0.624 -10.828,1.236 -16.041,1.83 l 0,13.756 z m 0,-20.98 c 5.213,-0.693 10.553,-1.407 16.041,-2.135 5.66,-0.751 11.482,-1.528 17.494,-2.325 l 0,-14.945 c -6.012,1.014 -11.833,2.001 -17.494,2.955 -5.487,0.927 -10.828,1.829 -16.041,2.71 l 0,13.74" /></g><g
         id="g52"><g
           clip-path="url(#clipPath56)"
           id="g54"><g
             id="g60"><g
               id="g62"><path
                 inkscape:connector-curvature="0"
                 id="path72"
                 style="fill:url(#linearGradient64);stroke:none"
                 d="m 119.161,283.32 c 3.388,-13.456 4.976,-34.745 3.104,-52.473 l 0,0 c 17.917,7.594 36.767,7.651 58.028,3.578 l 0,0 -61.132,48.897 0,-0.002 z" /></g></g></g></g><g
         id="g74"><g
           clip-path="url(#clipPath78)"
           id="g76"><g
             id="g82"><g
               id="g84"><path
                 inkscape:connector-curvature="0"
                 id="path94"
                 style="fill:url(#linearGradient86);stroke:none"
                 d="m 128.691,285.386 61.44,3.076 -4.614,-151.365 14.672,159.71 -71.498,-11.421 z" /></g></g></g></g><g
         id="g96"><g
           id="g98"><g
             id="g104"><g
               id="g106"><path
                 inkscape:connector-curvature="0"
                 id="path116"
                 style="fill:url(#linearGradient108);stroke:none"
                 d="m 207.515,284.088 -15.665,-136.22 25.418,137.973 -9.753,-1.753 z" /></g></g></g></g></g></g></svg>