<?xml version="1.0" ?>
<?xml-stylesheet type="text/css" href="story1-example-anim.css" ?>
<svg baseProfile="full" height="86.224034px" version="1.1" viewBox="0 0 90.228414 86.224034"
     width="90.228414px" xmlns="http://www.w3.org/2000/svg"
     xmlns:ev="http://www.w3.org/2001/xml-events" xmlns:xlink="http://www.w3.org/1999/xlink" id="bboxes">
	<defs>
		<path d="M 1.5226142,57.667334 L 4.0226142,57.667334 L 7.5226142,64.667334 L 6.5226142,64.167334 M 7.5226142,64.667334 L 7.5226142,63.667334" id="tp0"/>
		<path d="M 34.823314,57.922534 L 37.323314,57.922534 L 40.823314,64.922534 L 39.823314,64.422534 M 40.823314,64.922534 L 40.823314,63.922534" id="tp1"/>
		<path d="M 58.563114,57.986634 L 61.063114,57.986634 L 64.563114,64.986634 L 63.563114,64.486634 M 64.563114,64.986634 L 64.563114,63.986634" id="tp2"/>
		<path d="M 21.349014,62.927234 L 23.849014,62.927234 L 27.349014,69.927234 L 26.349014,69.427234 M 27.349014,69.927234 L 27.349014,68.927234" id="tp3"/>
		<path d="M 23.081014,68.188334 L 25.581014,68.188334 L 29.081014,75.188334 L 28.081014,74.688334 M 29.081014,75.188334 L 29.081014,74.188334" id="tp4"/>
		<path d="M 16.921914,68.701634 L 19.421914,68.701634 L 22.921914,75.701634 L 21.921914,75.201634 M 22.921914,75.701634 L 22.921914,74.701634" id="tp5"/>
		<path d="M 74.475914,69.279134 L 76.975914,69.279134 L 80.475914,76.279134 L 79.475914,75.779134 M 80.475914,76.279134 L 80.475914,75.279134" id="tp6"/>
		<path d="M 44.832314,70.177434 L 47.332314,70.177434 L 50.832314,77.177434 L 49.832314,76.677434 M 50.832314,77.177434 L 50.832314,76.177434" id="tp7"/>
		<path d="M 63.888614,70.241734 L 66.388614,70.241734 L 69.888614,77.241734 L 68.888614,76.741734 M 69.888614,77.241734 L 69.888614,76.241734" id="tp8"/>
	</defs>
	<path d="M 7.5226142,64.667334 L 24.653014,64.667334 L 24.653014,85.390034 L 7.5226142,85.390034 L 7.5226142,64.667334" fill="none" opacity="0.75" stroke="#0000ff" stroke-width="0.2"/>
	<path d="M 7.5226142,64.667334 L 24.653014,64.667334 L 24.653014,85.390034 L 7.5226142,85.390034 L 7.5226142,64.667334" fill="none" opacity="0.5" stroke="#ff0000" stroke-width="0.1"/>
	<path d="M 7.5226142,85.326034 L 7.5866142,85.390034 L 7.5866142,85.326034 L 7.5866142,85.390034 L 7.7149142,85.390034 L 7.9715142,85.326034 L 8.0999142,85.133534 L 8.2282142,84.876934 L 9.2548142,83.722034 L 9.8322142,83.016234 L 10.666414,81.668834 L 11.500514,80.449734 L 12.398714,78.909834 L 13.040414,77.754834 L 13.746214,76.407434 L 15.157714,73.712634 L 15.414414,73.071034 L 15.606914,72.493534 L 15.863514,71.787734 L 15.991814,71.402734 L 16.055814,70.953634 L 16.119814,70.889634 L 16.183814,70.825634 L 16.119814,70.761634 L 16.183814,70.761634 L 16.183814,70.761634 L 16.183814,70.761634 L 16.119814,70.697634 L 16.055814,70.697634 L 16.055814,70.697634 L 16.055814,70.825934 L 15.991814,70.825934 L 15.991814,70.954234 L 15.991814,71.275134 L 15.863514,71.595934 L 15.735214,72.879134 L 15.671214,73.905734 L 15.607214,74.739834 L 15.671214,76.087334 L 15.735214,77.178034 L 15.927714,79.808734 L 16.056014,80.899534 L 16.184314,81.797734 L 16.376814,82.631834 L 16.440814,83.145134 L 16.504814,83.466034 L 16.504814,83.466034 L 16.568814,83.402034 L 16.504814,83.338034 L 16.504814,83.274034 L 16.504814,83.210034 L 16.568814,83.081634 L 16.568814,83.017634 L 16.632814,82.825234 L 16.761114,82.504334 L 17.466914,81.285234 L 18.108514,80.322834 L 18.878514,79.167934 L 19.520114,77.948834 L 20.418414,76.280634 L 21.894114,73.136634 L 22.407414,71.660834 L 22.984914,69.928534 L 23.626514,68.260234 L 23.819014,67.490334 L 24.332314,65.629634 L 24.460614,65.180434 L 24.589014,64.859634 L 24.589014,64.731334 L 24.653014,64.667334 L 24.589014,64.731334 L 24.589014,64.795334 L 24.525014,64.859334 L 24.396614,65.051834 L 24.140014,65.885934" fill="none" id="path1672" opacity="0.5" stroke="#000000" stroke-width="0.2"/>
	<path d="M 7.5226142,85.326034 L 7.5866142,85.390034 L 7.5866142,85.326034 L 7.5866142,85.390034 L 7.7149142,85.390034 L 7.9715142,85.326034 L 8.0999142,85.133534 L 8.2282142,84.876934 L 9.2548142,83.722034 L 9.8322142,83.016234 L 10.666414,81.668834 L 11.500514,80.449734 L 12.398714,78.909834 L 13.040414,77.754834 L 13.746214,76.407434 L 15.157714,73.712634 L 15.414414,73.071034 L 15.606914,72.493534 L 15.863514,71.787734 L 15.991814,71.402734 L 16.055814,70.953634 L 16.119814,70.889634 L 16.183814,70.825634 L 16.119814,70.761634 L 16.183814,70.761634 L 16.183814,70.761634 L 16.183814,70.761634 L 16.119814,70.697634 L 16.055814,70.697634 L 16.055814,70.697634 L 16.055814,70.825934 L 15.991814,70.825934 L 15.991814,70.954234 L 15.991814,71.275134 L 15.863514,71.595934 L 15.735214,72.879134 L 15.671214,73.905734 L 15.607214,74.739834 L 15.671214,76.087334 L 15.735214,77.178034 L 15.927714,79.808734 L 16.056014,80.899534 L 16.184314,81.797734 L 16.376814,82.631834 L 16.440814,83.145134 L 16.504814,83.466034 L 16.504814,83.466034 L 16.568814,83.402034 L 16.504814,83.338034 L 16.504814,83.274034 L 16.504814,83.210034 L 16.568814,83.081634 L 16.568814,83.017634 L 16.632814,82.825234 L 16.761114,82.504334 L 17.466914,81.285234 L 18.108514,80.322834 L 18.878514,79.167934 L 19.520114,77.948834 L 20.418414,76.280634 L 21.894114,73.136634 L 22.407414,71.660834 L 22.984914,69.928534 L 23.626514,68.260234 L 23.819014,67.490334 L 24.332314,65.629634 L 24.460614,65.180434 L 24.589014,64.859634 L 24.589014,64.731334 L 24.653014,64.667334 L 24.589014,64.731334 L 24.589014,64.795334 L 24.525014,64.859334 L 24.396614,65.051834 L 24.140014,65.885934" fill="none" id="path1672" opacity="0.25" stroke="#777777" stroke-width="0.4"/>
	<path d="M 40.823314,64.922534 L 47.817114,64.922534 L 47.817114,84.042834 L 40.823314,84.042834 L 40.823314,64.922534" fill="none" opacity="0.75" stroke="#0000ff" stroke-width="0.2"/>
	<path d="M 40.823314,64.922534 L 47.817114,64.922534 L 47.817114,84.042834 L 40.823314,84.042834 L 40.823314,64.922534" fill="none" opacity="0.5" stroke="#ff0000" stroke-width="0.1"/>
	<path d="M 43.132814,64.986534 L 43.004514,64.922534 L 42.940514,64.986534 L 42.940514,65.307334 L 42.940514,65.948934 L 43.004514,68.836234 L 42.747814,71.017834 L 42.362914,73.648434 L 42.042114,76.086634 L 41.785414,78.460634 L 41.336314,81.989634 L 41.143814,82.952034 L 40.951314,83.722034 L 40.887314,84.042834 L 40.823314,84.042834 L 40.887314,83.914434 L 40.887314,83.850434 L 40.887314,83.593834 L 41.015614,83.144734 L 41.336414,82.118134 L 42.491314,79.808234 L 43.453814,78.653334 L 44.287914,77.690834 L 44.865414,77.177534 L 45.314514,76.856734 L 45.827814,76.728434 L 46.020314,76.920934 L 46.405314,77.305934 L 46.726114,77.819234 L 46.982714,78.396634 L 47.367714,79.872434 L 47.496014,80.642334 L 47.432014,81.540634 L 47.368014,82.246434 L 47.239714,82.952234 L 47.239714,83.593834 L 47.239714,83.593834 L 47.239714,83.529834 L 47.303714,83.337334 L 47.817114,82.759834" fill="none" id="path1680" opacity="0.5" stroke="#000000" stroke-width="0.2"/>
	<path d="M 43.132814,64.986534 L 43.004514,64.922534 L 42.940514,64.986534 L 42.940514,65.307334 L 42.940514,65.948934 L 43.004514,68.836234 L 42.747814,71.017834 L 42.362914,73.648434 L 42.042114,76.086634 L 41.785414,78.460634 L 41.336314,81.989634 L 41.143814,82.952034 L 40.951314,83.722034 L 40.887314,84.042834 L 40.823314,84.042834 L 40.887314,83.914434 L 40.887314,83.850434 L 40.887314,83.593834 L 41.015614,83.144734 L 41.336414,82.118134 L 42.491314,79.808234 L 43.453814,78.653334 L 44.287914,77.690834 L 44.865414,77.177534 L 45.314514,76.856734 L 45.827814,76.728434 L 46.020314,76.920934 L 46.405314,77.305934 L 46.726114,77.819234 L 46.982714,78.396634 L 47.367714,79.872434 L 47.496014,80.642334 L 47.432014,81.540634 L 47.368014,82.246434 L 47.239714,82.952234 L 47.239714,83.593834 L 47.239714,83.593834 L 47.239714,83.529834 L 47.303714,83.337334 L 47.817114,82.759834" fill="none" id="path1680" opacity="0.25" stroke="#777777" stroke-width="0.4"/>
	<path d="M 64.563114,64.986634 L 66.038514,64.986634 L 66.038514,84.299634 L 64.563114,84.299634 L 64.563114,64.986634" fill="none" opacity="0.75" stroke="#0000ff" stroke-width="0.2"/>
	<path d="M 64.563114,64.986634 L 66.038514,64.986634 L 66.038514,84.299634 L 64.563114,84.299634 L 64.563114,64.986634" fill="none" opacity="0.5" stroke="#ff0000" stroke-width="0.1"/>
	<path d="M 65.782214,65.050634 L 65.846214,64.986634 L 65.846214,65.115034 L 65.846214,65.371634 L 65.910214,65.756634 L 66.038514,68.515634 L 65.846114,70.504634 L 65.653614,73.071134 L 65.461114,75.381034 L 65.204414,77.947534 L 64.819514,81.668934 L 64.755514,83.016334 L 64.627114,83.914634 L 64.627114,84.299634 L 64.563114,84.299634 L 64.563114,84.235634 L 64.627114,83.850634 L 64.948014,82.952334 L 65.782114,81.540834" fill="none" id="path1684" opacity="0.5" stroke="#000000" stroke-width="0.2"/>
	<path d="M 65.782214,65.050634 L 65.846214,64.986634 L 65.846214,65.115034 L 65.846214,65.371634 L 65.910214,65.756634 L 66.038514,68.515634 L 65.846114,70.504634 L 65.653614,73.071134 L 65.461114,75.381034 L 65.204414,77.947534 L 64.819514,81.668934 L 64.755514,83.016334 L 64.627114,83.914634 L 64.627114,84.299634 L 64.563114,84.299634 L 64.563114,84.235634 L 64.627114,83.850634 L 64.948014,82.952334 L 65.782114,81.540834" fill="none" id="path1684" opacity="0.25" stroke="#777777" stroke-width="0.4"/>
	<path d="M 27.349014,69.927234 L 28.246914,69.927234 L 28.246914,71.017934 L 27.349014,71.017934 L 27.349014,69.927234" fill="none" opacity="0.75" stroke="#0000ff" stroke-width="0.2"/>
	<path d="M 27.349014,69.927234 L 28.246914,69.927234 L 28.246914,71.017934 L 27.349014,71.017934 L 27.349014,69.927234" fill="none" opacity="0.5" stroke="#ff0000" stroke-width="0.1"/>
	<path d="M 27.733814,70.247834 L 27.413014,69.991234 L 27.349014,69.927234 L 27.413014,69.927234 L 27.477014,69.927234 L 27.926114,70.440534 L 28.246914,71.017934" fill="none" id="path1676" opacity="0.5" stroke="#000000" stroke-width="0.2"/>
	<path d="M 27.733814,70.247834 L 27.413014,69.991234 L 27.349014,69.927234 L 27.413014,69.927234 L 27.477014,69.927234 L 27.926114,70.440534 L 28.246914,71.017934" fill="none" id="path1676" opacity="0.25" stroke="#777777" stroke-width="0.4"/>
	<path d="M 29.081014,75.188334 L 38.705414,75.188334 L 38.705414,83.657834 L 29.081014,83.657834 L 29.081014,75.188334" fill="none" opacity="0.75" stroke="#0000ff" stroke-width="0.2"/>
	<path d="M 29.081014,75.188334 L 38.705414,75.188334 L 38.705414,83.657834 L 29.081014,83.657834 L 29.081014,75.188334" fill="none" opacity="0.5" stroke="#ff0000" stroke-width="0.1"/>
	<path d="M 35.176714,75.188334 L 35.240714,75.252334 L 35.304714,75.380634 L 35.368714,75.701534 L 35.368714,76.343134 L 35.112014,77.883034 L 35.112014,78.524634 L 35.048014,78.973834 L 35.048014,79.230434 L 35.112014,79.294434 L 35.112014,79.166134 L 35.112014,79.102134 L 35.112014,79.038134 L 35.048014,78.653134 L 35.112014,78.139834 L 35.048014,76.664134 L 34.919714,76.407434 L 34.598914,76.279134 L 33.957214,76.279134 L 32.994814,76.471634 L 30.877414,77.754834 L 29.915014,78.717334 L 29.337514,79.551434 L 29.145014,80.257234 L 29.081014,81.027134 L 29.273514,82.053734 L 29.530214,82.567034 L 29.915114,83.080334 L 30.556814,83.465334 L 31.326714,83.657834 L 34.149914,83.593834 L 35.561414,83.401334 L 36.780514,83.208834 L 37.743014,83.080534 L 38.448814,82.695534 L 38.705414,82.246434 L 38.577114,81.797234 L 38.192114,81.091434" fill="none" id="path1678" opacity="0.5" stroke="#000000" stroke-width="0.2"/>
	<path d="M 35.176714,75.188334 L 35.240714,75.252334 L 35.304714,75.380634 L 35.368714,75.701534 L 35.368714,76.343134 L 35.112014,77.883034 L 35.112014,78.524634 L 35.048014,78.973834 L 35.048014,79.230434 L 35.112014,79.294434 L 35.112014,79.166134 L 35.112014,79.102134 L 35.112014,79.038134 L 35.048014,78.653134 L 35.112014,78.139834 L 35.048014,76.664134 L 34.919714,76.407434 L 34.598914,76.279134 L 33.957214,76.279134 L 32.994814,76.471634 L 30.877414,77.754834 L 29.915014,78.717334 L 29.337514,79.551434 L 29.145014,80.257234 L 29.081014,81.027134 L 29.273514,82.053734 L 29.530214,82.567034 L 29.915114,83.080334 L 30.556814,83.465334 L 31.326714,83.657834 L 34.149914,83.593834 L 35.561414,83.401334 L 36.780514,83.208834 L 37.743014,83.080534 L 38.448814,82.695534 L 38.705414,82.246434 L 38.577114,81.797234 L 38.192114,81.091434" fill="none" id="path1678" opacity="0.25" stroke="#777777" stroke-width="0.4"/>
	<path d="M 22.921914,69.927234 L 28.246914,69.927234 L 28.246914,83.850334 L 22.921914,83.850334 L 22.921914,69.927234" fill="none" opacity="0.75" stroke="#0000ff" stroke-width="0.2"/>
	<path d="M 22.921914,75.701634 L 24.718114,75.701634 L 24.718114,83.850334 L 22.921914,83.850334 L 22.921914,75.701634" fill="none" opacity="0.5" stroke="#ff0000" stroke-width="0.1"/>
	<path d="M 24.718114,75.701634 L 24.718114,76.022434 L 24.654114,76.728234 L 24.397514,77.883234 L 24.205014,78.909834 L 23.691714,81.283834 L 23.435014,82.310434 L 23.242514,83.016234 L 22.985914,83.657834 L 22.921914,83.850334 L 22.921914,83.593634 L 23.178614,82.759534 M 27.733814,70.247834 L 27.413014,69.991234 L 27.349014,69.927234 L 27.413014,69.927234 L 27.477014,69.927234 L 27.926114,70.440534 L 28.246914,71.017934" fill="none" id="path1674" opacity="0.5" stroke="#000000" stroke-width="0.2"/>
	<path d="M 24.718114,75.701634 L 24.718114,76.022434 L 24.654114,76.728234 L 24.397514,77.883234 L 24.205014,78.909834 L 23.691714,81.283834 L 23.435014,82.310434 L 23.242514,83.016234 L 22.985914,83.657834 L 22.921914,83.850334 L 22.921914,83.593634 L 23.178614,82.759534" fill="none" id="path1674" opacity="0.25" stroke="#777777" stroke-width="0.4"/>
	<path d="M 80.475914,76.279134 L 90.228414,76.279134 L 90.228414,86.224034 L 80.475914,86.224034 L 80.475914,76.279134" fill="none" opacity="0.75" stroke="#0000ff" stroke-width="0.2"/>
	<path d="M 80.475914,76.279134 L 90.228414,76.279134 L 90.228414,86.224034 L 80.475914,86.224034 L 80.475914,76.279134" fill="none" opacity="0.5" stroke="#ff0000" stroke-width="0.1"/>
	<path d="M 88.816614,76.471634 L 88.816614,76.279134 L 88.752614,76.279134 L 88.624314,76.279134 L 88.175214,76.343134 L 86.442814,76.856434 L 85.544514,77.305534 L 84.710414,77.883034 L 83.940414,78.588834 L 83.619614,79.166234 L 83.619614,80.385334 L 84.197114,80.834534 L 85.223714,81.347834 L 86.827814,81.796934 L 88.175214,82.310234 L 90.035914,83.721834 L 90.228414,84.235134 L 90.164414,84.555934 L 89.843614,84.876734 L 89.073714,85.518334 L 87.533814,86.160034 L 86.635514,86.224034 L 86.058014,86.095634 L 85.416414,85.774834 L 84.774814,85.325734 L 82.914014,84.619934 L 80.475914,84.748234" fill="none" id="path1688" opacity="0.5" stroke="#000000" stroke-width="0.2"/>
	<path d="M 88.816614,76.471634 L 88.816614,76.279134 L 88.752614,76.279134 L 88.624314,76.279134 L 88.175214,76.343134 L 86.442814,76.856434 L 85.544514,77.305534 L 84.710414,77.883034 L 83.940414,78.588834 L 83.619614,79.166234 L 83.619614,80.385334 L 84.197114,80.834534 L 85.223714,81.347834 L 86.827814,81.796934 L 88.175214,82.310234 L 90.035914,83.721834 L 90.228414,84.235134 L 90.164414,84.555934 L 89.843614,84.876734 L 89.073714,85.518334 L 87.533814,86.160034 L 86.635514,86.224034 L 86.058014,86.095634 L 85.416414,85.774834 L 84.774814,85.325734 L 82.914014,84.619934 L 80.475914,84.748234" fill="none" id="path1688" opacity="0.25" stroke="#777777" stroke-width="0.4"/>
	<path d="M 50.832314,77.177434 L 60.392614,77.177434 L 60.392614,85.069234 L 50.832314,85.069234 L 50.832314,77.177434" fill="none" opacity="0.75" stroke="#0000ff" stroke-width="0.2"/>
	<path d="M 50.832314,77.177434 L 60.392614,77.177434 L 60.392614,85.069234 L 50.832314,85.069234 L 50.832314,77.177434" fill="none" opacity="0.5" stroke="#ff0000" stroke-width="0.1"/>
	<path d="M 55.580414,77.434034 L 55.002914,77.305734 L 54.617914,77.177434 L 54.104614,77.241434 L 53.463014,77.498034 L 51.923114,79.358734 L 51.217314,80.770334 L 50.832314,82.053634 L 50.832314,83.144334 L 51.024814,84.042634 L 52.500614,84.940934 L 53.655514,85.069234 L 55.131214,84.812634 L 56.735314,84.106834 L 58.275214,83.208534 L 60.200114,81.219534 L 60.392614,80.385334 L 60.392614,79.807934 L 59.943414,79.166234 L 59.109314,78.268034 L 57.056114,77.626334 L 55.708714,77.626334 L 54.746314,77.690334 L 54.361314,77.818734 L 54.297314,77.754734 L 54.553914,77.754734 L 55.003114,77.690734" fill="none" id="path1682" opacity="0.5" stroke="#000000" stroke-width="0.2"/>
	<path d="M 55.580414,77.434034 L 55.002914,77.305734 L 54.617914,77.177434 L 54.104614,77.241434 L 53.463014,77.498034 L 51.923114,79.358734 L 51.217314,80.770334 L 50.832314,82.053634 L 50.832314,83.144334 L 51.024814,84.042634 L 52.500614,84.940934 L 53.655514,85.069234 L 55.131214,84.812634 L 56.735314,84.106834 L 58.275214,83.208534 L 60.200114,81.219534 L 60.392614,80.385334 L 60.392614,79.807934 L 59.943414,79.166234 L 59.109314,78.268034 L 57.056114,77.626334 L 55.708714,77.626334 L 54.746314,77.690334 L 54.361314,77.818734 L 54.297314,77.754734 L 54.553914,77.754734 L 55.003114,77.690734" fill="none" id="path1682" opacity="0.25" stroke="#777777" stroke-width="0.4"/>
	<path d="M 69.888614,77.241734 L 79.320514,77.241734 L 79.320514,85.518734 L 69.888614,85.518734 L 69.888614,77.241734" fill="none" opacity="0.75" stroke="#0000ff" stroke-width="0.2"/>
	<path d="M 69.888614,77.241734 L 79.320514,77.241734 L 79.320514,85.518734 L 69.888614,85.518734 L 69.888614,77.241734" fill="none" opacity="0.5" stroke="#ff0000" stroke-width="0.1"/>
	<path d="M 74.957514,77.305734 L 74.187614,77.241734 L 73.866714,77.370034 L 73.481814,77.562534 L 72.583514,78.396634 L 70.851114,80.899034 L 70.081114,82.438934 L 69.888614,83.658034 L 69.952614,84.492134 L 70.145114,85.262034 L 71.107514,85.518734 L 71.941714,85.069534 L 73.096614,84.235434 L 74.572314,82.823834 L 75.598914,81.604734 L 76.882214,79.102434 L 76.882214,78.717434 L 76.818214,78.717434 L 76.625714,79.038234 L 76.433214,79.487434 L 75.984114,81.283934 L 75.984114,81.797234 L 75.984114,82.374734 L 76.112414,82.823834 L 76.240714,83.208834 L 76.561514,83.401334 L 77.074814,83.593834 L 77.844814,83.722134 L 78.614714,83.786134 L 79.320514,83.465334" fill="none" id="path1686" opacity="0.5" stroke="#000000" stroke-width="0.2"/>
	<path d="M 74.957514,77.305734 L 74.187614,77.241734 L 73.866714,77.370034 L 73.481814,77.562534 L 72.583514,78.396634 L 70.851114,80.899034 L 70.081114,82.438934 L 69.888614,83.658034 L 69.952614,84.492134 L 70.145114,85.262034 L 71.107514,85.518734 L 71.941714,85.069534 L 73.096614,84.235434 L 74.572314,82.823834 L 75.598914,81.604734 L 76.882214,79.102434 L 76.882214,78.717434 L 76.818214,78.717434 L 76.625714,79.038234 L 76.433214,79.487434 L 75.984114,81.283934 L 75.984114,81.797234 L 75.984114,82.374734 L 76.112414,82.823834 L 76.240714,83.208834 L 76.561514,83.401334 L 77.074814,83.593834 L 77.844814,83.722134 L 78.614714,83.786134 L 79.320514,83.465334" fill="none" id="path1686" opacity="0.25" stroke="#777777" stroke-width="0.4"/>
	<path d="M 1.5226142,57.667334 L 4.0226142,57.667334 L 7.5226142,64.667334 L 6.5226142,64.167334 M 7.5226142,64.667334 L 7.5226142,63.667334" fill="none" stroke="#000000" stroke-width="0.2"/>
	<path d="M 34.823314,57.922534 L 37.323314,57.922534 L 40.823314,64.922534 L 39.823314,64.422534 M 40.823314,64.922534 L 40.823314,63.922534" fill="none" stroke="#000000" stroke-width="0.2"/>
	<path d="M 58.563114,57.986634 L 61.063114,57.986634 L 64.563114,64.986634 L 63.563114,64.486634 M 64.563114,64.986634 L 64.563114,63.986634" fill="none" stroke="#000000" stroke-width="0.2"/>
	<path d="M 21.349014,62.927234 L 23.849014,62.927234 L 27.349014,69.927234 L 26.349014,69.427234 M 27.349014,69.927234 L 27.349014,68.927234" fill="none" stroke="#000000" stroke-width="0.2"/>
	<path d="M 23.081014,68.188334 L 25.581014,68.188334 L 29.081014,75.188334 L 28.081014,74.688334 M 29.081014,75.188334 L 29.081014,74.188334" fill="none" stroke="#000000" stroke-width="0.2"/>
	<path d="M 16.921914,68.701634 L 19.421914,68.701634 L 22.921914,75.701634 L 21.921914,75.201634 M 22.921914,75.701634 L 22.921914,74.701634" fill="none" stroke="#000000" stroke-width="0.2"/>
	<path d="M 74.475914,69.279134 L 76.975914,69.279134 L 80.475914,76.279134 L 79.475914,75.779134 M 80.475914,76.279134 L 80.475914,75.279134" fill="none" stroke="#000000" stroke-width="0.2"/>
	<path d="M 44.832314,70.177434 L 47.332314,70.177434 L 50.832314,77.177434 L 49.832314,76.677434 M 50.832314,77.177434 L 50.832314,76.177434" fill="none" stroke="#000000" stroke-width="0.2"/>
	<path d="M 63.888614,70.241734 L 66.388614,70.241734 L 69.888614,77.241734 L 68.888614,76.741734 M 69.888614,77.241734 L 69.888614,76.241734" fill="none" stroke="#000000" stroke-width="0.2"/>
	<text font-size="4px">
		<textPath xlink:href="#tp0">0</textPath>
	</text>
	<text font-size="4px">
		<textPath xlink:href="#tp1">4</textPath>
	</text>
	<text font-size="4px">
		<textPath xlink:href="#tp2">6</textPath>
	</text>
	<text font-size="4px">
		<textPath xlink:href="#tp3">2</textPath>
	</text>
	<text font-size="4px">
		<textPath xlink:href="#tp4">3</textPath>
	</text>
	<text font-size="4px">
		<textPath xlink:href="#tp5">1</textPath>
	</text>
	<text font-size="4px">
		<textPath xlink:href="#tp6">8</textPath>
	</text>
	<text font-size="4px">
		<textPath xlink:href="#tp7">5</textPath>
	</text>
	<text font-size="4px">
		<textPath xlink:href="#tp8">7</textPath>
	</text>
</svg>
