<?xml version="1.0" ?>
<svg baseProfile="full" height="212px" version="1.1" viewBox="0 0 17.2589395 6.0698609" width="600px" xmlns="http://www.w3.org/2000/svg" xmlns:ev="http://www.w3.org/2001/xml-events" xmlns:xlink="http://www.w3.org/1999/xlink">
	<defs/>
	<path d="M 1.27689,-0.601463 L 1.29229,-0.632263 L 1.27689,-0.616863 L 1.29229,-0.616863 L 1.29229,-0.586063 L 1.29229,-0.462983 L 1.26149,-0.293753 L 1.21539,-0.062983 L 1.13849,0.229337 L 1.01541,0.567797 L 0.70772,1.383197 L 0.55387,1.767817 L 0.38464,2.183207 L 0.24617,2.460137 L 0.12309,2.752447 L 0.0154,3.121687 L 0.0,3.183187 L 0.0154,3.198587 L 0.0154,3.137087 M 0.12302,1.490877 L 0.32302,1.383187 L 0.5538,1.290887 L 0.87688,1.183187 L 1.21535,1.029347 L 1.93844,0.813957 L 2.2769,0.706257 L 2.53844,0.660157 L 2.72306,0.644757 L 2.84614,0.644757 L 2.86154,0.644757" id="path96" style="fill:none;stroke:#000000;stroke-width:0.26458332"/>
	<path d="M 3.178482,2.490857 L 3.178482,2.506257 L 3.209242,2.521657 L 3.255402,2.521657 L 3.363101,2.490857 L 3.778489,2.275477 L 4.040029,2.044717 L 4.316955,1.798557 L 4.516962,1.567777 L 4.686195,1.383167 L 4.763115,1.229317 L 4.701575,1.213917 L 4.516959,1.198517 L 4.286184,1.229317 L 4.024643,1.352397 L 3.470791,1.921627 L 3.270782,2.306247 L 3.163094,2.644727 L 3.147694,2.829337 L 3.178464,3.013957 L 3.363083,3.183187 L 3.440003,3.198587 L 3.470783,3.198587 L 3.624625,3.167787 L 3.79386,3.106287 L 4.378484,2.829367 L 4.824648,2.613967 L 5.20927,2.337047" id="path558" style="fill:none;stroke:#000000;stroke-width:0.26458332"/>
	<path d="M 6.8923876,1.306387 L 6.6923876,1.367887 L 6.4616176,1.460187 L 6.2000776,1.598647 L 5.9539176,1.752497 L 5.7539176,2.060187 L 5.8154176,2.137087 L 5.9077176,2.244777 L 6.0307976,2.352467 L 6.1076976,2.429367 L 6.1691976,2.552437 L 6.1691976,2.629337 L 6.0922976,2.767797 L 5.9692176,2.906267 L 5.8307576,3.013957 L 5.5538276,3.183187 L 5.4769276,3.198587 L 5.4154276,3.198587 L 5.4154276,3.183187" id="path68" style="fill:none;stroke:#000000;stroke-width:0.26458332"/>
	<path d="M 7.0708836,2.552417 L 7.0400836,2.506217 L 7.0708836,2.475417 L 7.1785736,2.413917 L 7.4247336,2.398517 L 8.1785936,2.183127 L 8.6709036,2.029287 L 9.2863036,1.875437 L 9.9016836,1.721587 L 10.4401636,1.536977 M 9.3170736,0.183147 L 9.1632236,0.198547 L 8.9632236,0.306237 L 8.6862936,0.598547 L 8.3324436,1.013937 L 7.7939636,1.998567 L 7.7016636,2.444727 L 7.6554636,2.844727 L 7.7016636,3.060117 L 7.7939636,3.198587" id="path236" style="fill:none;stroke:#000000;stroke-width:0.26458332"/>
	<path d="M 11.0879316,2.136997 L 11.0725316,2.121597 L 11.0571316,2.136997 L 11.0417316,2.167797 L 11.0263316,2.260097 L 10.8878716,2.752417 L 10.8262716,2.998567 L 10.7801716,3.167787 L 10.7955716,3.183187 L 10.8109716,3.198587 L 10.9494316,2.921667 L 11.0879016,2.598587 M 11.2417816,1.075437 L 11.1802816,0.952347 L 11.1341816,0.890847 L 11.1033816,0.890847 L 11.1187816,0.890847 L 11.2572516,1.060077 L 11.3803316,1.152377 L 11.5649516,1.229277" id="path876" style="fill:none;stroke:#000000;stroke-width:0.26458332"/>
	<path d="M 12.5665166,1.629427 L 12.4742066,1.767897 L 12.3818866,1.890967 L 12.2434356,2.121747 L 12.0741946,2.337137 L 11.7511196,2.798677 L 11.6895696,2.875577 L 11.6434296,2.906377 L 11.6434296,2.906377 L 11.6741796,2.875577 L 12.0126586,2.583267 L 12.2741996,2.352497 L 12.6126626,2.106337 L 12.9665186,1.875567 L 13.3203646,1.721717 L 13.9049686,1.537097 L 14.0434386,1.537097 L 14.0742386,1.552497 L 14.1050386,1.613997 L 14.0896386,1.690897 L 13.8742486,2.152447 L 13.6896226,2.444757 L 13.5203896,2.690917 L 13.4280796,2.875527 L 13.3973296,2.967827 L 13.3665496,3.106287 L 13.3511796,3.152387 L 13.3511796,3.167787 L 13.3665496,3.183187 L 13.3973296,3.198587" id="path266" style="fill:none;stroke:#000000;stroke-width:0.26458332"/>
	<path d="M 17.2589395,1.0681679 L 17.2127395,0.9450879 L 17.1050495,0.8835879 L 16.9358195,0.8681879 L 16.7511995,0.9143879 L 16.2281095,1.3297679 L 15.9665595,1.6682379 L 15.8127195,1.9297779 L 15.8127195,2.1297779 L 15.8743195,2.2528579 L 16.0589295,2.3759379 L 16.1820095,2.3605379 L 16.3666295,2.2990379 L 16.5666295,2.1759579 L 16.7358595,2.0836579 L 16.9974095,2.0221579 L 16.9974095,2.2375479 L 16.8897195,2.5144779 L 16.6897095,2.9298679 L 16.4127795,3.3914079 L 15.7819995,4.2529579 L 15.4742995,4.5914379 L 15.2127695,4.8683579 L 14.9973795,5.0837479 L 14.7819795,5.2837579 L 14.4589095,5.4375979 L 14.3511995,5.4375979" id="path426" style="fill:none;stroke:#000000;stroke-width:0.26458332"/>
	<path d="M 0.0,-0.632263 L 2.86154,-0.632263 L 2.86154,3.198587 L 0.0,3.198587 L 0.0,-0.632263" fill="#00ff00" opacity="0.5" stroke="#00ff00" stroke-width="0.05"/>
	<path d="M 3.147694,1.198517 L 5.20927,1.198517 L 5.20927,3.198587 L 3.147694,3.198587 L 3.147694,1.198517" fill="#00ff00" opacity="0.5" stroke="#00ff00" stroke-width="0.05"/>
	<path d="M 5.4154276,1.306387 L 6.8923876,1.306387 L 6.8923876,3.198587 L 5.4154276,3.198587 L 5.4154276,1.306387" fill="#00ff00" opacity="0.5" stroke="#00ff00" stroke-width="0.05"/>
	<path d="M 7.0400836,0.183147 L 10.4401636,0.183147 L 10.4401636,3.198587 L 7.0400836,3.198587 L 7.0400836,0.183147" fill="#00ff00" opacity="0.5" stroke="#00ff00" stroke-width="0.05"/>
	<path d="M 10.7801716,0.890847 L 11.5649516,0.890847 L 11.5649516,3.198587 L 10.7801716,3.198587 L 10.7801716,0.890847" fill="#00ff00" opacity="0.5" stroke="#00ff00" stroke-width="0.05"/>
	<path d="M 11.6434296,1.537097 L 14.1050386,1.537097 L 14.1050386,3.198587 L 11.6434296,3.198587 L 11.6434296,1.537097" fill="#00ff00" opacity="0.5" stroke="#00ff00" stroke-width="0.05"/>
	<path d="M 14.3511995,0.8681879 L 17.2589395,0.8681879 L 17.2589395,5.4375979 L 14.3511995,5.4375979 L 14.3511995,0.8681879" fill="#00ff00" opacity="0.5" stroke="#00ff00" stroke-width="0.05"/>
	<path d="M 0.0,-0.632263 L 17.2589395,-0.632263 L 17.2589395,5.4375979 L 0.0,5.4375979 L 0.0,-0.632263" fill="#000000" opacity="0.25"/>
	<path d="M 0.0,3.61663963 L 17.2589395,3.61663963" fill="none" opacity="1.0" stroke="#ff0000" stroke-width="0.03"/>
</svg>
