<?xml version="1.0" encoding="UTF-8" standalone="no"?>
<?xml-stylesheet type="text/css" href="story1-example-anim.css" ?>
<!-- Created with Inkscape (http://www.inkscape.org/) -->

<svg
   xmlns:dc="http://purl.org/dc/elements/1.1/"
   xmlns:cc="http://creativecommons.org/ns#"
   xmlns:rdf="http://www.w3.org/1999/02/22-rdf-syntax-ns#"
   xmlns:svg="http://www.w3.org/2000/svg"
   xmlns="http://www.w3.org/2000/svg"
   xmlns:sodipodi="http://sodipodi.sourceforge.net/DTD/sodipodi-0.dtd"
   xmlns:inkscape="http://www.inkscape.org/namespaces/inkscape"
   width="27.110722mm"
   height="9.9765568mm"
   viewBox="0 0 96.061613 35.350004"
   id="svg16345"
   version="1.1"
   inkscape:version="0.91 r13725"
   sodipodi:docname="example-detail.svg">
  <defs
     id="defs16347" />
  <sodipodi:namedview
     id="base"
     pagecolor="#ffffff"
     bordercolor="#666666"
     borderopacity="1.0"
     inkscape:pageopacity="0.0"
     inkscape:pageshadow="2"
     inkscape:zoom="0.35"
     inkscape:cx="-635.85283"
     inkscape:cy="-939.15492"
     inkscape:document-units="px"
     inkscape:current-layer="svg16345"
     showgrid="false"
     fit-margin-top="2.5"
     fit-margin-left="2.5"
     fit-margin-bottom="1"
     fit-margin-right="1" />
  <metadata
     id="metadata16350">
    <rdf:RDF>
      <cc:Work
         rdf:about="">
        <dc:format>image/svg+xml</dc:format>
        <dc:type
           rdf:resource="http://purl.org/dc/dcmitype/StillImage" />
        <dc:title></dc:title>
      </cc:Work>
    </rdf:RDF>
  </metadata>
  <g
     inkscape:label="Layer 1"
     inkscape:groupmode="layer"
     id="layer1"
     transform="translate(1.7716535,-54.92126)">
    <path
       inkscape:connector-curvature="0"
       style="fill:none;stroke:#000000;stroke-width:1"
       d="m 7.5226142,85.326034 0.064,0.064 0,-0.064 0,0.064 0.1283,0 0.2566,-0.064 0.1284,-0.1925 0.1283,-0.2566 1.0266,-1.1549 0.5774,-0.7058 0.8341998,-1.3474 0.8341,-1.2191 0.8982,-1.5399 0.6417,-1.155 0.7058,-1.3474 1.4115,-2.6948 0.2567,-0.6416 0.1925,-0.5775 0.2566,-0.7058 0.1283,-0.385 0.064,-0.4491 0.064,-0.064 0.064,-0.064 -0.064,-0.064 0.064,0 0,0 0,0 -0.064,-0.064 -0.064,0 0,0 0,0.1283 -0.064,0 0,0.1283 0,0.3209 -0.1283,0.3208 -0.1283,1.2832 -0.064,1.0266 -0.064,0.8341 0.064,1.3475 0.064,1.0907 0.1925,2.6307 0.1283,1.0908 0.1283,0.8982 0.1925,0.8341 0.064,0.5133 0.064,0.3209 0,0 0.064,-0.064 -0.064,-0.064 0,-0.064 0,-0.064 0.064,-0.1284 0,-0.064 0.064,-0.1924 0.1283,-0.3209 0.7058,-1.2191 0.6416,-0.9624 0.77,-1.1549 0.6416,-1.2191 0.8983,-1.6682 1.4757,-3.144 0.5133,-1.4758 0.5775,-1.7323 0.6416,-1.6683 0.1925,-0.7699 0.5133,-1.8607 0.1283,-0.4492 0.1284,-0.3208 0,-0.1283 0.064,-0.064 -0.064,0.064 0,0.064 -0.064,0.064 -0.1284,0.1925 -0.2566,0.8341"
       id="path1672" />
    <path
       inkscape:connector-curvature="0"
       style="fill:none;stroke:#000000;stroke-width:1"
       d="m 24.718114,75.701634 0,0.3208 -0.064,0.7058 -0.2566,1.155 -0.1925,1.0266 -0.5133,2.374 -0.2567,1.0266 -0.1925,0.7058 -0.2566,0.6416 -0.064,0.1925 0,-0.2567 0.2567,-0.8341"
       id="path1674" />
    <path
       inkscape:connector-curvature="0"
       style="fill:none;stroke:#000000;stroke-width:1"
       d="m 27.733814,70.247834 -0.3208,-0.2566 -0.064,-0.064 0.064,0 0.064,0 0.4491,0.5133 0.3208,0.5774"
       id="path1676" />
    <path
       inkscape:connector-curvature="0"
       style="fill:none;stroke:#000000;stroke-width:1"
       d="m 35.176714,75.188334 0.064,0.064 0.064,0.1283 0.064,0.3209 0,0.6416 -0.2567,1.5399 0,0.6416 -0.064,0.4492 0,0.2566 0.064,0.064 0,-0.1283 0,-0.064 0,-0.064 -0.064,-0.385 0.064,-0.5133 -0.064,-1.4757 -0.1283,-0.2567 -0.3208,-0.1283 -0.6417,0 -0.9624,0.1925 -2.1174,1.2832 -0.9624,0.9625 -0.5775,0.8341 -0.1925,0.7058 -0.064,0.7699 0.1925,1.0266 0.2567,0.5133 0.3849,0.5133 0.6417,0.385 0.7699,0.1925 2.8232,-0.064 1.4115,-0.1925 1.2191,-0.1925 0.9625,-0.1283 0.7058,-0.385 0.2566,-0.4491 -0.1283,-0.4492 -0.385,-0.7058"
       id="path1678" />
    <path
       inkscape:connector-curvature="0"
       style="fill:none;stroke:#000000;stroke-width:1"
       d="m 43.132814,64.986534 -0.1283,-0.064 -0.064,0.064 0,0.3208 0,0.6416 0.064,2.8873 -0.2567,2.1816 -0.3849,2.6306 -0.3208,2.4382 -0.2567,2.374 -0.4491,3.529 -0.1925,0.9624 -0.1925,0.77 -0.064,0.3208 -0.064,0 0.064,-0.1284 0,-0.064 0,-0.2566 0.1283,-0.4491 0.3208,-1.0266 1.1549,-2.3099 0.9625,-1.1549 0.8341,-0.9625 0.5775,-0.5133 0.4491,-0.3208 0.5133,-0.1283 0.1925,0.1925 0.385,0.385 0.3208,0.5133 0.2566,0.5774 0.385,1.4758 0.1283,0.7699 -0.064,0.8983 -0.064,0.7058 -0.1283,0.7058 0,0.6416 0,0 0,-0.064 0.064,-0.1925 0.5134,-0.5775"
       id="path1680" />
    <path
       inkscape:connector-curvature="0"
       style="fill:none;stroke:#000000;stroke-width:1"
       d="m 55.580414,77.434034 -0.5775,-0.1283 -0.385,-0.1283 -0.5133,0.064 -0.6416,0.2566 -1.5399,1.8607 -0.7058,1.4116 -0.385,1.2833 0,1.0907 0.1925,0.8983 1.4758,0.8983 1.1549,0.1283 1.4757,-0.2566 1.6041,-0.7058 1.5399,-0.8983 1.9249,-1.989 0.1925,-0.8342 0,-0.5774 -0.4492,-0.6417 -0.8341,-0.8982 -2.0532,-0.6417 -1.3474,0 -0.9624,0.064 -0.385,0.1284 -0.064,-0.064 0.2566,0 0.4492,-0.064"
       id="path1682" />
    <path
       inkscape:connector-curvature="0"
       style="fill:none;stroke:#000000;stroke-width:1"
       d="m 65.782214,65.050634 0.064,-0.064 0,0.1284 0,0.2566 0.064,0.385 0.1283,2.759 -0.1924,1.989 -0.1925,2.5665 -0.1925,2.3099 -0.2567,2.5665 -0.3849,3.7214 -0.064,1.3474 -0.1284,0.8983 0,0.385 -0.064,0 0,-0.064 0.064,-0.385 0.3209,-0.8983 0.8341,-1.4115"
       id="path1684" />
    <path
       inkscape:connector-curvature="0"
       style="fill:none;stroke:#000000;stroke-width:1"
       d="m 74.957514,77.305734 -0.7699,-0.064 -0.3209,0.1283 -0.3849,0.1925 -0.8983,0.8341 -1.7324,2.5024 -0.77,1.5399 -0.1925,1.2191 0.064,0.8341 0.1925,0.7699 0.9624,0.2567 0.8342,-0.4492 1.1549,-0.8341 1.4757,-1.4116 1.0266,-1.2191 1.2833,-2.5023 0,-0.385 -0.064,0 -0.1925,0.3208 -0.1925,0.4492 -0.4491,1.7965 0,0.5133 0,0.5775 0.1283,0.4491 0.1283,0.385 0.3208,0.1925 0.5133,0.1925 0.77,0.1283 0.7699,0.064 0.7058,-0.3208"
       id="path1686" />
    <path
       inkscape:connector-curvature="0"
       style="fill:none;stroke:#000000;stroke-width:1"
       d="m 88.816614,76.471634 0,-0.1925 -0.064,0 -0.1283,0 -0.4491,0.064 -1.7324,0.5133 -0.8983,0.4491 -0.8341,0.5775 -0.77,0.7058 -0.3208,0.5774 0,1.2191 0.5775,0.4492 1.0266,0.5133 1.6041,0.4491 1.3474,0.5133 1.8607,1.4116 0.1925,0.5133 -0.064,0.3208 -0.3208,0.3208 -0.7699,0.6416 -1.5399,0.6417 -0.8983,0.064 -0.5775,-0.1284 -0.6416,-0.3208 -0.6416,-0.4491 -1.8608,-0.7058 -2.4381,0.1283"
       id="path1688" />
  </g>
</svg>
