<?xml version="1.0" encoding="UTF-8" standalone="no"?>
<svg
   xmlns:dc="http://purl.org/dc/elements/1.1/"
   xmlns:cc="http://creativecommons.org/ns#"
   xmlns:rdf="http://www.w3.org/1999/02/22-rdf-syntax-ns#"
   xmlns:svg="http://www.w3.org/2000/svg"
   xmlns="http://www.w3.org/2000/svg"
   xmlns:sodipodi="http://sodipodi.sourceforge.net/DTD/sodipodi-0.dtd"
   xmlns:inkscape="http://www.inkscape.org/namespaces/inkscape"
   height="4.2038221in"
   version="1.1"
   viewBox="0 0 411.30549 257.10576"
   width="5.9212313in"
   id="svg2"
   inkscape:version="0.91 r13725"
   sodipodi:docname="example-label.svg">
  <metadata
     id="metadata48">
    <rdf:RDF>
      <cc:Work
         rdf:about="">
        <dc:format>image/svg+xml</dc:format>
        <dc:type
           rdf:resource="http://purl.org/dc/dcmitype/StillImage" />
        <dc:title></dc:title>
      </cc:Work>
    </rdf:RDF>
  </metadata>
  <sodipodi:namedview
     pagecolor="#ffffff"
     bordercolor="#666666"
     borderopacity="1"
     objecttolerance="10"
     gridtolerance="10"
     guidetolerance="10"
     inkscape:pageopacity="1"
     inkscape:pageshadow="2"
     inkscape:window-width="640"
     inkscape:window-height="480"
     id="namedview46"
     showgrid="false"
     fit-margin-top="0.5"
     fit-margin-right="0.5"
     fit-margin-bottom="0.5"
     fit-margin-left="0.5"
     inkscape:zoom="3.4472222"
     inkscape:cx="170.23211"
     inkscape:cy="236.60355"
     inkscape:current-layer="svg2" />
  <defs
     id="defs4" />
  <path
     d="m 55.831367,53.403389 0,0 -0.6,-0.4 0,-0.2 -0.8,-0.2 -1.8,-0.6 -1.99996,-0.8 -2.60004,-0.4 -2.8,0.4 -2.6,0.6 -3.79995,1.7998 -1.20005,1.4004 -0.6,1.3998 0,1.4 0.6,0.7998 1.20005,1.4004 1.79999,1.7998 5.59996,3.2002 3.2,1.7998 3.6,2.4001 3.2,2.1999 2.8,2.1998 1.8,2.2002 1.4,2 0.4,1.5999 0.4,2.600103 0,0 -1.39996,1.5998 -2.20004,1.4004 -2.4,1.1998 -3.19995,1.4 -4.40005,0.4 -4.2,0.4 -3.59996,-0.6 -3.20004,-0.8 -1.79996,-1.4 -1.40004,-2.0002 0,0"
     id="path1112"
     inkscape:connector-curvature="0"
     style="fill:none;stroke:#191919;stroke-width:1;stroke-linejoin:round" />
  <path
     d="m 72.161367,78.803339 1,-0.8 0.80005,-1 0.99995,-1.2 1.8,-1.4 1.20005,-0.99995 1,-0.80005 0.79999,-1 0.19996,-1 0,-0.8 -0.6,-1 -1.8,-0.8 -2.2,0.40005 -2.2,0 -1.4,1.39995 -0.99996,2.2 -1.40004,2.20004 0,2.79996 0.6,3.200043 0.80004,2.79996 0.99996,2.20004 2.20005,1.39996 1.79999,1 2.39996,0.80005 2.2,0 1.8,-0.80005 1.4,-1.8 0,0"
     id="path108"
     inkscape:connector-curvature="0"
     style="fill:none;stroke:#191919;stroke-width:1;stroke-linejoin:round" />
  <path
     d="m 95.905342,73.803189 -0.19998,-0.3998 -0.4,0 -0.6,0.3998 -1.80002,0 -1.79998,0.2 -1,0.6 -1.6,1.4 0,2.8 0.60002,1.400003 0.59998,0.8 1,0.8 1.2,0.6 0.60002,0.2001 0.39996,-0.2001 1.4,-0.4002 1.40002,-0.7998 0.19998,-0.6 1.40002,-1 0.20002,-0.800003 0.19998,-0.6 0,-1.4 -0.19998,-0.8 -0.20002,-1.2 -0.4,-0.2 -0.2,-0.4 -0.40002,0.6 0.40002,0.6 0.40002,2 0.4,2.400003 1.19998,2.1998 1.399998,2.2002 0.6,2 1.2,1.4001 0.8,0.8001 1,0 0.59998,0 0,0"
     id="path1074"
     inkscape:connector-curvature="0"
     style="fill:none;stroke:#191919;stroke-width:1;stroke-linejoin:round" />
  <path
     d="m 102.33535,71.603289 0,0.6 0,0.8001 0,1.3999 -0.4,1.8 0,2.4 0.80005,1.800003 0.59995,1.4 0,1.2001 0,0 0,0.4 0,0 0,0 0,0 0.40005,-0.4 0.99995,-0.4001 0,-0.8 1.4,-3.799903 0.8,-2.6001 0.4,-1.9999 1,-1.6001 0.8,-1.4 0.6,-0.6 0.4,0 0.40004,0.6 0.99996,1.4 0.4,1.8 0.4,2.2 0.6,2.8 0.80005,2.600003 0.39995,2.8 0.40004,2.2 0.19996,1.4 0.4,0.8001 0,0"
     id="path312"
     inkscape:connector-curvature="0"
     style="fill:none;stroke:#191919;stroke-width:1;stroke-linejoin:round" />
  <path
     d="m 164.10089,127.84521 0.19996,1.3999 0.20002,1.6 0,2.0001 0.8,2.5999 0,2.4001 0,2.7999 0,2.8001 0,2.7999 -0.2,2.3999 -0.6,2.0001 -0.20002,0.8001 -0.19996,0.5999 0,-0.2 -0.20002,-0.3999 -0.4,-1.0001 -0.8,-1.9999 -0.59998,-3.0001 -1.00002,-4.2 -0.4,-4.7999 -0.19998,-4.6001 0.39996,-4.6 0.4,-3.20001 3,-5.5999 1.6,-2 1.80002,-1.6 2,-0.8001 1.59998,-0.5999 1.6,0.1998 1.20004,0.4001 1.4,0.9999 1.6,3.4002 0.4,2.1999 0,2 -0.4,2.2001 -1.20004,1.60001 -1.39998,1.4 -1.99998,1.3999 -2,1.4 -1.80002,1.4 -1.59998,0.8001 -1.40002,1.1999 -0.4,0.4 -0.2,0.4001 0.2,0 3.99998,-0.4001 2.40002,0 2.40002,0.4001 3,0 2.59998,0.1998 2.80002,0.6001 3,1.2 1.6,1.0001 0.79996,1.3999 1.00002,1.4 0.20002,2.2001 0,2.5999 -0.40002,2.4001 -1.59998,2.9999 -4.80002,5.6001 -3.19998,1.7999 -3.80002,1.6001 -3.19998,0.5999 -3,0.2 -2.40002,-0.2 -0.6,-0.5999 -0.20002,-1.2002 0,0"
     id="path872"
     style="fill:none;stroke:#191919;stroke-width:1;stroke-linejoin:round"
     inkscape:connector-curvature="0" />
  <path
     d="m 193.46489,151.64511 1,-0.19995 0.8,-1.60005 2.2,-3.8 0.6,-1.79996 0.4,-1 0,-1.20004 -0.4,-1.8 -0.6,-0.99996 -0.8,-1 -0.9999,-0.40004 -1.2001,0.40004 -1,1 -1,2.20001 -0.4,2.79999 -0.4,2.79996 0,3.2 0.4,2.6 0.6,2.8 1.2,2.2 1,1.40004 1.4,0.99996 1.8,0.4 1.4,-0.4 1.8,-0.6 1.8,-1.2 0,0"
     id="path130"
     inkscape:connector-curvature="0"
     style="fill:none;stroke:#191919;stroke-width:1;stroke-linejoin:round" />
  <path
     d="m 211.46279,107.0452 0.3999,0 0.2001,0 0,0.1998 0.1998,1.2002 0.4001,3 0,3.6 0,6.7999 0.2,7.40001 0.6001,8.6 0.1998,7.6 0.8001,6.0001 1.2,4.9999 1.4001,2.8001 0.7999,1.3999 0.6001,0 0.5999,-0.5998 0,0"
     id="path1062"
     inkscape:connector-curvature="0"
     style="fill:none;stroke:#191919;stroke-width:1;stroke-linejoin:round" />
  <path
     d="m 219.40273,107.645 0,0.2 0.2,0 0,0.2 0,0.6001 0,0.7999 0,2.6001 0,3 0.2,5 -0.2,6.19991 0,6.8 0,7.4 0.40004,6.6001 0.20001,5.7999 0,4.8 0.59995,2.4001 0.6,0.6 0.4,0 0.6,-2 0,0"
     id="path904"
     inkscape:connector-curvature="0"
     style="fill:none;stroke:#191919;stroke-width:1;stroke-linejoin:round" />
  <path
     d="m 240.65273,126.04511 0,0.1998 0,1.2002 -0.4,2 0.4,6.7998 0.6,4.8002 0.80005,5.1998 0.39995,4.8002 0.6,4.4 0.4,2.8 0.40004,2.2 0.39996,0.2 0,-0.2 0,-0.6 -0.39996,-1.6 -0.80004,-3.6 -0.99995,-4.8 -1.40005,-5.8 -0.4,-11.6 -0.8,-10.59991 0,-4.8002 0.8,-2.9999 0.4,-2.4 1.40005,-1.2 1.39995,-0.8 1.8,0.2 1.80005,1.2 2.19995,1.6002 1.80005,1.9998 1.39995,2.2001 1,2.5999 0.40004,3 0.39996,3.60001 -0.8,3.6 -0.59996,3.4 -1.20004,3 -1.8,2.2 -1.8,0.8 -3.2,1.6 -3.79995,0.4 -0.40005,0.1998 6.40005,5.6003 2.39995,1.9999 2.60005,1.6 3.19995,2.2002 2.2,1.9998 1.8,1.4 2,0.9999 1.2,0.6003 0.6,0 0.4,-0.6003 0,0"
     id="path1098"
     inkscape:connector-curvature="0"
     style="fill:none;stroke:#191919;stroke-width:1;stroke-linejoin:round" />
  <path
     d="m 270.25283,140.84511 0,0 0,-0.2 0,0 -0.4001,-0.3999 -0.1998,0 -0.6,-0.6001 -0.8001,-0.2 -0.8,0 -1.3999,0.2 -1.6001,0.6001 -1.4,1.4 -1.8001,1.5999 -0.7999,2.4 -0.6001,1.6001 0,2.1999 0.6001,1.6 0.6001,2 0.7999,1.6 1.4,1.8 1.2,0.8001 1.2,0.5999 1.2,-0.4001 1.4,-0.7998 0.8001,-1.0001 1.3999,-2.4 0.7999,-2.4 0.6001,-3 0,-4.1999 0,-4.2001 0,-4.8 -0.2,-5.4 0,-5.40001 -0.4001,-5.5999 -0.1998,-5.4001 -0.6001,-4 -0.7999,-2.4 -0.6,-1.4 0,-0.4 -0.2001,0 -0.4,0.4 0,1 0,2.2001 0.4,4.1999 3,10.4 1.4,6.80001 0.8001,6.8 0.7998,6.6 1.8001,5.7999 1.6,5 2.8001,5.6001 1.6,1.2 0.7999,-0.3999 0.6001,-0.2001 0,0"
     id="path496"
     inkscape:connector-curvature="0"
     style="fill:none;stroke:#191919;stroke-width:1;stroke-linejoin:round" />
  <path
     d="m 55.831367,203.44339 0,0 -0.6,-0.4 0,-0.2 -0.8,-0.2 -1.8,-0.6 -1.99996,-0.8 -2.60004,-0.4 -2.8,0.4 -2.6,0.6 -3.79995,1.7998 -1.20005,1.4004 -0.6,1.3998 0,1.4 0.6,0.7998 1.20005,1.4004 1.79999,1.7998 5.59996,3.2002 3.2,1.7998 3.6,2.4001 3.2,2.1999 2.8,2.1998 1.8,2.2002 1.4,2 0.4,1.5999 0.4,2.6001 0,0 -1.39996,1.5998 -2.20004,1.4004 -2.4,1.1998 -3.19995,1.4 -4.40005,0.4 -4.2,0.4 -3.59996,-0.6 -3.20004,-0.8 -1.79996,-1.4 -1.40004,-2.0002 0,0"
     id="path24"
     inkscape:connector-curvature="0"
     style="fill:none;stroke:#191919;stroke-width:1;stroke-linejoin:round" />
  <path
     d="m 73.211367,195.24339 0,0.6 -1,1.4 -0.4,2.2 -1,3.2 -0.9999,3.6 -1.2001,4 -0.6,5 -0.8,4.60005 -0.8,4.59995 -0.2,4.4 -0.4,3.2 0,2.4 0,0.4 0,0 0.4,-0.4 1,-1.4 1,-1.4 0.8,-1.8 1,-1.8 0.8,-1.8 1.4,-1.8 1,-1.4 1.2001,-1 0.5999,-0.8 0.8,-0.4 0.6,0 0.4,0 0.4,1.2 0.4,1.4 0.4,2.20004 0.2,1.99996 0.4,2.6001 0.8001,2.3999 0.4,2.6001 0.1999,1.3999 0.8,1.4 0.4,0.4 0,0 0.2,0 0.8,-0.4 0,0"
     id="path232"
     inkscape:connector-curvature="0"
     style="fill:none;stroke:#191919;stroke-width:1;stroke-linejoin:round" />
  <path
     d="m 94.201304,220.24339 0,0 0.4,0 -0.4,0 0,0 0,-0.1999 0,0 -0.19996,-0.4 -0.79999,0 -1.80005,0.5999 -1,0.8 -1.2,1 -0.99995,1.4 -0.40005,1.8 -0.59995,2.2 0,2.6001 0.19995,1.3999 0,1 0.4,0.8 0.40005,0.2 0.79999,0 0.59996,0.4 1,-0.4 0.8,-0.6 1,-1.2 1.2,-1 0.6,-1.4 0.80004,-1 0.39996,-1.8 0,-1.3999 0,-1.2001 0,-1.4 -0.39996,-1 0,-0.8 -0.40004,-0.4 0,0 0,0.4 0,0.4 0.40004,1.4 0,2.6001 0.39996,2.7999 0,3.2 1,2.4 0.80005,2.6 1,1 0.79999,1.2 0.59996,0.2 0.999996,0 0,0"
     id="path316"
     inkscape:connector-curvature="0"
     style="fill:none;stroke:#191919;stroke-width:1;stroke-linejoin:round" />
  <path
     d="m 98.591312,222.84344 0,0 0,0.19995 0,0 0,0 0,0.4 0.4,0.40005 0.6,1.39995 0.4,1.4 0.800098,2.20005 0.5999,2.39995 0.8,2.2 0.6,2.20004 0.4,1.39996 0.4,1 0.4,0.4 0.2,0 0.4,0 0.8001,-1 0.5999,-1.4 0.8,-1.39996 0.4,-2.60004 1,-2.2 1,-1.8 0.4,-1.4 0.4,-0.6 0,0 0,0 0.4001,0 0,0.2 0,0.4 0.9999,0.8 0.8,1.8 0.6,1.40004 1.2,1.39996 1,1.4 0.8001,0.40005 0.9999,0.99995 1,0 0.4,0 1,0 0.8,-0.6 0.4001,-0.8 0.9999,-1 0.4,-1.2 0.4,-1.4 0.6,-1.8 0.4,-1.4 0.4,-1.8 0,0"
     id="path128"
     inkscape:connector-curvature="0"
     style="fill:none;stroke:#191919;stroke-width:1;stroke-linejoin:round" />
  <path
     d="m 126.49131,221.64329 0,0.6 0,0.8001 0,1.3999 -0.4,1.8 0,2.4 0.80005,1.8 0.59995,1.4 0,1.2001 0,0 0,0.4 0,0 0,0 0,0 0.40005,-0.4 0.99995,-0.4001 0,-0.8 1.4,-3.7999 0.8,-2.6001 0.4,-1.9999 1,-1.6001 0.8,-1.4 0.6,-0.6 0.4,0 0.40004,0.6 0.99996,1.4 0.4,1.8 0.4,2.2 0.6,2.8 0.80005,2.6 0.39995,2.8 0.40004,2.2 0.19996,1.4 0.4,0.8001 0,0"
     id="path29"
     inkscape:connector-curvature="0"
     style="fill:none;stroke:#191919;stroke-width:1;stroke-linejoin:round" />
  <path
     d="m 146.96131,228.84334 1,-0.8 0.80005,-1 0.99995,-1.2 1.8,-1.4 1.20005,-0.99995 1,-0.80005 0.79999,-1 0.19996,-1 0,-0.8 -0.6,-1 -1.8,-0.8 -2.2,0.40005 -2.2,0 -1.4,1.39995 -0.99996,2.2 -1.40004,2.20004 0,2.79996 0.6,3.20004 0.80004,2.79996 0.99996,2.20004 2.20005,1.39996 1.79999,1 2.39996,0.80005 2.2,0 1.8,-0.80005 1.4,-1.8 0,0"
     id="path31"
     inkscape:connector-curvature="0"
     style="fill:none;stroke:#191919;stroke-width:1;stroke-linejoin:round" />
  <path
     d="m 164.00531,229.44339 1,-0.19995 0.8,-1.60005 2.2,-3.8 0.6,-1.79996 0.4,-1 0,-1.20004 -0.4,-1.8 -0.6,-0.99996 -0.8,-1 -0.9999,-0.40004 -1.2001,0.40004 -1,1 -1,2.20001 -0.4,2.79999 -0.4,2.79996 0,3.2 0.4,2.6 0.6,2.8 1.2,2.2 1,1.40004 1.4,0.99996 1.8,0.4 1.4,-0.4 1.8,-0.6 1.8,-1.2 0,0"
     id="path33"
     inkscape:connector-curvature="0"
     style="fill:none;stroke:#191919;stroke-width:1;stroke-linejoin:round" />
  <path
     d="m 210.52159,187.04339 0.4,-0.4 0,0 0,0.4 0,0.40005 0,0.59995 0,1.8 0,3.2 -0.4,4.40005 -1,5.19995 -1,13 -2.2,12.4 -0.8,4.6 -0.1999,3.2 -0.4,2.2 0.4,0.4 0,0 0,-0.4 0.1999,-1 0.4,-2.2 0,0 m 17.8,-39.59996 0,0 0.4,-0.40004 0,0 0,0 0,0 -0.4,0.40004 -0.2,0.39996 -0.8,1.4 -1,2.20004 -1.7999,2.79996 -1.8001,3.20004 -2.2,3.59996 -2.2,3.8 -2.8,4 -1.8,3.2 -1.4,3.2 -0.8,2.20004 -0.2,0.59996 0.2,0 0.4,0 0,-0.2 0.8,0 1,0 0.8001,0 1.7999,0.2 2,0.8 2.2,0.4 2.2,1 2.2001,1.2001 1.3999,0.5999 2.4,0.8 1.4,1 1.4,0.4 1.2,0.6 1,0.4 0,0"
     id="path238"
     inkscape:connector-curvature="0"
     style="fill:none;stroke:#191919;stroke-width:1;stroke-linejoin:round" />
  <path
     d="m 246.0916,203.44339 0,0 -0.6,-0.4 0,-0.2 -0.8,-0.2 -1.8,-0.6 -1.99996,-0.8 -2.60004,-0.4 -2.8,0.4 -2.6,0.6 -3.79995,1.7998 -1.20005,1.4004 -0.6,1.3998 0,1.4 0.6,0.7998 1.20005,1.4004 1.79999,1.7998 5.59996,3.2002 3.2,1.7998 3.6,2.4001 3.2,2.1999 2.8,2.1998 1.8,2.2002 1.4,2 0.4,1.5999 0.4,2.6001 0,0 -1.39996,1.5998 -2.20004,1.4004 -2.4,1.1998 -3.19995,1.4 -4.40005,0.4 -4.2,0.4 -3.59996,-0.6 -3.20004,-0.8 -1.79996,-1.4 -1.40004,-2.0002 0,0"
     id="path36"
     inkscape:connector-curvature="0"
     style="fill:none;stroke:#191919;stroke-width:1;stroke-linejoin:round" />
  <path
     inkscape:connector-curvature="0"
     style="fill:none;stroke:#191919;stroke-width:0.89762908;stroke-linejoin:round"
     d="m 139.19593,59.859199 -0.53857,5.385775 -0.35907,4.667672 -0.53856,4.30862 -0.53858,3.949568 -0.35905,2.513358 -0.17951,1.0772 0,0.17948 0,-0.17948 0,0 0,-1.0772 0,-5.206246 0.17951,-5.385775 0.35905,-6.103878 0.89765,-7.360559 0.53856,-7.54012 0.71812,-6.821945 0.53856,-5.744827 0.89764,-5.38581 0.53856,-3.949531 0.89763,-3.769997 0.17953,-2.513405 0.17954,-1.974738 0.17949,-0.179535 0,-0.179562 0,0.179562 0,0.359016 0,1.256679 0.71812,2.513362 0.53858,3.949566 0.53856,5.565344 0.71814,7.180988 0.35905,7.540085 0.89761,7.719655 0.71809,7.539995 1.2567,7.360604 0.53856,6.283368 1.25669,5.565374 0.71811,3.94953 0.35905,2.33387 0.17954,0.8976 0.17949,0 -0.17949,0 0,0 m -7.36059,-26.03125 4.30864,-0.538577 1.79525,-0.359052 1.61574,-0.179526 0,0"
     id="path34" />
  <path
     inkscape:connector-curvature="0"
     style="fill:none;stroke:#191919;stroke-width:0.89762908;stroke-linejoin:round"
     d="m 158.04614,42.086143 0.17953,0 0.35905,0.359051 0,0.538578 0.7181,1.077155 0.53858,1.795437 0.35905,2.513182 0.71811,3.770042 0.89763,4.667672 0.7181,5.565301 1.25668,6.283403 0.89763,6.103879 1.25668,5.026719 0.35905,3.77005 0.7181,1.43602 0,0.35924 0,0 0,-0.35924 0,-0.17934 0.53858,-2.51336 0,-1.43621 0.35905,-1.79526 0.89763,-1.436206 1.97479,-1.256681 1.61573,-1.077155 1.61578,-0.897628 1.25663,-0.359052 1.25668,0.359052 0.71811,1.436206 0,1.436386 -0.35906,1.795078 -0.7181,1.97487 -1.25668,1.9747 -1.25668,2.33384 -1.61573,1.4362 -1.61573,1.07716 -1.61574,0.35905 -1.61573,0.53858 -1.25668,0 0,0"
     id="path1102" />
  <path
     inkscape:connector-curvature="0"
     style="fill:none;stroke:#191919;stroke-width:0.89762908;stroke-linejoin:round"
     d="m 181.86924,87.147122 0.17954,0 0,0.35906 0.17951,0 0,0.17952 0,0.7181 -0.17951,0.35906 -0.53859,-1.25668 -0.89765,-1.61565 -0.53856,-2.33392 -0.7181,-1.61574 -0.17955,-1.61573 0.17955,-0.53858 0.17952,-0.35905 0.53858,0 0.35905,0 0.53856,0 0.89765,0 0.35905,-0.35905 0.89763,0 0.7181,0.35905 1.25666,0.35905 1.43625,0.53858 0,0"
     id="path376" />
  <path
     inkscape:connector-curvature="0"
     style="fill:none;stroke:#191919;stroke-width:0.89762908;stroke-linejoin:round"
     d="m 194.94406,72.426007 0,0 0.35905,0 -0.35905,0 0,0 0,-0.179436 0,0 -0.17949,-0.359051 -0.7181,0 -1.61577,0.538487 -0.89763,0.718103 -1.07716,0.89763 -0.89758,1.25668 -0.3591,1.615733 -0.53853,1.974784 0,2.333925 0.17948,1.25659 0,0.89763 0.35905,0.7181 0.3591,0.17953 0.71809,0 0.53854,0.35905 0.89763,-0.35905 0.71811,-0.53858 0.89762,-1.07715 1.07716,-0.89763 0.53858,-1.25668 0.71814,-0.89763 0.35901,-1.615734 0,-1.256591 0,-1.077245 0,-1.25668 -0.35901,-0.89763 0,-0.718103 -0.35909,-0.359052 0,0 0,0.359052 0,0.359051 0.35909,1.256682 0,2.333925 0.35901,2.513271 0,2.872414 0.89763,2.15431 0.71815,2.33384 0.89763,0.89763 0.71809,1.07715 0.53854,0.17953 0.89763,0 0,0"
     id="path316-3" />
  <path
     inkscape:connector-curvature="0"
     style="fill:none;stroke:#191919;stroke-width:0.89762908;stroke-linejoin:round"
     d="m 205.52711,49.985279 0,0.538577 -0.89763,1.256681 -0.35905,1.974784 -0.89763,2.872413 -0.89754,3.231465 -1.07724,3.590517 -0.53858,4.488146 -0.7181,4.129138 -0.7181,4.129049 -0.17953,3.949573 -0.35905,2.87241 0,2.15431 0,0.35905 0,0 0.35905,-0.35905 0.89763,-1.25668 0.89763,-1.25668 0.7181,-1.61573 0.89763,-1.61574 0.7181,-1.61573 1.25668,-1.615733 0.89763,-1.25668 1.07725,-0.897629 0.53849,-0.718104 0.7181,-0.359052 0.53858,0 0.35905,0 0.35905,1.077156 0.35905,1.25668 0.35905,1.97482 0.17953,1.795222 0.35905,2.33393 0.71819,2.15422 0.35905,2.33392 0.17944,1.25659 0.7181,1.25668 0.35906,0.35906 0,0 0.17952,0 0.7181,-0.35906 0,0"
     id="path232-6" />
  <path
     inkscape:connector-curvature="0"
     style="fill:none;stroke:#191919;stroke-width:0.89762908;stroke-linejoin:round"
     d="m 225.26595,75.657292 -0.17951,-0.358872 -0.35905,0 -0.53858,0.358872 -1.61575,0 -1.61571,0.179526 -0.89763,0.538578 -1.43621,1.256681 0,2.513365 0.5386,1.25668 0.53856,0.7181 0.89763,0.7181 1.07715,0.53858 0.5386,0.17962 0.35901,-0.17962 1.25669,-0.35923 1.25669,-0.71792 0.17951,-0.53858 1.2567,-0.89763 0.17954,-0.7181 0.17951,-0.53858 0,-1.256682 -0.17951,-0.718103 -0.17954,-1.077156 -0.35905,-0.179525 -0.17953,-0.359052 -0.35907,0.538577 0.35907,0.538578 0.35907,1.795258 0.35905,2.154315 1.07713,1.9746 1.25669,1.97496 0.53857,1.79526 1.07716,1.25677 0.7181,0.7182 0.89763,0 0.53856,0 0,0"
     id="path1074-7" />
  <path
     inkscape:connector-curvature="0"
     style="fill:none;stroke:#191919;stroke-width:0.89762908;stroke-linejoin:round"
     d="m 230.67865,75.477955 0,0.538614 0.17953,0.718148 0.35905,0.538533 0.17953,0.897628 0,1.436204 0.35905,1.43625 0,1.79522 0,2.15431 0,1.79526 0,1.25668 0,0.53857 0,0.17949 0,0 0.17951,0 0,0 0,-0.17949 0.17953,-0.35905 0,-0.89763 0.17952,-1.07715 0,-1.07716 0.53859,-1.61573 0.35905,-1.4362 0.17954,-1.43621 0.53856,-1.07716 0.53858,-1.077152 0.35908,-0.538578 0.53855,-0.718102 0.71812,-0.359052 0.17951,0 0.53856,0.179526 0.5386,0.538577 0.53859,0.538577 0.17951,0.89763 0.35905,1.077154 0.71811,3.05194 0.17954,1.79526 0.35903,1.97478 0.53858,1.43621 0,0 0,-0.17953 0.17952,-0.53857 0,-0.53858 0.17955,-0.89763 0.17951,-0.71807 0,-1.43624 0.1795,-1.07716 0.17955,-0.89762 0.17951,-1.07712 0.53859,-1.25677 0.5386,-0.718054 0.53856,-1.077156 0.89764,-0.897628 0.53857,-0.359007 0.89762,-0.359097 0.35906,0 0.7181,0.179562 0.5386,0.359016 0.35901,1.077154 1.07719,1.077156 0.35903,1.436204 0.71811,1.25668 0.35904,2.15431 0.35906,1.43621 0.17951,1.25668 0.35906,0.53858 0.17953,0.35905 0.17955,0.17953 0,0.35905 0,0 0,0"
     id="path42-5" />
  <path
     inkscape:connector-curvature="0"
     d="m 289.97609,54.114283 0,0 0,0 0,0 0,0 0,0 0,0.179616 0,0.358961 0.35902,0.897719 0.53857,3.231465 0.7181,4.308531 1.61574,3.949567 1.25671,4.667672 0.8976,4.847198 1.0772,3.94957 0,3.23146 0,4.48815 -0.3591,0 -0.35905,0.17952 -0.89763,0.35915 -1.25665,-0.53867 -1.97482,-0.71801 -1.97478,-1.25678 -1.97478,-1.25668 -2.51336,-1.79534 -1.97479,-1.61565 -2.15427,-2.15431 -1.61572,-1.974782 0,0 m -10.59207,-25.313141 0.35905,-0.359142 0.89763,0 1.61573,-0.179346 1.97479,-0.538577 2.51336,0 3.23151,0 3.23142,-0.179616 2.87245,-0.538578 2.87241,-0.718102 2.87238,-0.359052 2.87241,-0.179526 2.51336,0.179526 2.69289,0.538667 2.15431,0.538487 0,0"
     id="path994"
     style="fill:none;stroke:#191919;stroke-width:0.89762908;stroke-linejoin:round" />
  <path
     inkscape:connector-curvature="0"
     style="fill:none;stroke:#191919;stroke-width:0.89762908;stroke-linejoin:round"
     d="m 301.49807,84.633762 0.359,0.17944 0.53858,1.07715 0.35905,0.53858 0.35909,0.7181 0.35902,0.89763 0,0.35905 0,0.35915 0,-0.35915 0,0 0,-0.35905 -0.35902,-0.35905 -0.71814,-1.25668 -0.53858,-1.61573 -0.359,-1.25668 0,-1.97479 -0.3591,-1.25668 0,-0.89758 0.3591,-0.718151 0,-0.17948 0.359,0 0.53858,0 3.94957,1.256641 2.51336,1.25671 2.33387,0.53854 2.87243,0.35905 3.41094,-0.89759 0,0"
     id="path198" />
  <path
     inkscape:connector-curvature="0"
     style="fill:none;stroke:#191919;stroke-width:0.99999994;stroke-linejoin:round"
     d="m 67.354318,124.67267 0,0 -0.399999,0.4 -1.000001,0.2 -1.199999,0.8 -1.4,1.2 -1.8,1.8 -2,2.7998 -1.3999,4.2002 -0.8001,4.4 -0.4,4.8 0,4.8 1.4,4.6 1.4,3.6002 1.8,1.9998 1.8,0.8 1.8,0 1.8,-0.6 1.399999,-1 0.400001,-2.8 0.8,-1.4 0,-1.9998 0,-2.0002 -0.8,-1 -0.400001,-0.8 -1,-0.6 -1.399999,0 -1.4,0 -1.7999,0.2 -1.8001,0.6 -1.4,0.8 -1.2,1.2 0,0"
     id="path1302-3" />
  <path
     inkscape:connector-curvature="0"
     style="fill:none;stroke:#191919;stroke-width:0.99999994;stroke-linejoin:round"
     d="m 81.214318,124.67267 0,0 -0.399999,0.4 -1,0.2 -1.200001,0.8 -1.4,1.2 -1.799999,1.8 -2,2.7998 -1.399901,4.2002 -0.8001,4.4 -0.399999,4.8 0,4.8 1.399999,4.6 1.4,3.6002 1.800001,1.9998 1.799999,0.8 1.8,0 1.800001,-0.6 1.399999,-1 0.4,-2.8 0.8,-1.4 0,-1.9998 0,-2.0002 -0.8,-1 -0.4,-0.8 -1,-0.6 -1.399999,0 -1.4,0 -1.7999,0.2 -1.8001,0.6 -1.4,0.8 -1.200001,1.2 0,0"
     id="path39-5" />
  <path
     inkscape:connector-curvature="0"
     style="fill:none;stroke:#191919;stroke-width:0.99999994;stroke-linejoin:round"
     d="m 85.674323,138.07277 -0.19995,0.6 -0.40005,0 0,0.2 -0.4,0 0,0 0,0 0,0 0,0 0.4,-0.2 0,-0.2 0.40005,-0.6 0.599948,-1.1998 0.8,-1.6002 0.599998,-1.4 1.2,-1.4 1.800046,-1.2001 1.39995,-0.1998 1.799996,-0.6003 1.800048,0.4002 1.399948,0.2001 1,0.8001 0.799998,1.3998 0.6,2 0,2.2 -0.99996,3.4 -0.800038,3.6 -1.399998,3.8 -1.799998,3.4 -1.399998,3 -1.799998,2.8 -0.999998,2 -0.8,0.9998 -0.599998,0.8001 -0.39996,0 0,0 0,-0.1998 0.39996,0 0.599998,-0.2001 1.200048,-0.6 1,-0.8 1.799988,-0.6 2.200006,-0.6 2.799986,-0.2 3.200005,-0.8 2.79995,-1.0001 3.19998,-0.9999 2.6,-0.6 2.20005,-0.8 1.99995,-0.6 1.20004,-0.8 0,0"
     id="path1278-6" />
  <path
     inkscape:connector-curvature="0"
     d="m 118.55432,143.56335 c 0.054,-0.209 0.29477,-0.25602 0.41102,-0.41102 0.0593,-0.079 0.0946,-0.17675 0.16441,-0.24661 0.0969,-0.0969 0.2411,-0.14136 0.32881,-0.24661 0.0555,-0.0666 0.05,-0.16616 0.0822,-0.24661 0.0432,-0.10811 0.18228,-0.34669 0.24661,-0.41102 0.0433,-0.0433 0.10961,-0.0548 0.16441,-0.0822 0.0822,-0.0548 0.17675,-0.0945 0.24661,-0.16441 0.0548,-0.0822 0.1096,-0.16441 0.1644,-0.24661 0,-0.0274 -0.0122,-0.0577 0,-0.0822 0.0555,-0.11091 0.24226,-0.14277 0.32882,-0.16441 0.0266,-0.007 0.0628,0.0194 0.0822,0 0.0194,-0.0194 -0.0122,-0.0577 0,-0.0822 0.0173,-0.0347 0.0649,-0.0475 0.0822,-0.0822 0.0123,-0.0245 -0.0194,-0.0628 0,-0.0822 0.0194,-0.0194 0.0628,0.0194 0.0822,0 0.0194,-0.0194 -0.0194,-0.0628 0,-0.0822 0.0194,-0.0194 0.0628,0.0194 0.0822,0 0.0194,-0.0194 -0.0194,-0.0628 0,-0.0822 0.0194,-0.0194 0.0577,0.0122 0.0822,0 0.34211,-0.17106 -0.0879,0.006 0.0822,-0.16441 0.0194,-0.0194 0.0628,0.0194 0.0822,0 0.0194,-0.0194 -0.0194,-0.0628 0,-0.0822 0.0194,-0.0194 0.0628,0.0194 0.0822,0 0.0194,-0.0194 -0.0194,-0.0628 0,-0.0822 0.0194,-0.0194 0.0628,0.0194 0.0822,0 0.0194,-0.0194 -0.0194,-0.0628 0,-0.0822 0.0194,-0.0194 0.0628,-0.0194 0.0822,0 0.0194,0.0194 0,0.0548 0,0.0822 0,0.054 0.0155,0.20024 0,0.24661 -0.0194,0.0581 -0.0673,0.10497 -0.0822,0.16441 -0.0133,0.0532 0.0173,0.11242 0,0.16441 -0.0122,0.0368 -0.0548,0.0548 -0.0822,0.0822 -0.0274,0.0822 -0.068,0.16114 -0.0822,0.24661 -0.0135,0.0811 0,0.16441 0,0.24661 0,0.0822 0,0.16441 0,0.24661 0,0.10961 0.0347,0.22483 0,0.32881 -0.28069,0.84205 -0.0784,-0.59824 -0.24661,0.41102 -0.0135,0.0811 0,0.16441 0,0.24661 0,0.21921 0,0.43842 0,0.65763 0,0.35621 0,0.71243 0,1.06864 0,0.13701 0.01,0.27436 0,0.41102 -0.0177,0.2475 -0.0657,0.49225 -0.0822,0.73983 -0.0109,0.16404 0,0.32881 0,0.49322 0,0.52062 0,1.04124 0,1.56186 0,1.34266 0,2.68531 0,4.02797 0,0.95904 0,1.91808 0,2.87712 0,0.38361 0,0.76723 0,1.15085 0,0.0566 0.0159,0.44535 0,0.49322 -0.0194,0.0581 -0.0673,0.10496 -0.0822,0.1644 -0.0133,0.0532 0,0.10961 0,0.16441 0,0.16441 0,0.32881 0,0.49322 0,0.27401 0,0.54802 0,0.82203 0,1.01385 0,2.02769 0,3.04153 m -1.80845,-0.24661 c 0.68502,0 1.37005,0 2.05508,0 0.21921,0 0.43842,0 0.65763,0 0.037,0 0.22159,0.0125 0.24661,0 0.0347,-0.0173 0.0822,-0.0434 0.0822,-0.0822 0,-0.0274 -0.0548,0 -0.0822,0 -0.0274,0 -0.0548,0 -0.0822,0"
     id="path42-2"
     style="fill:none;fill-rule:evenodd;stroke:#000000;stroke-width:0.99999994px;stroke-linecap:butt;stroke-linejoin:miter;stroke-opacity:1" />
  <path
     inkscape:connector-curvature="0"
     d="m 289.16215,224.2828 0,0 -0.44586,0 0,0 -0.89207,0 -1.7839,0 -2.89873,0 -2.67597,0.89206 -2.89873,1.56069 -2.45298,0.66897 -0.89184,2.45297 -0.66907,1.56081 0,2.22988 1.56091,2.45287 1.56092,1.7839 2.45286,1.33793 2.45298,0.89195 3.12172,0 2.89884,-0.89195 1.78402,-1.33793 2.22977,-1.56069 1.56091,-1.56136 0.89195,-1.78368 0.2231,-1.33793 -0.66908,-1.7838 -0.44597,-1.78401 -1.56091,-1.56092 -1.56092,-1.3377 -1.56091,-0.89206 -1.33782,0 0,0"
     id="path1328"
     style="fill:none;stroke:#191919;stroke-width:1.11493957;stroke-linejoin:round" />
  <path
     inkscape:connector-curvature="0"
     style="fill:none;stroke:#191919;stroke-width:0.78979295;stroke-linejoin:round"
     d="m 303.37597,221.94967 -0.15792,0.47387 -0.31596,0 0,0.15796 -0.31592,0 0,0 0,0 0,0 0,0 0.31592,-0.15796 0,-0.15795 0.31596,-0.47388 0.47383,-0.94759 0.63184,-1.26383 0.47387,-1.10571 0.94775,-1.10571 1.42167,-0.94783 1.10567,-0.1578 1.42163,-0.47411 1.42167,0.31607 1.10567,0.15804 0.78979,0.63191 0.63183,1.10555 0.47388,1.57959 0,1.73754 -0.78976,2.6853 -0.63187,2.84326 -1.10571,3.00121 -1.42163,2.6853 -1.10571,2.36937 -1.42162,2.21143 -0.7898,1.57958 -0.63183,0.78964 -0.47388,0.63191 -0.31588,0 0,0 0,-0.1578 0.31588,0 0.47388,-0.15804 0.94779,-0.47387 0.78979,-0.63184 1.42162,-0.47387 1.73756,-0.47388 2.21141,-0.15796 2.52734,-0.63183 2.21138,-0.78988 2.52734,-0.78971 2.05346,-0.47388 1.73758,-0.63183 1.57955,-0.47388 0.94779,-0.63183 0,0"
     id="path56" />
  <path
     inkscape:connector-curvature="0"
     style="fill:none;stroke:#191919;stroke-width:0.78979295;stroke-linejoin:round"
     d="m 338.66392,218.47442 -0.15792,-0.1578 -0.15796,0.1578 -0.31591,0 -0.63184,0 -0.63183,0 -1.26367,0 -1.73754,0 -1.57959,0.47411 -1.10571,0.31576 -1.42163,1.26367 -0.31592,0.63184 0,0.94775 0.7898,0.78995 0.47387,0.94759 1.42167,0.7898 1.57955,0.94775 4.10692,1.8955 2.05349,1.10571 2.52731,2.21158 0.63183,1.10555 0.31592,1.26367 0,1.10563 -0.63187,1.42171 -1.26363,1.26367 -2.84326,2.21142 -1.73754,0.63183 -3.47509,0.31592 -1.4216,-0.31592 -0.94781,-0.78979 -0.31589,-0.94767 0,-1.73763 0,-1.26367 0.47388,-1.57958 0.94779,-1.57959 1.26363,-1.73746 3.15917,-4.58088 1.8955,-2.05346 1.57963,-1.73771 1.42159,-1.26351 1.26363,-1.10571 0,0"
     id="path1342" />
  <path
     inkscape:connector-curvature="0"
     style="fill:none;stroke:#191919;stroke-width:0.78979295;stroke-linejoin:round"
     d="m 344.6348,217.52659 0.31591,0.31592 0,-0.31592 0.15796,0.31592 0,-0.31592 0.31592,0 0.63191,0 0.78972,-0.15796 1.10571,-0.47387 1.42162,0 1.42163,-0.47372 1.42163,0 1.73762,0 1.42155,0 1.10571,0 1.10571,0.47372 0.31599,0.15796 0.31592,0.47387 0.15788,0.31592 0,0.78979 0,2.05346 -0.4738,2.05346 -0.63191,2.6853 -1.10571,3.31713 -0.78979,3.31713 -0.63183,2.84326 -0.31592,2.36938 -0.15788,1.73738 -0.31592,1.10603 0.31592,0 0.15788,0 0,-0.15812 0.31592,-0.63183 0,0"
     id="path1304" />
  <path
     inkscape:connector-curvature="0"
     d="m 361.17306,208.52311 0,-0.15796 0,0 0,0 -0.31591,0 -0.15796,0.15796 -0.31589,0.47387 -0.31595,0.63184 0,0.94775 -0.31592,1.26367 0,1.73754 1.10572,5.68667 1.2637,1.57943 1.42162,1.10571 1.89547,1.26383 1.42167,0.31576 1.10567,0 1.10571,-0.31576 1.10571,-0.47412 1.42163,-0.78971 0.63187,-0.47388 1.10567,-0.63183 1.10571,-0.47388 1.42162,-0.63183 0,0 m 0,-7.89793 -0.31591,0.47388 0,1.26366 -0.15793,1.26359 0,2.05354 0,2.6853 0.15793,3.00129 0,6.9501 0,3.63305 0.31591,3.00121 0.31595,2.2115 0,1.57951 0,0.15796 0,-0.63183 0,0"
     id="path1290"
     style="fill:none;stroke:#191919;stroke-width:0.78979295;stroke-linejoin:round" />
</svg>
