<?xml version="1.0" encoding="UTF-8" standalone="no"?>
<!-- Created with Inkscape (http://www.inkscape.org/) -->

<svg
   xmlns:dc="http://purl.org/dc/elements/1.1/"
   xmlns:cc="http://creativecommons.org/ns#"
   xmlns:rdf="http://www.w3.org/1999/02/22-rdf-syntax-ns#"
   xmlns:svg="http://www.w3.org/2000/svg"
   xmlns="http://www.w3.org/2000/svg"
   xmlns:sodipodi="http://sodipodi.sourceforge.net/DTD/sodipodi-0.dtd"
   xmlns:inkscape="http://www.inkscape.org/namespaces/inkscape"
   width="97.27533mm"
   height="45.809563mm"
   viewBox="0 0 344.67637 162.31735"
   id="svg9899"
   version="1.1"
   inkscape:version="0.91 r13725"
   sodipodi:docname="example-page.svg">
  <defs
     id="defs9901" />
  <sodipodi:namedview
     id="base"
     pagecolor="#ffffff"
     bordercolor="#666666"
     borderopacity="1.0"
     inkscape:pageopacity="0.0"
     inkscape:pageshadow="2"
     inkscape:zoom="2.8"
     inkscape:cx="-39.633032"
     inkscape:cy="216.35247"
     inkscape:document-units="px"
     inkscape:current-layer="layer1"
     showgrid="false"
     fit-margin-left="5"
     fit-margin-top="5"
     fit-margin-right="2.5"
     fit-margin-bottom="2.5" />
  <metadata
     id="metadata9904">
    <rdf:RDF>
      <cc:Work
         rdf:about="">
        <dc:format>image/svg+xml</dc:format>
        <dc:type
           rdf:resource="http://purl.org/dc/dcmitype/StillImage" />
        <dc:title></dc:title>
      </cc:Work>
    </rdf:RDF>
  </metadata>
  <g
     inkscape:label="Layer 1"
     inkscape:groupmode="layer"
     id="layer1">
    <path
       inkscape:connector-curvature="0"
       style="fill:none;stroke:#000000;stroke-width:1"
       d="m 19.606221,68.457074 0,0 0,0.064 0,0.064 0,0.064 0,0.385 0,0.385 -0.064,0.7058 -0.064,0.6416 0,0.6416 -0.2567,1.7966 -0.1925,0.8341 -0.1283,0.6416 -0.1925,0.8341 -0.1925,0.8983 -0.1283,1.4758 -0.064,0.7057 -0.1283,0.7058 -0.064,0.5775 -0.064,0.7058 -0.3208,1.4116 0,0.513296 -0.1284,0.3208 0,0.1925 0,0.1283 0,0 -0.064,-0.064 0,-0.064 0,-0.1283 0.064,-0.705796"
       id="path4" />
    <path
       inkscape:connector-curvature="0"
       style="fill:none;stroke:#000000;stroke-width:1"
       d="m 17.745521,70.189474 0.064,0 0,0.064 0.064,0 0.064,0 0.064,-0.064 0.1283,-0.064 0.1283,-0.1283 0.1925,-0.1925 0.4492,-0.3208 0.8341,-0.6417 0.1925,-0.064 0.3208,-0.1284 0.5774,-0.2566 0.6417,-0.2567 0.8341,-0.1924 0.4491,0 0.385,0.064 0.385,0.1283 0.3208,0.1284 1.0908,0.4491 0.5133,0.2567 0.3208,0.1925 0.4491,0.2566 0.4492,0.4491 0.5133,0.5775 0.1924,0.3208 0.1925,0.2567 0.192499,0.3208 0.1283,0.4491 0.1925,0.8342 0,0.4491 0,0.4491 -0.064,0.5133 -0.1284,0.5775 -0.064,1.0907 -0.128299,0.6417 0,0.385 -0.1284,0.4491 -0.1925,0.5133 -0.3849,1.2191 -0.385,0.4491 -0.385,0.77 -0.4491,0.7058 -0.5133,0.5774 -0.8983,0.898296 -0.6416,0.5133 -0.77,0.4491 -0.5133,0.2567 -0.4491,0.1283 -1.2833,0.4491 -0.5133,0.064 -0.5133,-0.064 -0.7058,0 -0.7058,-0.3208 -0.9624,-0.8982 -0.5774,-0.4492 -0.5775,-0.384896 -0.3208,-0.1925 -0.064,-0.1284 0.3208,-0.3849"
       id="path6" />
    <path
       inkscape:connector-curvature="0"
       style="fill:none;stroke:#000000;stroke-width:1"
       d="m 28.46062,79.236374 0.064,0.1925 0.1283,0.1924 0.2567,0.1925 0.3849,0.2567 0.77,0.1283 0.6416,0 0.77,-0.1925 1.6682,-0.7057 0.8983,-0.4492 0.9624,-0.5133 0.5133,-0.5133 0.1925,-0.2567 0,-0.2566 0,-0.1925 -0.1283,-1.0266 -0.1284,-0.2566 -0.1924,-0.1925 -0.3209,-0.1284 -0.5133,-0.064 -1.4757,0.3208 -0.8983,0.385 -0.9624,0.7058 -0.7058,0.5133 -0.6416,0.5774 -1.0266,1.3475 -0.2567,0.5774 -0.064,0.4492 0,0.4491 0.064,0.5775 0.5775,0.962396 0.4491,0.385 0.5775,0.1925 0.6416,0.1283 0.8341,0 1.9891,-0.4491 0.7058,-0.1284 0.8982,-0.256596 0.6417,-0.1283 0.5774,-0.064 0.7058,-0.2567 0.385,-0.1925 0.385,-0.3208 0.1924,-0.3208 0.1284,-0.4492"
       id="path8" />
    <path
       inkscape:connector-curvature="0"
       style="fill:none;stroke:#000000;stroke-width:1"
       d="m 46.16952,75.065774 -0.2566,0 -0.2567,0.064 -0.3208,0.064 -0.5775,0.2567 -1.8607,1.2191 -0.8341,0.6416 -0.8983,0.7058 -0.5774,0.7058 -0.3209,0.6416 -0.1924,1.1549 0.1283,0.385 0.1283,0.3208 0.385,0.2567 0.5774,0.1283 3.3365,-0.8341 1.1549,-0.8983 0.9625,-0.7699 0.5774,-0.77 0.5133,-0.7058 0.1284,-1.2191 -0.1925,-0.1283 -0.1925,0 -0.1283,0.064 -0.064,0.064 -0.1283,0.4492 0,0.4491 0,0.5775 0.1283,0.4491 0,0.6416 0.385,1.0266 0.1925,0.5133 0.1283,0.4492 0.1925,0.385 0.1283,0.3849 0.2567,0.641696 0.1283,0.1283 0.1283,0 0.064,-0.1925"
       id="path10" />
    <path
       inkscape:connector-curvature="0"
       style="fill:none;stroke:#000000;stroke-width:1"
       d="m 54.83152,75.771574 0.064,0.1283 0.1283,0.3208 0.1284,0.385 0.1283,0.7058 0.1925,1.4116 -0.064,0.9624 -0.1283,0.9624 -0.064,0.77 -0.1283,0.5133 -0.2566,0.641596 -0.1284,0.1925 -0.064,0 0,0 -0.064,0 0,-0.064 0,-0.064 0,-0.064 0,-0.320796 0,-0.5774 0.4492,-1.9249 0.1925,-1.2191 0.1924,-1.155 0.064,-0.7699 0.1283,-0.6416 0.4492,-0.9625 0.1283,-0.1924 0.1925,-0.064 0.2566,-0.064 0.385,0 1.4116,0.4491 0.8983,0.3209 0.9624,0.3208 0.7058,0.3849 0.6416,0.3209 0.4492,0.1283 0.2566,0 0.1925,-0.064 0.1283,-0.1283 0.064,-0.064 -0.1925,-0.1283 -0.385,-0.2566"
       id="path12" />
    <path
       inkscape:connector-curvature="0"
       style="fill:none;stroke:#000000;stroke-width:1"
       d="m 17.745521,111.70268 0.064,-0.064 0,0.1925 0.064,0.3208 0,0.3849 0.064,0.7058 0,0.5134 0,0.5774 -0.064,0.7058 0,0.6416 -0.1925,1.6682 -0.1283,0.8342 -0.2567,0.9624 0,0.6416 -0.1925,0.7058 -0.3849,1.6041 -0.1925,0.6416 -0.1284,0.385 0.1284,0.7699 0,0.1284 -0.064,-0.1284 0,0 0,-0.064 0,0 0.1283,0.1284 0,-0.1926 0.064,-0.5774 0.2567,-1.0908"
       id="path14" />
    <path
       inkscape:connector-curvature="0"
       style="fill:none;stroke:#000000;stroke-width:1"
       d="m 11.521721,112.60098 -0.2567,0 0,0 0.064,0.064 0.064,0.064 0.2567,0.1283 0.9624,0.385 0.77,0.1283 0.7058,-0.1283 1.1549,-0.064 2.9515,-0.7058 1.2832,-0.385 1.4116,-0.1925 1.1549,-0.2567 1.2191,-0.064 1.9249,-0.1283 0.5775,0 0.4491,0.1283 0.1925,0 0.1925,0.064 0.1925,0.2567 -0.3208,0.2567"
       id="path16" />
    <path
       inkscape:connector-curvature="0"
       style="fill:none;stroke:#000000;stroke-width:1"
       d="m 9.2118211,125.62598 0.1283,0.1283 0.1925,0.064 0.2567,0.064 0.2565999,0.064 0.8342,0 0.5133,-0.064 0.6416,-0.064 0.7699,-0.064 1.155,-0.1925 2.5023,-0.385 1.7966,-0.2566 1.604,-0.1284 1.6683,0.1284 2.4381,-0.2567 1.2833,0 0.2566,-0.064 0,-0.064"
       id="path18" />
    <path
       inkscape:connector-curvature="0"
       style="fill:none;stroke:#000000;stroke-width:1"
       d="m 39.56082,112.53678 -0.064,0.1283 0.064,0.1283 0.1283,0.1925 0.064,0.3208 0.1925,1.0908 0,0.8983 -0.064,1.2191 -0.1925,1.3474 -0.1283,1.4757 -0.4492,2.3099 -0.1925,1.1549 -0.1283,0.7058 -0.1283,0.7058 0,0.3208 0,0.1925 0,-0.064 -0.1283,-0.1283 0.064,-0.1283 0,-0.385 0.4491,-1.7324 0.3209,-1.0908 0.4491,-1.0907 0.7058,-0.8342 0.6416,-0.5774 1.0266,-0.5133 0.4492,0 0.4491,0.1283 0.5133,0.2567 0.2566,0.3849 0.385,1.4758 0.1283,0.8982 0,1.0908 -0.064,0.8341 0,0.77 -0.1283,0.8983 -0.064,0.3849 -0.1283,0.1925 -0.1284,0.1925 -0.064,0.1283 0.1925,0"
       id="path20" />
    <path
       inkscape:connector-curvature="0"
       style="fill:none;stroke:#000000;stroke-width:1"
       d="m 49.12102,120.74958 -0.7058,0.1925 -0.5775,0.3849 -0.5133,0.385 -0.385,0.4492 -0.3849,1.604 0,0.8342 0.1283,0.6416 0.2566,0.5133 0.4492,0.385 0.8983,0.1283 0.4491,-0.3208 0.77,-0.7058 0.7057,-0.77 0.5134,-0.7699 0.3208,-1.3474 0,-0.385 -0.3208,-0.385 -0.6417,-0.385 -0.8341,-0.1925 -1.3474,-0.064 -0.3208,0.064 -0.2567,0.2567 -0.1283,0.1283"
       id="path22" />
    <path
       inkscape:connector-curvature="0"
       style="fill:none;stroke:#000000;stroke-width:1"
       d="m 55.72972,119.78718 -0.064,-0.1284 0,0.064 0,0.064 0.064,0.064 0.064,0.6417 0.064,0.6416 0,0.8341 -0.1284,1.0908 -0.1283,1.0266 -0.2566,2.8231 -0.2567,1.2191 -0.2566,0.8983 -0.064,0.77 -0.064,0.3849 -0.1283,0.5133 -0.064,0 -0.064,-0.064 0,-0.064 -0.1283,-0.064 -0.1925,-0.4491"
       id="path24" />
    <path
       inkscape:connector-curvature="0"
       style="fill:none;stroke:#000000;stroke-width:1"
       d="m 53.93322,121.26288 0.064,-0.1925 0.1284,-0.1925 0.064,-0.064 0.1284,-0.064 0.3849,-0.064 0.2567,-0.064 0.8341,-0.1925 0.5133,-0.2566 0.6416,0 1.7966,-0.1925 0.6416,0.1283 0.6416,0.2567 0.5133,0.5133 0.385,0.5133 0.385,1.4116 -0.064,0.6416 -0.2566,0.6416 -0.3208,0.385 -0.77,0.5774 -1.6682,0.7058 -1.0908,0.064 -0.7699,0.1284 -1.0908,0.064 -0.5775,-0.1925 -0.8341,-0.5775 -0.3208,-0.2566 -0.064,-0.1284 0.064,-0.385"
       id="path26" />
    <path
       inkscape:connector-curvature="0"
       style="fill:none;stroke:#000000;stroke-width:1"
       d="m 62.98012,121.77618 0.1283,0.2566 0.1284,0.064 0.3208,0.064 0.7699,0.1926 1.4758,0.1924 0.8983,-0.064 0.9624,-0.1924 0.8983,-0.385 0.8983,-0.4492 0.8341,-0.7057 0.1925,-0.3209 0.1283,-0.3208 -0.1283,-0.4491 -0.1925,-0.4491 -0.9625,-0.1284 -1.0266,0.3209 -1.1549,0.5133 -1.1549,0.7699 -1.0267,0.8341 -1.0907,1.4116 -0.2567,0.7058 0.064,0.3208 0.1925,0.5774 0.2566,0.3209 1.0266,0.7058 0.5775,0.2566 0.9625,0.1925 0.7057,0.064 0.77,-0.064 1.4116,-0.4491 0.7699,-0.5133 0.4492,-0.6416"
       id="path28" />
    <path
       inkscape:connector-curvature="0"
       style="fill:none;stroke:#000000;stroke-width:1"
       d="m 94.997317,114.26918 0.1283,-0.064 0.064,0 0.064,0 0.064,0.064 0.1283,0.2566 0,0.1284 0,0.1283 -0.064,0.385 0,0.7699 -0.1283,2.1174 -0.2567,1.5399 -0.2566,1.4115 -0.1925,1.3475 -0.2566,1.0907 -0.1284,1.54 -0.064,0.5774 -0.064,0.3208 0,0.064 0,0.064 -0.064,-0.064 0,0 -0.064,-0.064 -0.1283,0.064 -0.1283,0"
       id="path30" />
    <path
       inkscape:connector-curvature="0"
       style="fill:none;stroke:#000000;stroke-width:1"
       d="m 88.45272,120.87788 0.2566,0.064 0.641697,0.064 1.1549,0 1.2191,0 3.2723,-0.1925 1.2191,-0.1924 1.4757,-0.2567 1.2833,-0.385 1.026603,-0.3208 1.3474,-0.2566 0.1925,-0.1284 0,-0.1283"
       id="path32" />
    <path
       inkscape:connector-curvature="0"
       style="fill:none;stroke:#000000;stroke-width:1"
       d="m 100.45112,113.49918 0.064,0.2567 0,0.5133 0,0.8341 -0.1925,1.3474 -0.705803,3.144 -0.3208,1.3474 -0.3208,1.5399 -0.1925,1.2191 -0.1925,1.2191 -0.3208,1.0907 -0.064,0.1925 0,0.064 0,-0.064 0,-0.064 0.1284,-0.5133 0.1283,-0.6416 0.385,-0.8341 0.5133,-1.0266 0.769903,-0.9625 1.2833,-1.0907 0.3208,-0.1283 0.1925,0 0.1283,0.1283 0.064,0.1925 0.385,0.6416 0.1925,0.5133 0.1283,0.5775 0.1925,0.6416 0.1283,0.8341 0.064,1.0266 0,0.3208 -0.064,0.2567 0,0.1283 0,0.2567 -0.1283,0.3208"
       id="path34" />
    <path
       inkscape:connector-curvature="0"
       style="fill:none;stroke:#000000;stroke-width:1"
       d="m 107.95812,122.41778 -0.1283,0.4492 -0.064,0.4491 -0.064,0.4491 0,0.385 0,0.8983 -0.064,0.2567 0,0 -0.1283,0"
       id="path36" />
    <path
       inkscape:connector-curvature="0"
       style="fill:none;stroke:#000000;stroke-width:1"
       d="m 108.72812,116.77148 -0.1283,-0.064 0,-0.064 0.064,0.1284 0.1924,0.1925"
       id="path38" />
    <path
       inkscape:connector-curvature="0"
       style="fill:none;stroke:#000000;stroke-width:1"
       d="m 118.86582,118.95298 -0.1925,0 -0.2566,0 -0.1925,0 -0.385,0.064 -1.6682,0.7058 -0.9625,0.385 -0.8341,0.385 -0.5133,0.3849 -0.385,0.385 -0.1283,0.6416 0.1283,0.385 0.385,0.4492 0.5775,0.385 0.8982,0.4491 2.0533,0.5133 0.7057,0.3208 0.4492,0.3208 0.064,0.2567 -0.064,0.1924 -0.8983,0.5775 -0.8341,0.385 -0.8341,0.3208 -0.8983,0.2566 -0.9624,0.1925 -1.6683,0 -0.7699,0.2567 -0.6417,-0.064 -0.5774,-0.1925 -0.3208,-0.1283"
       id="path40" />
    <path
       inkscape:connector-curvature="0"
       style="fill:none;stroke:#000000;stroke-width:1"
       d="m 138.30712,119.72298 0.064,0.1925 0,0.064 0.064,0.385 -0.1284,0.8341 -0.4491,1.7965 -0.3208,1.0908 -0.1284,0.7699 -0.1924,0.7058 -0.064,0.3209 -0.064,0.064 0,-0.064 0,-0.1926 0,-0.3208 0.1283,-0.6416 0.5775,-2.0532 0.6416,-1.3474 0.5133,-1.2191 0.9624,-1.1549 0.77,-0.77 1.3474,-0.8341 0.4491,-0.064 0.3208,0.1283 0.1925,0.2567 0.1925,0.5133 0.1284,1.7965 0,1.0266 -0.1284,1.0908 -0.1283,1.0908 -0.2567,1.0266 -0.3208,1.2832 0,0.2567 0,0.1283 0,-0.064 0.1284,0"
       id="path42" />
    <path
       inkscape:connector-curvature="0"
       style="fill:none;stroke:#000000;stroke-width:1"
       d="m 148.82972,119.72298 -0.6416,-0.064 -0.5133,0.1925 -0.385,0.3208 -0.5774,0.5775 -0.8341,1.6682 -0.1284,0.8341 0.064,0.7058 0.1284,0.7058 0.1283,0.5133 0.4491,0.1924 0.5775,-0.064 0.8341,-0.3849 0.7699,-0.5775 0.6417,-0.5775 0.5133,-0.7699 0.064,-0.385 -0.1284,-0.5133 -0.2566,-0.5133 -0.4491,-0.5775 -0.9625,-0.7699 -0.7058,-0.064 -0.5133,0.064 -0.3208,0.1283 -0.1283,-0.064"
       id="path44" />
    <path
       inkscape:connector-curvature="0"
       style="fill:none;stroke:#000000;stroke-width:1"
       d="m 159.03162,110.93268 -0.064,-0.4491 -0.064,-0.1283 0,0 -0.064,0.064 -0.2567,1.604 -0.2566,1.2833 -0.2567,1.6682 -0.3208,1.7966 -0.1925,1.5398 -0.064,2.5665 -0.064,1.0266 -0.064,0.5775 -0.1283,0.3208 -0.1283,0.3209 -0.5133,0.5132 -0.3209,0.385"
       id="path46" />
    <path
       inkscape:connector-curvature="0"
       style="fill:none;stroke:#000000;stroke-width:1"
       d="m 153.38532,120.74958 0.2566,0.064 0.5133,0 0.77,0.1283 1.0908,0.064 2.1815,0.5133 0.8341,0.1925 1.3474,0.1283 1.0266,0 0.8341,0 1.9891,-0.5774 0.6416,-0.3208 0.2567,-0.1925 0.5774,-0.385 -0.064,-0.3208 -0.5133,-0.6416 -0.4491,-0.1925 -0.4492,-0.064 -0.7058,0 -0.6416,0.2566 -1.2832,0.77 -0.6416,0.5133 -0.5134,0.7058 -0.3208,0.5774 -0.1283,0.3208 0,0.77 0.1283,0.3208 0.385,0.3208 0.5133,0.2567 0.7058,0.2566 2.1174,0.1283 0.9624,-0.064 0.8341,-0.1283 1.4116,-0.4491 0.6416,-0.5133 -0.4491,-0.9625"
       id="path48" />
    <path
       inkscape:connector-curvature="0"
       style="fill:none;stroke:#000000;stroke-width:1"
       d="m 196.05352,112.15178 -0.1284,-0.2566 -0.1283,-0.3208 -0.2566,-0.3209 -0.2567,-0.3208 -0.7058,-0.5133 -0.5774,-0.1925 -0.6417,-0.1283 -0.7057,0 -0.5775,0 -0.77,0.385 -0.1925,0.2566 -0.1924,0.385 -0.2567,0.77 -0.1925,1.0266 -0.3208,2.6306 -0.1283,1.2833 -0.1925,1.2191 -0.1283,1.2832 -0.1925,1.2191 -0.064,1.6682 0,0.7058 -0.064,0.5133 0,0.3208 -0.064,0.1284 0,-0.064 0,-0.064 0,-0.064 0,-0.1284 -0.1284,-0.1924"
       id="path50" />
    <path
       inkscape:connector-curvature="0"
       style="fill:none;stroke:#000000;stroke-width:1"
       d="m 185.40252,119.78718 0.1283,0.064 0.4491,0.064 1.1549,0.064 1.54,0.064 3.2081,0 1.4116,-0.1284 0.9624,-0.2566 0.5133,-0.1283"
       id="path52" />
    <path
       inkscape:connector-curvature="0"
       style="fill:none;stroke:#000000;stroke-width:1"
       d="m 195.02692,120.30048 -0.1925,0.8341 -0.1925,0.8341 -0.2567,0.9624 -0.1925,0.77 -0.1924,1.0266 0,0.1283 0.064,-0.1283 0.2566,-0.5775"
       id="path54" />
    <path
       inkscape:connector-curvature="0"
       style="fill:none;stroke:#000000;stroke-width:1"
       d="m 200.09572,121.26288 -0.064,0.4491 -0.1283,0.4492 -0.1283,0.6416 -0.064,0.6416 -0.3208,1.0266 0,0.1284 -0.064,0.064 0,-0.064 0,0 0.064,-0.1925 0.1283,-0.3208 0.2567,-0.6417 0.1924,-0.8982 0.7058,-1.0266 2.8232,-3.144 0.385,-0.1284 0.1924,0 0.064,0.064 0.064,0.1284 0.1284,0.7699 0.064,0.77 0.1283,0.7058 -0.064,0.9624 -0.064,1.0908 -0.2566,1.6682 -0.1926,0.7699 -0.1283,0.385 -0.064,0.1283 0,-0.064"
       id="path56" />
    <path
       inkscape:connector-curvature="0"
       style="fill:none;stroke:#000000;stroke-width:1"
       d="m 216.58552,109.97028 0,0.1283 -0.064,0.3208 0,0.77 -0.064,1.0907 -0.8983,3.529 -0.5774,1.9249 -0.5775,1.7965 -0.385,1.5399 -0.1925,0.9624 -0.1925,0.77 0,-0.064 0,-0.064 -0.064,0 0,-0.064 -0.064,-0.3208 -0.1924,-0.5133 -0.4492,-0.5775 -0.8341,-0.5774 -1.0908,0.064 -2.3098,0.385 -0.9624,0.3849 -0.7058,0.4492 -0.385,0.3849 -0.064,0.3209 0.1283,0.8982 0.2567,0.3209 0.5775,0.3849 0.7699,0.3208 1.0907,0.1925 2.3099,0 1.5399,-0.3849 0.385,-0.1284 0.1283,-0.1924 0.1925,-0.3209"
       id="path58" />
    <path
       inkscape:connector-curvature="0"
       style="fill:none;stroke:#000000;stroke-width:1"
       d="m 222.61682,117.34898 -0.064,-0.064 -0.2567,0 -0.3849,0 -0.7058,0.1283 -2.1174,1.0266 -0.7058,0.5133 -0.2566,0.385 0,0.3849 0.064,0.3209 0.5775,0.7699 0.5132,0.2567 0.7058,0.3208 0.5133,0.385 0.385,0.3208 0.3208,0.7058 -0.1283,0.1924 -0.2567,0.1925 -0.5132,0.3208 -0.7058,0.4492 -1.6683,0.7058 -0.5775,0.1283 -0.5774,0.1283 -0.6416,-0.064 -0.7058,-0.064 -0.8341,-0.5133 -0.4492,-0.4491"
       id="path60" />
    <path
       inkscape:connector-curvature="0"
       style="fill:none;stroke:#000000;stroke-width:1"
       d="m 255.01902,117.41318 0.1924,0 0.064,0.064 -0.064,0.1283 -0.1283,0.2566 -0.8341,1.5399 -0.7058,1.0908 -0.8341,1.3474 -1.155,1.7324 -1.0907,1.6041 -2.0532,2.9515 -1.0266,1.0907 -1.0266,0.9625 -1.0266,0.7699 -0.7058,0.4492 -0.5775,0.3849 -0.2566,0.1284 -0.1925,0.064 -0.064,-0.064 0.1284,-0.2567"
       id="path62" />
    <path
       inkscape:connector-curvature="0"
       style="fill:none;stroke:#000000;stroke-width:1"
       d="m 245.13792,118.63218 -0.064,-0.1925 0.1283,0.064 0.1925,0.1925 0.2567,0.385 0.7699,2.1174 0.5133,0.8983 0.5133,1.0266 0.5133,0.7699 0.5775,0.6416 1.5399,1.0267 0.4491,0.1924 0.5775,0.064"
       id="path64" />
    <path
       inkscape:connector-curvature="0"
       style="fill:none;stroke:#000000;stroke-width:1"
       d="m 257.84212,120.81378 -1.6682,0.1924 -0.77,0.2567 -0.5133,0.2567 -0.6416,0.4491 -0.7058,1.4757 0.1925,0.7058 0.3849,0.385 0.7059,0.385 1.0266,0.1283 2.4381,-0.7699 1.3474,-0.7058 1.0267,-0.6417 0.3849,-0.4491 0.2567,-0.4492 0.064,-1.2832 -0.4491,-0.5775 -0.5133,-0.5133 -0.5775,-0.3208 -0.7058,-0.064 -0.9624,0.2567"
       id="path66" />
    <path
       inkscape:connector-curvature="0"
       style="fill:none;stroke:#000000;stroke-width:1"
       d="m 265.34912,119.08138 -0.064,0.064 -0.1283,0.1925 -0.2566,0.3849 -0.385,0.6417 -0.8342,1.7323 -0.1283,1.0267 0,0.9624 0.064,0.7699 0.2567,0.4492 0.9624,0.3208 0.8341,-0.1284 0.8341,-0.4491 0.8341,-0.5775 1.2191,-1.4757 1.0908,-1.7965 0.2566,-0.6417 0.064,-0.1924 0,-0.064 0,0.064 -0.064,0.3208 -0.064,0.3208 -0.064,0.5133 -0.1925,0.6416 -0.1283,1.0266 0.064,1.0908 0.1283,0.3849 0.1284,0.385 0.1924,0.385 0.1925,0"
       id="path68" />
    <path
       inkscape:connector-curvature="0"
       style="fill:none;stroke:#000000;stroke-width:1"
       d="m 292.04082,118.95298 0,0 0,0.1284 0,0.1924 -0.064,0.2567 -0.5133,1.3474 -0.5133,1.2191 -0.4492,1.0266 -0.3208,1.2833 -0.1283,1.1549 0.1283,1.0908 0.2567,0.1925 0.3849,0 0.8342,-0.2567 1.1549,-0.5775 2.5665,-2.1173 1.0266,-1.155 0.7699,-0.9624 0.4492,-0.7058 0.1283,-0.2566 -0.1283,0.2566 -0.1925,0.385 -0.2567,0.7058 -0.1283,1.2832 0.2567,0.5133 0.8341,0.6417 0.385,0 0.4491,-0.1284 0.4491,-0.2566 0.2567,-0.1925 0.1925,-0.3208 0.064,-0.1925 0.1283,-0.2566 0.1925,-0.385 0.1283,-0.5775 0.1283,-1.6041 -0.064,-0.7057 -0.1283,-0.4492 -0.1283,-0.2567 -0.1283,-0.064 0,0.064"
       id="path70" />
    <path
       inkscape:connector-curvature="0"
       style="fill:none;stroke:#000000;stroke-width:1"
       d="m 303.59012,121.45538 0.064,0.064 0.2566,0.1924 0.6416,0.385 0.5775,0.2567 1.6041,0.2566 1.0265,-0.064 1.0267,-0.2566 1.0907,-0.4492 0.77,-0.3208 0.385,-0.7699 -0.064,-0.5133 -0.1925,-0.5133 -0.5775,-0.3208 -1.0908,-0.1925 -3.4006,0.7699 -1.7324,0.77 -1.1549,0.4491 -0.8341,0.6416 -0.4492,0.5775 0.1283,0.9625 0.5775,0.5774 0.9625,0.385 1.3474,0.1283 1.4757,-0.064 3.3365,-0.385 1.3474,-0.3208 0.8983,-0.1925 0.5133,-0.1925 0.3208,-0.2566"
       id="path72" />
    <path
       inkscape:connector-curvature="0"
       style="fill:none;stroke:#000000;stroke-width:1"
       d="m 316.42262,114.58998 0.064,0 0.064,0.064 0.064,0.064 0.064,0.3208 -0.064,1.4116 -0.1283,0.9624 -0.1925,1.0266 -0.5133,1.4116 -0.3208,1.0908 -0.385,2.0532 -0.1925,0.7699 0,0.77 -0.064,0.4491 0,0.1283 -0.064,0 0,-0.064 0.064,-0.064 0.064,-0.1283"
       id="path74" />
    <path
       inkscape:connector-curvature="0"
       style="fill:none;stroke:#000000;stroke-width:1"
       d="m 320.72152,113.37088 0.1925,0.064 0.064,0.1283 0.1283,0.1284 0.3208,1.5399 -0.1283,2.8873 -0.2567,1.4757 -0.1925,1.3474 -0.3208,1.4758 -0.064,1.0907 -0.1924,1.2191 -0.064,0.385 0,0.064 0,-0.064 0,-0.385"
       id="path76" />
    <path
       inkscape:connector-curvature="0"
       style="fill:none;stroke:#000000;stroke-width:1"
       d="m 325.91872,124.72768 -0.1283,0.064 -0.1925,0.1283 -0.4492,0.385 -0.3208,0.2567 -0.1925,0.3849 -0.064,0 0.064,0.064 0.064,0 0.1283,-0.064 0.8983,-0.3208 0.4492,-0.2567 0.3849,-0.1924 0.1925,-0.1284 0,0 -0.1283,0.1284 -0.1283,0.064 -0.1283,0.1925 -0.1283,0.1283 -0.064,0.1283 0,-0.064 0.064,0 0,-0.1283 0.1283,-0.1284 0.1283,-0.2566"
       id="path78" />
    <path
       inkscape:connector-curvature="0"
       style="fill:none;stroke:#000000;stroke-width:1"
       d="m 18.387121,132.29888 0,0.064 0,0.064 0.064,0 0,0.064 0.064,0.3208 0,0.3208 0,0.2567 0.064,0.6416 0,0.5133 0,1.4116 -0.064,0.8983 0,1.0907 -0.1925,0.8983 -0.064,0.8341 -0.3209,1.9249 -0.1924,0.77 -0.064,0.5774 -0.064,0.385 0,0.2566 -0.064,0.3208 0,0.1284 -0.064,0.064 0,0.064 0,0 -0.064,-0.1283 -0.064,-0.064 -0.064,-0.1284 -0.1283,-0.3849"
       id="path114" />
    <path
       inkscape:connector-curvature="0"
       style="fill:none;stroke:#000000;stroke-width:1"
       d="m 11.842521,140.70418 0.1283,0 0.1925,0 0.385,0 0.7058,0 1.989,-0.1284 1.1549,-0.1283 1.6041,-0.2566 1.0266,-0.4491 1.2833,-0.3208 2.1173,-0.4492 0.7058,-0.1283 0.5133,0 0.1925,0.064 -0.064,0"
       id="path116" />
    <path
       inkscape:connector-curvature="0"
       style="fill:none;stroke:#000000;stroke-width:1"
       d="m 23.391821,132.74798 0.064,0.3208 0.1284,0.4492 0.1283,0.7058 -0.064,0.8982 -0.1283,2.374 -0.2566,1.4116 -0.2567,1.3474 -0.2566,1.3475 -0.385,1.4757 -0.6416,1.8607 -0.1925,0.6417 -0.064,0.3208 0,0 0,-0.064 0.1283,-0.4492 0.1925,-0.7058 0.4492,-0.7699 0.3849,-0.8983 0.385,-0.6416 1.0266,-0.8983 0.6416,-0.385 0.2567,-0.064 0.1283,0 0.1925,0.1283 0.3208,0.385 0.1925,0.3208 0.1925,0.5775 0.1925,0.5775 0.1283,0.7057 0.1283,1.0266 0.064,0.4492 0.064,0.1924 0.064,0.1926 0.1925,0.064 0.7699,-0.2567 0.641699,-0.385"
       id="path118" />
    <path
       inkscape:connector-curvature="0"
       style="fill:none;stroke:#000000;stroke-width:1"
       d="m 31.92542,141.34578 -1.0908,0.4492 -0.8982,0.5132 -0.5133,0.385 -0.1925,0.5133 -0.4492,1.5399 0.2567,0.5775 0.385,0.3208 0.5133,0.1925 0.9624,-0.385 1.6041,-1.3474 0.2566,-0.77 0.385,-0.3208 0.2566,-0.3849 0.064,-0.064 -0.064,0.1283 0,0.3208 0,0.2567 -0.1283,0.385 0,0.4491 0,0.7699 0.064,0.3208 0.064,0.1284 0.1284,0.1283 0.064,0.1283 0.4492,0.1284 0.3849,-0.1284"
       id="path120" />
    <path
       inkscape:connector-curvature="0"
       style="fill:none;stroke:#000000;stroke-width:1"
       d="m 37.63592,142.43658 -0.064,0.064 -0.064,0.1924 0.064,0.2567 -0.064,0.5775 -0.4492,1.7965 -0.5133,1.1549 -0.385,0.8983 -0.2566,0.7058 -0.1283,0.4491 0,0 0,-0.1283 0.064,-0.2566 0.1925,-0.6417 0.3208,-0.8982 0.9625,-1.9249 0.6416,-1.0266 0.5775,-0.77 0.5133,-0.4491 0.2566,-0.2567 0.2567,0.064 0.1924,0.1925 0.2567,0.3208 0.2566,0.4492 0.2567,0.6416 0.385,1.6682 0.064,0.7058 0,0.5775 0,0.5133 0.064,0.3208 -0.1283,0.6416 -0.1925,0.1283 -0.3208,0.1284"
       id="path122" />
    <path
       inkscape:connector-curvature="0"
       style="fill:none;stroke:#000000;stroke-width:1"
       d="m 46.29782,135.44278 -0.064,0.064 0,0.1925 -0.1284,0.5775 -0.1924,0.7058 -0.5134,2.374 -0.3849,1.2832 -0.2567,1.2833 -0.1283,1.2832 -0.1283,0.9625 0,1.0908 0.064,0.1924 0.064,0.2567 0.064,0.1925 0,0.1925 0.1283,0.2566 0,0.1283 0.064,0 0.064,0 0.064,-0.064 0.2566,-0.3208 0.5133,-0.6416 0.5775,-0.6416 0.5774,-0.7058 0.5133,-0.5133 1.2833,-1.0908 0.5775,-0.5133 0.5774,-0.5133 0.5133,-0.5133 0.5775,-0.5133 0.8983,-0.9624 0.1283,-0.1925 -0.064,0 -0.064,0 -0.3208,0.2566"
       id="path124" />
    <path
       inkscape:connector-curvature="0"
       style="fill:none;stroke:#000000;stroke-width:1"
       d="m 48.09442,142.69318 -0.064,0 0.064,0.064 0.064,0.064 0.1284,0.064 0.2566,0.3208 0.1283,0.4492 0.1284,0.385 0.1925,0.3208 0.1283,0.3849 0.385,0.7058 0.1283,0.2567 0.1283,0.1283 0.064,0 0,0.064 0.064,0.1925 -0.128299,0.1925"
       id="path126" />
    <path
       inkscape:connector-curvature="0"
       style="fill:none;stroke:#000000;stroke-width:1"
       d="m 76.64682,136.21278 0.064,-0.064 0,-0.064 0,-0.064 -0.064,0 -0.1284,-0.064 -0.1283,-0.064 -0.1925,-0.1283 -0.2566,-0.1283 -0.2567,-0.1283 -0.7699,-0.385 -0.5133,-0.064 -0.4492,-0.064 -0.5133,0 -0.3849,0 -1.0266,0.4491 -0.4492,0.385 -0.385,0.5133 -0.3208,0.5774 -0.2566,0.5134 -0.3208,1.219 0.064,0.5133 0,0.77 0.1925,0.6416 0.1925,0.8983 0.3849,1.7966 0.064,0.7699 0.1925,0.77 0.064,0.8341 0.064,0.5774 0,0.7058 -0.064,0.2567 -0.064,0.1925 -0.1283,0.1924 0,0.064 -0.064,-0.064 -0.064,-0.064 -0.1283,-0.1283 -0.2567,-0.5133"
       id="path128" />
    <path
       inkscape:connector-curvature="0"
       style="fill:none;stroke:#000000;stroke-width:1"
       d="m 66.31662,143.91228 0.064,0 0.1283,0 0.385,0 0.77,-0.064 1.6682,-0.1283 1.2832,-0.1925 1.0908,-0.1283 0.7058,0 0.6416,-0.064 0.5775,0.064 0.2566,0.064 0.385,0.064 0.3208,0.064"
       id="path130" />
    <path
       inkscape:connector-curvature="0"
       style="fill:none;stroke:#000000;stroke-width:1"
       d="m 78.44332,142.37238 -0.4491,0.1925 -0.5775,0.2567 -0.7058,0.5132 -0.5774,0.6417 -1.0266,1.8607 -0.064,0.5133 0.1283,0.4491 0.1283,0.3208 0.5133,0.385 1.155,0.1283 0.7699,-0.1924 0.9624,-0.385 0.7058,-0.385 0.5133,-0.385 0.8983,-0.9624 0.2567,-0.5775 0.1283,-0.5774 -0.064,-0.385 -0.1283,-0.5775 -0.7058,-0.7057 -0.5133,-0.1926 -0.385,-0.1924 -0.1925,-0.1284 -0.1283,-0.064 0,0.064 0,0.1284"
       id="path132" />
    <path
       inkscape:connector-curvature="0"
       style="fill:none;stroke:#000000;stroke-width:1"
       d="m 86.33532,142.24408 0,0.1283 0.064,0.8341 0,0.8341 -0.064,0.8341 -0.1925,1.4116 -0.064,0.4492 0,0.3849 -0.1924,0.385 -0.064,0.1283 0,0 0,-0.064 0,-0.1924 0.1283,-0.385 0.1925,-0.77 0.385,-1.4115 0.1283,-0.4492 0.064,-0.3208 0.1925,-0.2566 0.385,-0.1925 2.373997,-1.0266 1.0907,-0.2567 0.8341,-0.1283 0.8983,-0.1283 0.5775,-0.1283 0.2566,0.3849 -0.064,0.3209 -0.2566,0.3849"
       id="path134" />
    <path
       inkscape:connector-curvature="0"
       style="fill:none;stroke:#000000;stroke-width:1"
       d="m 118.67332,141.34578 0,0 0,0.064 0,0 0,0.064 0,0.1925 -0.064,0.1283 -0.064,0.1925 -0.064,0.1925 -0.385,0.7058 -1.1549,1.7965 -0.5775,0.8983 -0.5774,0.8983 -0.77,1.0266 -0.7699,0.8983 -1.6041,1.7324 -0.4491,0.6416 -0.5133,0.5133 -0.1925,0.3208 -0.1925,0.2567 -0.385,0.2566 -0.064,0.064 0,-0.064 0,-0.064 0.064,-0.3208"
       id="path136" />
    <path
       inkscape:connector-curvature="0"
       style="fill:none;stroke:#000000;stroke-width:1"
       d="m 111.93622,142.11578 0,0.064 0,0 0,0.064 0.064,0.064 0.1284,0.1925 0.1283,0.3208 0.1283,0.4491 0.1283,0.7058 0.3208,0.8983 0.6417,1.3474 0.5133,0.5774 0.5133,0.5775 0.5774,0.385 0.385,0.1925 0.7058,0.1925 0.064,0.064 0,0 -0.1283,0.064 -0.5775,-0.064"
       id="path138" />
    <path
       inkscape:connector-curvature="0"
       style="fill:none;stroke:#000000;stroke-width:1"
       d="m 122.65142,142.62908 -0.4491,0.1925 -0.77,0.1924 -0.6416,0.4492 -0.5133,0.6416 -0.77,1.0266 -0.2566,0.5133 0.064,0.5133 0.2566,0.385 0.4492,0.2566 1.7965,-0.1283 1.2191,-0.4491 1.3474,-0.77 1.0908,-0.7058 0.5774,-0.5774 0.1925,-0.9625 -0.064,-0.2566 -0.2566,-0.385 -0.4492,-0.3208 -0.385,-0.1925 -0.5133,-0.1283 -0.2566,0.064 -0.1283,0.2566"
       id="path140" />
    <path
       inkscape:connector-curvature="0"
       style="fill:none;stroke:#000000;stroke-width:1"
       d="m 129.51682,142.11578 -0.064,0.1924 -0.1925,0.4492 -0.2566,0.5774 -0.1284,0.77 -0.3208,2.1174 0.1283,0.6416 0.1925,0.2566 0.3208,0.1284 0.5775,0.064 1.3474,-0.1925 0.8983,-0.4492 0.7058,-0.4491 0.5775,-0.5133 0.5133,-0.6416 0.7699,-1.4758 0.3208,-0.7057 0.2567,-0.77 0.1925,-0.4491 0.064,-0.064 -0.064,0.1924 0,0.1925 -0.064,0.3208 0,0.5133 -0.1284,0.8342 0.064,1.3474 0.1283,0.4491 0.1925,0.5133 0.1925,0.3208 0.1283,0.1284 0.3209,0.1924 0.1283,0.1925 0.064,0"
       id="path142" />
    <path
       inkscape:connector-curvature="0"
       style="fill:none;stroke:#000000;stroke-width:1"
       d="m 162.56062,137.49598 -0.1284,-0.064 0,0 -0.064,0 0.064,0 0,0 0,-0.064 0,-0.064 0,-0.1283 -0.064,-0.1283 -0.2566,-0.4492 -0.1284,-0.1924 -0.1925,-0.1925 -0.2566,-0.2567 -0.3208,-0.1925 -0.9625,-0.5774 -0.2566,-0.1283 -0.5133,-0.1284 -0.3208,-0.064 -0.2567,0 -0.8983,0.385 -0.4491,0.2567 -0.4491,0.4491 -0.385,0.3208 -0.5133,0.9624 -0.2567,1.4758 0,0.8341 0.1284,0.77 0.1283,0.7699 0.064,0.8341 0.1924,1.6041 0,0.6416 0.064,0.6417 0.064,0.5774 0.1283,0.4492 0.1284,0.5132 0,0.1284 0,0 0,0 0,-0.064 -0.064,0 0,0 0,-0.064 0,0"
       id="path144" />
    <path
       inkscape:connector-curvature="0"
       style="fill:none;stroke:#000000;stroke-width:1"
       d="m 152.03782,143.20648 0.1926,0.1283 1.5399,-0.064 1.0907,-0.064 1.3474,-0.1283 2.2457,-0.385 1.155,-0.3208 0.8341,-0.1925 0.4491,-0.064 0.2566,0 -0.064,0.2567"
       id="path146" />
    <path
       inkscape:connector-curvature="0"
       style="fill:none;stroke:#000000;stroke-width:1"
       d="m 163.90802,142.43658 -1.4758,0.7699 -0.7699,0.5775 -0.5775,0.5133 -0.5133,0.5133 -0.064,1.1549 0.1925,0.385 0.2567,0.385 0.3849,0.3208 0.6417,0.2566 1.604,-0.1283 0.9625,-0.2566 1.0266,-0.5133 0.8983,-0.5775 0.5774,-0.4492 0.385,-0.6416 0,-0.2566 -0.1284,-0.4492 -0.3207,-0.4491 -0.4492,-0.4491 -1.7324,-0.9625 -0.3208,-0.1283"
       id="path148" />
    <path
       inkscape:connector-curvature="0"
       style="fill:none;stroke:#000000;stroke-width:1"
       d="m 170.70922,141.79498 0.064,0.1283 0,0.1925 0.1283,0.7699 0,0.6416 0,1.2191 0,0.3208 -0.064,0.3208 -0.064,0.1926 -0.064,0.1283 -0.064,0.1283 0,0.064 0.064,0 -0.064,-0.064 0.1283,0.064 0,-0.1283 0.064,-0.1925 0.064,-0.2567 0.1284,-0.5132 0.064,-0.385 0.1925,-1.1549 0.1925,-0.4492 0.2566,-0.3208 0.2566,-0.2567 0.5775,-0.3208 1.0908,-0.3208 0.6416,-0.1283 0.5133,0 0.6416,0.064 0.5775,0.1283 1.6682,0.1284 0.77,0 0.5775,0 0.2566,0.064 0.1925,0.064 0.2566,0.1283 0,0.1925 -0.064,0.1283 -0.1924,0.2567"
       id="path150" />
    <path
       inkscape:connector-curvature="0"
       style="fill:none;stroke:#000000;stroke-width:1"
       d="m 200.22412,140.83248 -0.064,0.064 0,0.1283 -0.1284,0.1925 -0.064,0.1283 -0.2566,0.4492 -0.1284,0.3208 -0.2566,0.385 -0.2567,0.5774 -0.2566,0.6416 -1.2191,1.9249 -0.6417,1.0266 -0.7057,1.0266 -0.77,1.0266 -0.7699,1.0266 -1.2833,1.7966 -0.7699,0.9624 -0.1284,0.3209 -0.1283,0.1283 0,0 0.064,-0.064 -0.064,-0.1284 0.1283,-0.3849 0.3208,-0.77"
       id="path152" />
    <path
       inkscape:connector-curvature="0"
       style="fill:none;stroke:#000000;stroke-width:1"
       d="m 193.74362,142.75738 0,0.064 0,0 0,0.064 0,0 0.064,0 -0.064,-0.064 0,0.064 0.064,0 0,0 0,0.064 0,0 0,0 0,0 0,0 0,0 0,0 0,0 0.064,0 0,-0.064 -0.064,0.064 0,-0.064 0,0 0,0 0,0 -0.064,-0.064 0,0 0,-0.064 -0.064,0 0,0 -0.064,-0.064 0,-0.064 0,0 -0.064,-0.064 0,0 0,-0.064 0,0 0,0 0,0 0,0.064 0.064,0 0,0 0,0 0,0.064 0.064,0 0.1284,0.1924 0.1283,0.1284 0.064,0.1925 0.1925,0.3208 0.1283,0.1925 0.6416,0.8341 0.3208,0.3849 0.3208,0.5133 0.1925,0.3209 0.3209,0.4491 0.5774,0.7699 0.1283,0.2567 0.064,0.064 0.064,0.064 0,0 0.064,0 -0.064,-0.064 0,0 -0.064,-0.064 0,-0.064 -0.1925,-0.1283 -0.064,-0.2567"
       id="path154" />
    <path
       inkscape:connector-curvature="0"
       style="fill:none;stroke:#000000;stroke-width:1"
       d="m 205.93452,141.47408 -0.1925,-0.1283 -0.2566,-0.064 -0.5775,0.064 -0.5774,0.064 -1.6041,0.5133 -0.5775,0.385 -0.5133,0.3208 -0.385,0.5775 -0.5133,0.5774 -0.7058,1.4116 -0.1283,0.7058 0,0.4492 0.2567,0.3849 0.5133,0.385 1.2191,0.4491 0.7058,-0.1283 1.0266,-0.385 0.9624,-0.4491 0.5775,-0.385 0.6416,-0.4491 0,-0.1925 -0.064,-0.1925 0,-0.3208 -0.064,-0.4492 -0.1283,-0.8341 -0.1284,-0.2566 -0.1283,-0.3208 -0.1925,-0.2567 -0.1925,-0.1925 -0.2566,-0.1283 -0.064,0.064"
       id="path156" />
    <path
       inkscape:connector-curvature="0"
       style="fill:none;stroke:#000000;stroke-width:1"
       d="m 209.91262,142.05158 0.1283,0 0.064,0.1283 0,0.1283 0,0.1284 -0.4491,0.7699 -0.1925,0.6417 -0.3208,0.4491 -0.064,0.5774 0,0.4492 0.3208,0.7058 0.3208,0.3208 0.4491,0.1925 0.5775,0 0.385,-0.1283 1.8607,-0.7058 0.4491,-0.3209 0.5133,-0.3849 0.385,-0.385 0.6416,-0.6416 0.5775,-1.2833 0,-0.1283 0,-0.1925 -0.064,0.064 0.064,0.064 0,0.2566 0,0.1926 -0.064,0.7699 0,0.5775 0,0.3849 0.064,0.9625 0.064,0.4491 0.1283,0.5133 0.1283,0.2567 0.1925,0.2566 0.3208,0.1925 0.4492,-0.2566 0.3208,-0.4492"
       id="path158" />
    <path
       inkscape:connector-curvature="0"
       style="fill:none;stroke:#000000;stroke-width:1"
       d="m 220.62782,142.88568 0.1283,0.2567 0.064,0.2566 0.064,0.385 0,0.4491 -0.1283,1.0908 -0.064,0.5775 -0.064,0.3208 0,0.1283 -0.064,0.064 0,0 0,0 0,-0.064 0,0 0,-0.064 0,-0.2566 0,-0.2567 0.1283,-0.4491 0.064,-0.6417 0.1925,-0.5774 0.2567,-0.77 0.064,-0.1925 0.1283,-0.1924 0.385,-0.385 0.385,-0.3208 0.8982,-0.3208 0.7058,-0.1284 0.77,0 0.6416,0.1284 0.5775,0.1924 0.8341,0.2567 0.1283,0.064 0.064,0 0.064,0.064 -0.064,0"
       id="path160" />
    <path
       inkscape:connector-curvature="0"
       style="fill:none;stroke:#000000;stroke-width:1"
       d="m 247.83272,141.73078 0,-0.1283 0,-0.1925 -0.1283,-0.1925 -0.064,-0.1283 -0.1925,-0.1284 -0.1925,0 -0.385,-0.1925 -0.4491,0.064 -0.5133,0.1284 -1.2833,0.5133 -0.6416,0.385 -0.6416,0.3849 -0.6416,0.5133 -0.6417,0.5775 -0.5774,0.8983 0,0.3208 0.064,0.1925 0.1283,0.2566 0.1925,0.2567 0.7058,0.385 0.6416,0.064 0.8341,-0.1284 1.2191,-0.385 1.1549,-0.3208 2.1174,-0.7699 0.7058,-0.5133 0.5133,-0.385 0.1925,-0.2566 0.2567,-0.3208 0.064,-0.6417 0,-0.3208 -0.064,-0.2567 0,-0.1283 0,-0.064 -0.064,0.064 0.064,0.064 -0.064,0 0,0.2567 0,0.3849 -0.064,1.6041 0,0.8983 -0.064,0.8982 -0.1284,0.9625 -0.064,0.8341 -0.2566,1.7324 -0.1925,0.5775 -0.1283,0.4491 -0.1284,0.3208 -0.3208,0.2567 -1.1549,0.7058 -0.6416,0.3208 -0.7058,0.1283 -0.5133,0.1925 -0.5775,0 -1.0266,0 -0.5133,-0.2567 -0.4491,-0.4491 -0.3209,-0.5775 -0.1924,-0.8341"
       id="path162" />
    <path
       inkscape:connector-curvature="0"
       style="fill:none;stroke:#000000;stroke-width:1"
       d="m 253.86402,143.01398 0.1925,0 0.385,0.064 0.4491,0.1284 0.5133,0.1283 1.0266,0 0.385,-0.064 0.5775,-0.1283 0.8341,-0.1925 0.5774,-0.2567 0.77,-0.4491 0.2567,-0.1284 -0.064,0 -0.064,-0.064 -0.1284,-0.1283 -0.7699,-0.3208 -0.7058,0 -0.8983,0.1925 -1.0266,0.4491 -0.8983,0.4492 -2.1173,2.1173 0,0.385 0.2566,0.4491 0.3208,0.3208 0.7058,0.2567 1.989,0.2567 1.155,-0.064 0.8982,-0.1284 0.9625,-0.1283 0.7058,-0.064 0.5775,-0.2566 0.064,-0.2567"
       id="path164" />
    <path
       inkscape:connector-curvature="0"
       style="fill:none;stroke:#000000;stroke-width:1"
       d="m 263.16762,142.56488 -0.1925,0.2567 -0.064,0.5132 -0.1283,0.6417 -0.1283,0.5133 -0.385,1.1549 -0.2566,0.4491 -0.1926,0.3209 -0.1925,0.1283 0,0.064 0,-0.064 0,0 0.064,-0.064 0,-0.064 0.1284,-0.1925 0.7699,-1.155 0.4492,-0.7057 0.5133,-0.8341 0.4491,-0.77 0.6417,-0.8341 0.8341,-0.9625 0.4491,-0.2566 0.064,-0.064 0.1925,-0.064 0.064,0.064 0.3207,0.3849 0.3209,0.2567 0.2566,0.5133 0.2566,0.5133 0.2567,0.7058 0.1283,1.2832 0.064,0.4492 -0.1925,0.6416 -0.064,0.4492 -0.1925,0.2566 -0.3849,0.4491 -0.2567,0.1284 -0.385,0.2566 -0.1925,0.1283 -0.1283,-0.1283"
       id="path166" />
    <path
       inkscape:connector-curvature="0"
       style="fill:none;stroke:#000000;stroke-width:1"
       d="m 269.64802,143.20648 0.064,0 0.064,0.1283 0.2567,0.1284 1.0907,0.3208 2.4382,-0.3208 1.0908,-0.385 0.7057,-0.385 0.5133,-0.2566 0.1925,-0.1925 0,-0.3208 -0.1283,-0.1925 -0.3208,-0.1283 -0.7058,-0.064 -0.9624,0.1924 -2.1174,0.8984 -1.0908,0.7057 -0.6416,0.4492 -0.2566,0.3208 -0.1284,0.3849 0.2567,0.9625 0.3208,0.385 0.4491,0.3208 0.6417,0.2566 0.7699,0.1283 2.0532,-0.064 1.0266,-0.064 1.9249,-0.4491 0.5775,-0.1283 0.2566,-0.1283"
       id="path168" />
    <path
       inkscape:connector-curvature="0"
       style="fill:none;stroke:#000000;stroke-width:1"
       d="m 281.26152,142.11578 -0.1925,0.385 -0.064,0.3208 0.1283,1.0907 -0.1925,0.77 -0.064,1.0907 -0.1284,0.4492 -0.064,0.1925 -0.064,0.064 0,0 -0.064,-0.1284 0,-0.1283 -0.064,-0.1283 0.064,-0.385 0.1284,-0.6416 0.4491,-1.6682 0.1925,-0.5775 0.1283,-0.385 0.1925,-0.3208 0.3208,-0.3208 0.9625,-0.3208 0.8341,-0.1925 0.7699,-0.1283 0.77,0.064 0.8982,-0.064 1.6041,0 0.8341,0.1925 0.2567,0.2566 0.1283,0.1925 0.1925,0.1925"
       id="path170" />
    <path
       inkscape:connector-curvature="0"
       style="fill:none;stroke:#000000;stroke-width:1"
       d="m 292.16912,141.98738 -0.6416,0.2567 -0.5133,0.385 -0.5133,0.3849 -0.7699,0.3208 -1.0266,0.8342 -0.1926,0.3208 -0.064,0.2566 0,0.4492 0.1284,0.4491 0.5774,0.8341 0.5133,0.3208 0.5133,0.2567 0.77,0.064 0.8341,-0.1283 1.7965,-0.8341 0.8342,-0.5134 0.2566,-0.3208 0.1925,-0.385 -0.064,-0.5774 -0.5133,-1.1549 -0.385,-0.5775 -0.5774,-0.6416 -0.5775,-0.1284 -0.385,-0.1924 -0.5774,-0.2567 -0.1926,0.064 0.064,0.064"
       id="path172" />
    <path
       inkscape:connector-curvature="0"
       style="fill:none;stroke:#000000;stroke-width:1"
       d="m 302.30682,140.89668 -0.1924,0 -0.2567,0.064 -0.1925,0.1283 -0.2567,0.064 -1.1549,0.2567 -0.6416,0.2566 -0.7058,0.3208 -0.6416,0.3208 -0.2567,0.1926 0,0.2566 0.064,0.1925 0.1283,0.2566 0.77,0.8341 0.5133,0.4492 1.5399,0.7058 0.8983,0.3208 0.6416,0.3208 0.5775,0.2566 0.2566,0.3209 -0.064,0.1925 -0.1283,0.064 -0.8341,0.1925 -0.8983,0.2566 -0.8341,0.1925 -1.9249,0.3208 -0.7699,0.1283 -0.7058,0.1284 -0.5133,0.064 -0.1925,0.064 0.064,-0.064 0.8341,-0.5775"
       id="path174" />
    <path
       inkscape:connector-curvature="0"
       style="fill:none;stroke:#000000;stroke-width:1"
       d="m 307.76062,142.82158 -0.064,0.2566 -0.064,0.385 -0.064,0.385 -0.1283,0.6416 -0.3208,1.0908 -0.2567,0.4491 -0.1283,0.2566 -0.1283,0.1284 -0.1283,0"
       id="path176" />
    <path
       inkscape:connector-curvature="0"
       style="fill:none;stroke:#000000;stroke-width:1"
       d="m 307.69652,137.94518 -0.1283,-0.3208 0,-0.1284 0,0 0.1283,0 0.6416,0.064"
       id="path178" />
    <path
       inkscape:connector-curvature="0"
       style="fill:none;stroke:#000000;stroke-width:1"
       d="m 315.26772,135.25038 0.064,-0.1284 0.064,0 0.064,0.1284 0.064,0.5132 -0.064,1.0908 -0.1284,0.8341 -0.1924,0.8983 -0.3208,1.155 -0.385,1.1549 -0.77,2.1815 -0.1925,0.9624 -0.2566,0.8983 -0.385,0.8341 -0.1283,0.5775 -0.3208,0.4491 -0.2567,-0.1924"
       id="path180" />
    <path
       inkscape:connector-curvature="0"
       style="fill:none;stroke:#000000;stroke-width:1"
       d="m 309.62142,143.14238 0.1283,0 0.4491,0.064 0.5775,0 0.9624,0 5.5822,0.1925 0.8341,0 0.5133,0 0.385,-0.1284"
       id="path182" />
    <path
       inkscape:connector-curvature="0"
       style="fill:none;stroke:#000000;stroke-width:1"
       d="m 326.04702,141.21748 0,0.064 0.1925,0.4491 -0.3208,0.8983 -0.3208,0.7058 -1.4758,1.8607 -0.8341,1.0908 -0.5133,0.7699 -0.5775,0.8342 -1.2832,1.6682 -0.7058,0.6416 -0.385,0.2566 -0.385,0.1926 -0.3208,0.1283 -0.2566,0"
       id="path184" />
    <path
       inkscape:connector-curvature="0"
       style="fill:none;stroke:#000000;stroke-width:1"
       d="m 318.47582,144.16898 0,-0.064 0,0.064 0.1283,0.1924 0.1283,0.1925 0.8342,0.8341 0.7058,0.4492 0.4491,0.385 0.3208,0.1925 0.2567,0.1925 0,0.1283 -0.385,-0.064"
       id="path186" />
    <path
       inkscape:connector-curvature="0"
       style="fill:none;stroke:#000000;stroke-width:1"
       d="m 75.49182,39.263024 0.064,0.064 0,-0.064 0,0.064 0.1284,0 0.2566,-0.064 0.1283,-0.1924 0.1284,-0.2567 1.0266,-1.1549 0.5774,-0.7058 0.8341,-1.3474 0.8341,-1.2191 0.8983,-1.5399 0.6417,-1.1549 0.7057,-1.3475 1.4116,-2.6948 0.2567,-0.6416 0.1925,-0.5775 0.2566,-0.7058 0.1283,-0.3849 0.064,-0.4492 0.064,-0.064 0.064,-0.064 -0.064,-0.064 0.064,0 0,0 0,0 -0.064,-0.064 -0.064,0 0,0 0,0.1283 -0.064,0 0,0.1283 0,0.3208 -0.1283,0.3208 -0.1283,1.2833 -0.064,1.0266 -0.064,0.8341 0.064,1.3474 0.064,1.0908 0.1925,2.6307 0.1283,1.0907 0.1283,0.8983 0.1925,0.8341 0.064,0.5133 0.064,0.3208 0,0 0.064,-0.064 -0.064,-0.064 0,-0.064 0,-0.064 0.064,-0.1283 0,-0.064 0.064,-0.1925 0.1283,-0.3208 0.7058,-1.2191 0.6416,-0.9624 0.77,-1.155 0.6416,-1.2191 0.8983,-1.6682 1.475697,-3.144 0.5133,-1.4757 0.5775,-1.7324 0.6416,-1.6682 0.1925,-0.77 0.5133,-1.8607 0.1283,-0.4491 0.1284,-0.3208 0,-0.1284 0.064,-0.064 -0.064,0.064 0,0.064 -0.064,0.064 -0.1284,0.1924 -0.2566,0.8342"
       id="path1672" />
    <path
       inkscape:connector-curvature="0"
       style="fill:none;stroke:#000000;stroke-width:1"
       d="m 92.687417,29.638624 0,0.3209 -0.064,0.7058 -0.2566,1.1549 -0.1925,1.0266 -0.5133,2.374 -0.2567,1.0266 -0.1925,0.7058 -0.2566,0.6416 -0.064,0.1925 0,-0.2566 0.2566,-0.8342"
       id="path1674" />
    <path
       inkscape:connector-curvature="0"
       style="fill:none;stroke:#000000;stroke-width:1"
       d="m 95.703117,24.184824 -0.3208,-0.2566 -0.064,-0.064 0.064,0 0.064,0 0.4491,0.5133 0.3208,0.5775"
       id="path1676" />
    <path
       inkscape:connector-curvature="0"
       style="fill:none;stroke:#000000;stroke-width:1"
       d="m 103.14592,29.125324 0.064,0.064 0.064,0.1283 0.064,0.3209 0,0.6416 -0.2566,1.5399 0,0.6416 -0.064,0.4491 0,0.2567 0.064,0.064 0,-0.1284 0,-0.064 0,-0.064 -0.064,-0.385 0.064,-0.5133 -0.064,-1.4757 -0.1283,-0.2567 -0.3209,-0.1283 -0.6416,0 -0.9624,0.1925 -2.117403,1.2833 -0.9624,0.9624 -0.5775,0.8341 -0.1925,0.7058 -0.064,0.7699 0.1925,1.0267 0.2567,0.5133 0.3849,0.5133 0.6417,0.3849 0.7699,0.1925 2.823103,-0.064 1.4116,-0.1925 1.2191,-0.1925 0.9625,-0.1283 0.7058,-0.385 0.2566,-0.4492 -0.1283,-0.4491 -0.385,-0.7058"
       id="path1678" />
    <path
       inkscape:connector-curvature="0"
       style="fill:none;stroke:#000000;stroke-width:1"
       d="m 111.10212,18.923524 -0.1283,-0.064 -0.064,0.064 0,0.3208 0,0.6416 0.064,2.8873 -0.2567,2.1816 -0.3849,2.6306 -0.3209,2.4382 -0.2566,2.374 -0.4491,3.529 -0.1925,0.9624 -0.1925,0.77 -0.064,0.3208 -0.064,0 0.064,-0.1283 0,-0.064 0,-0.2566 0.1283,-0.4492 0.3208,-1.0266 1.1549,-2.3098 0.9625,-1.155 0.8341,-0.9624 0.5775,-0.5133 0.4491,-0.3208 0.5133,-0.1283 0.1925,0.1924 0.385,0.385 0.3208,0.5133 0.2566,0.5775 0.385,1.4757 0.1283,0.77 -0.064,0.8983 -0.064,0.7057 -0.1283,0.7058 0,0.6417 0,0 0,-0.064 0.064,-0.1925 0.5133,-0.5775"
       id="path1680" />
    <path
       inkscape:connector-curvature="0"
       style="fill:none;stroke:#000000;stroke-width:1"
       d="m 123.54972,31.371024 -0.5775,-0.1283 -0.385,-0.1283 -0.5133,0.064 -0.6416,0.2566 -1.5399,1.8607 -0.7058,1.4116 -0.385,1.2833 0,1.0907 0.1925,0.8983 1.4758,0.8983 1.1549,0.1283 1.4757,-0.2567 1.6041,-0.7057 1.5399,-0.8983 1.9249,-1.9891 0.1925,-0.8341 0,-0.5774 -0.4492,-0.6417 -0.8341,-0.8982 -2.0532,-0.6417 -1.3474,0 -0.9624,0.064 -0.385,0.1283 -0.064,-0.064 0.2566,0 0.4492,-0.064"
       id="path1682" />
    <path
       inkscape:connector-curvature="0"
       style="fill:none;stroke:#000000;stroke-width:1"
       d="m 133.75152,18.987624 0.064,-0.064 0,0.1283 0,0.2567 0.064,0.3849 0.1283,2.759 -0.1924,1.9891 -0.1925,2.5665 -0.1925,2.3098 -0.2567,2.5665 -0.3849,3.7215 -0.064,1.3474 -0.1284,0.8983 0,0.3849 -0.064,0 0,-0.064 0.064,-0.385 0.3208,-0.8983 0.8341,-1.4115"
       id="path1684" />
    <path
       inkscape:connector-curvature="0"
       style="fill:none;stroke:#000000;stroke-width:1"
       d="m 142.92682,31.242724 -0.7699,-0.064 -0.3209,0.1283 -0.3849,0.1925 -0.8983,0.8341 -1.7324,2.5023 -0.77,1.5399 -0.1925,1.2191 0.064,0.8341 0.1925,0.77 0.9624,0.2566 0.8342,-0.4491 1.1549,-0.8341 1.4757,-1.4116 1.0266,-1.2191 1.2833,-2.5023 0,-0.385 -0.064,0 -0.1925,0.3208 -0.1925,0.4491 -0.4491,1.7966 0,0.5133 0,0.5775 0.1283,0.4491 0.1283,0.385 0.3208,0.1925 0.5133,0.1925 0.77,0.1283 0.7699,0.064 0.7058,-0.3208"
       id="path1686" />
    <path
       inkscape:connector-curvature="0"
       style="fill:none;stroke:#000000;stroke-width:1"
       d="m 156.78592,30.408624 0,-0.1925 -0.064,0 -0.1283,0 -0.4491,0.064 -1.7324,0.5133 -0.8983,0.4491 -0.8341,0.5775 -0.77,0.7058 -0.3208,0.5774 0,1.2191 0.5775,0.4492 1.0266,0.5133 1.6041,0.4491 1.3474,0.5133 1.8607,1.4116 0.1925,0.5133 -0.064,0.3208 -0.3208,0.3208 -0.7699,0.6416 -1.5399,0.6417 -0.8983,0.064 -0.5775,-0.1283 -0.6416,-0.3208 -0.6416,-0.4492 -1.8608,-0.7057 -2.4381,0.1283"
       id="path1688" />
    <path
       inkscape:connector-curvature="0"
       style="fill:none;stroke:#000000;stroke-width:1"
       d="m 170.51672,22.388324 0.064,-0.1284 0.064,0 0.064,0.1284 0.1284,0.2566 0.385,1.7966 0.1283,1.604 0,4.2989 -0.385,1.9891 -0.3208,2.0532 -0.3208,2.6948 -0.064,1.0266 -0.064,0.5133 -0.064,0 -0.064,-0.064 -0.4491,-0.6417 -0.7059,-1.2191"
       id="path1690" />
    <path
       inkscape:connector-curvature="0"
       style="fill:none;stroke:#000000;stroke-width:1"
       d="m 169.87512,21.554224 0.8983,-0.2567 1.0907,-0.2566 1.4116,-0.1925 3.0157,0.1283 2.3098,1.1549 0.77,0.7058 0.4491,0.8341 0.1925,0.8983 -0.064,0.8341 -1.6041,1.8607 -1.4115,0.8983 -1.7966,0.77 -1.8607,0.7057 -1.9891,0.5133 -2.0532,0.1284 -0.7699,-0.1284 -0.064,-0.1283 0.1925,0"
       id="path1692" />
    <path
       inkscape:connector-curvature="0"
       style="fill:none;stroke:#000000;stroke-width:1"
       d="m 176.03472,33.809224 0.1284,0.064 0.3849,0.1925 0.77,0.1925 1.1549,0.2566 3.144,0.2567 1.4115,-0.1284 1.3475,-0.3849 1.0908,-0.3209 0.6416,-0.3208 0.4491,-0.9624 -0.064,-0.4491 -0.385,-0.6417 -0.7058,-0.4491 -0.8341,-0.1925 -3.0798,0.8983 -1.4757,0.7699 -1.0908,0.9625 -0.8983,1.0266 -0.5133,0.8983 0.6416,1.3474 0.77,0.7058 1.0908,0.4491 1.5399,0.2566 1.5399,-0.1283 3.2081,-0.7058 1.0908,-0.3849 0.6416,-0.3209 0.385,-0.4491"
       id="path1694" />
    <path
       inkscape:connector-curvature="0"
       style="fill:none;stroke:#000000;stroke-width:1"
       d="m 193.29452,23.414924 0.064,0.064 0.1283,0.064 0.1283,0.1283 0.1284,0.2567 0.1925,1.5399 -0.064,1.9249 -0.2567,1.8607 -0.2566,2.1173 -0.4492,2.1174 -0.7699,3.5931 -0.2567,1.1549 -0.1925,0.8983 0,0.2567 0.064,-0.1925 0.8983,-2.3099"
       id="path1696" />
    <path
       inkscape:connector-curvature="0"
       style="fill:none;stroke:#000000;stroke-width:1"
       d="m 198.49162,23.094124 0.1925,0 0.1284,0 0.064,0.1924 0,0.4492 -0.064,1.6682 -0.2567,1.4116 -0.2566,2.1174 -0.1925,1.8607 -0.1925,1.8607 -0.1284,3.2081 0.064,1.0266 0,0.6417 0.064,0.1283 0,0.064 0.1925,-0.6416"
       id="path1698" />
    <path
       inkscape:connector-curvature="0"
       style="fill:none;stroke:#000000;stroke-width:1"
       d="m 200.48072,34.130024 0.1283,0.064 0.1283,0.064 0.2567,0.1283 0.5775,0.3208 1.7324,0.7058 1.219,0.1283 1.2191,0 1.2191,-0.385 1.2833,-0.5133 1.1549,-0.9624 0.1925,-0.4491 0,-0.8342 -0.2567,-0.5774 -0.5774,-0.1925 -2.1174,0.2566 -1.4116,0.8342 -1.1549,0.8341 -0.8341,0.8341 -0.5775,1.0266 -0.064,1.4757 0.4492,0.6417 0.7058,0.5774 0.7057,0.5133 1.155,0.2567 3.4006,-0.1925 1.7965,-0.4492 1.54,-0.4491 1.0907,-0.5775"
       id="path1700" />
    <path
       inkscape:connector-curvature="0"
       style="fill:none;stroke:#000000;stroke-width:1"
       d="m 219.34452,23.350724 0.064,-0.3208 0.1283,-0.064 0,0.064 0,0.1925 -0.064,1.3474 -0.064,1.4116 -0.064,1.7965 -0.1924,2.1816 -0.2567,2.1815 -0.385,5.133 -0.1925,1.1549 -0.3208,0.77 -0.3208,0.3208 -0.5133,0.1925"
       id="path1702" />
    <path
       inkscape:connector-curvature="0"
       style="fill:none;stroke:#000000;stroke-width:1"
       d="m 214.46812,33.103424 0.1284,0.064 0.4491,-0.064 1.4116,0 3.9139,0.064 5.903,-0.1283 1.0907,-0.064 0.7058,0.064 0.2567,-0.064 0.1283,0 0,0.2567 -0.064,0.3208 -0.1284,0.3849 -0.1282,0.6417 -0.2567,0.7058 -0.385,1.5399 -0.064,0.4491 -0.1925,0.5133 -0.1283,0.3208 -0.064,0.1283"
       id="path1704" />
    <path
       inkscape:connector-curvature="0"
       style="fill:none;stroke:#000000;stroke-width:1"
       d="m 228.71232,29.317824 -0.1284,-0.5774 0,-0.3208 0.064,-0.1284 0.064,-0.064 0.1925,0.1283 0.1925,0.385"
       id="path1706" />
    <path
       inkscape:connector-curvature="0"
       style="fill:none;stroke:#000000;stroke-width:1"
       d="m 234.10192,35.349124 0.2567,0.1284 0.7058,0.1924 0.8983,0.1284 1.0907,0.1925 2.3099,0.064 0.9624,-0.2566 0.4491,-0.385 0.064,-0.9625 -0.1925,-0.8982 -0.5133,-1.2833 -0.3849,-0.064 -0.7058,0.1283 -1.7965,0.8983 -1.155,0.8982 -1.8607,2.2457 -0.4491,1.0266 0,1.0908 0.1924,0.8983 0.5133,0.6416 1.7325,0.6416 1.4757,-0.064 1.7965,-0.4492 1.8608,-0.5133 1.6682,-0.4491"
       id="path1708" />
    <path
       inkscape:connector-curvature="0"
       style="fill:none;stroke:#000000;stroke-width:1"
       d="m 247.70442,33.360124 0,0.1925 -0.064,0.3849 -0.064,0.7058 0.1283,0.8983 0.1925,2.0532 -0.064,0.8983 -0.1284,0.6416 -0.064,0.3208 -0.064,0 0,-0.064 0,-0.064 0,-0.064 0,-0.1284 0.064,-0.1925 0.385,-1.604 0.1925,-1.1549 0.3208,-1.0908 0.4491,-1.1549 0.385,-1.0908 0.8342,-1.3474 0.5132,-0.3208 0.7058,-0.2567 0.8341,-0.1283 1.155,0 2.6948,0.4491 1.0908,0.2567 0.8983,0.1925 0.4491,0.064 -0.064,-0.1283"
       id="path1710" />
  </g>
</svg>
