<!DOCTYPE svg PUBLIC "-//W3C//DTD SVG 1.1//EN" "http://www.w3.org/Graphics/SVG/1.1/DTD/svg11.dtd">
<svg xmlns="http://www.w3.org/2000/svg" xmlns:xlink="http://www.w3.org/1999/xlink" width="41px" height="41px" version="1.1"><defs><linearGradient x1="0%" y1="0%" x2="0%" y2="100%" id="mx-gradient-49eaf7-1-137bd0-1-s-0"><stop offset="0%" style="stop-color:#49EAF7"/><stop offset="100%" style="stop-color:#137BD0"/></linearGradient></defs><g transform="translate(0.5,0.5)"><g id="cell-2"><path d="M 4.3 40 C 3.16 40 2.06 39.54 1.26 38.73 C 0.45 37.92 0 36.82 0 35.68 L 0 4.32 C 0 3.18 0.45 2.08 1.26 1.27 C 2.06 0.46 3.16 0 4.3 0 L 35.7 0 C 36.84 0 37.94 0.46 38.74 1.27 C 39.55 2.08 40 3.18 40 4.32 L 40 35.68 C 40 36.82 39.55 37.92 38.74 38.73 C 37.94 39.54 36.84 40 35.7 40 Z" fill="url(#mx-gradient-49eaf7-1-137bd0-1-s-0)" stroke="none" pointer-events="none"/><path d="M 5.45 31.44 C 8.77 31.91 12.48 30.86 14.97 28.75 C 12.31 28.67 9.84 27.03 8.97 24.26 C 10.06 24.5 11.01 24.41 11.87 24.14 C 9.49 23.61 6.77 21.57 6.69 17.71 C 7.68 18.28 8.71 18.54 9.64 18.53 C 7.16 16.88 5.76 13.45 7.64 9.84 C 10.95 14.15 16.17 16.46 20.88 16.65 C 20.32 13.68 21.48 11.01 23.98 9.56 C 26.96 7.85 30.13 8.92 31.87 10.75 C 33.2 10.5 34.56 10 35.96 9.15 C 35.33 10.82 34.48 11.89 33.09 12.77 C 34.16 12.61 35.3 12.43 36.79 11.74 C 35.96 13.01 34.87 14.13 33.59 15.07 C 33.92 21.51 30.53 27.81 26.06 30.95 C 19.9 35.25 11.78 35.44 5.45 31.44 Z" fill="#ffffff" stroke="none" pointer-events="none"/><path d="M 0 4.32 C 0 3.18 0.45 2.08 1.26 1.27 C 2.06 0.46 3.16 0 4.3 0 L 35.7 0 C 36.84 0 37.94 0.46 38.74 1.27 C 39.55 2.08 40 3.18 40 4.32 L 40 14.86 C 27.38 21.06 12.62 21.06 0 14.86 Z" fill-opacity="0.2" fill="#ffffff" stroke="none" pointer-events="none"/></g></g></svg>