<!DOCTYPE svg PUBLIC "-//W3C//DTD SVG 1.1//EN" "http://www.w3.org/Graphics/SVG/1.1/DTD/svg11.dtd">
<svg xmlns="http://www.w3.org/2000/svg" xmlns:xlink="http://www.w3.org/1999/xlink" width="41px" height="41px" version="1.1"><defs><linearGradient x1="0%" y1="0%" x2="0%" y2="100%" id="mx-gradient-ffffff-1-dfdede-1-s-0"><stop offset="0%" style="stop-color:#FFFFFF"/><stop offset="100%" style="stop-color:#DFDEDE"/></linearGradient></defs><g transform="translate(0.5,0.5)"><g id="cell-3"><path d="M 4.3 40 C 3.16 40 2.06 39.54 1.26 38.73 C 0.45 37.92 0 36.82 0 35.68 L 0 4.32 C 0 3.18 0.45 2.08 1.26 1.27 C 2.06 0.46 3.16 0 4.3 0 L 35.7 0 C 36.84 0 37.94 0.46 38.74 1.27 C 39.55 2.08 40 3.18 40 4.32 L 40 35.68 C 40 36.82 39.55 37.92 38.74 38.73 C 37.94 39.54 36.84 40 35.7 40 Z" fill="url(#mx-gradient-ffffff-1-dfdede-1-s-0)" stroke="none" pointer-events="none"/><path d="M 20.02 34.79 C 11.37 34.79 5.32 27.69 5.32 20.12 C 5.32 11.07 12.54 5.22 20.13 5.22 C 27.44 5.22 34.66 11.26 34.66 20 C 34.66 27.83 28.48 34.79 20.02 34.79 Z" fill="#0d2636" stroke="none" pointer-events="none"/><path d="M 16.85 31.56 C 16.85 32.2 16.37 32.46 15.65 32.21 C 11.31 30.68 7.13 25.94 7.13 20.03 C 7.13 12.02 13.92 6.98 19.8 6.98 C 27.44 6.98 32.87 13.29 32.87 19.95 C 32.87 25.44 29.37 30.5 24.11 32.28 C 23.52 32.44 23.15 32.12 23.15 31.59 L 23.15 27.74 C 23.15 27 22.85 26.2 22.29 25.65 C 24.43 25.4 25.72 24.87 26.71 23.84 C 27.69 22.86 28.12 21.43 28.2 19.66 C 28.26 18.26 27.89 16.89 26.88 15.85 C 27.23 14.98 27.29 13.84 26.76 12.43 C 25.7 12.35 24.5 12.99 23.26 13.75 C 21.1 13.19 18.93 13.11 16.77 13.79 C 15.8 13.15 14.92 12.44 13.24 12.43 C 12.8 13.68 12.73 14.82 13.11 15.82 C 11.91 17.17 11.77 18.48 11.79 19.8 C 11.92 22.33 12.84 23.61 13.86 24.38 C 14.71 25.01 15.9 25.41 17.72 25.68 C 17.23 26.16 16.96 26.74 16.91 27.42 C 15.84 27.91 14.32 28.16 13.27 26.66 C 12.81 25.91 12.17 25.07 10.97 25.07 C 10.77 25.07 10.57 25.14 10.55 25.23 C 10.52 25.33 10.63 25.52 10.76 25.6 C 11.82 26.28 11.99 26.66 12.42 27.58 C 12.82 28.67 13.52 29.09 14.27 29.38 C 15.04 29.65 16.28 29.57 16.85 29.38 Z" fill="#ffffff" stroke="none" pointer-events="none"/><path d="M 0 4.32 C 0 3.18 0.45 2.08 1.26 1.27 C 2.06 0.46 3.16 0 4.3 0 L 35.7 0 C 36.84 0 37.94 0.46 38.74 1.27 C 39.55 2.08 40 3.18 40 4.32 L 40 14.86 C 27.38 21.06 12.62 21.06 0 14.86 Z" fill-opacity="0.2" fill="#ffffff" stroke="none" pointer-events="none"/></g></g></svg>