<?xml version="1.0" ?>
<svg baseProfile="full" height="209px" version="1.1" viewBox="0 0 298.297069839 103.704" width="600px" xmlns="http://www.w3.org/2000/svg" xmlns:ev="http://www.w3.org/2001/xml-events" xmlns:xlink="http://www.w3.org/1999/xlink">
	<defs/>
	<path d="M 19.4,1.72 L 19.80005,1.52 L 19.80005,1.1199 L 19.4,0.9201 L 19.4,0.9201 L 19.0,0.9201 L 16.8,0.3201 L 15.80005,0.3201 L 13.6,0.9201 L 10.80005,1.92 L 7.60004,4.52 L 4.0,8.32 L 1.8,13.12 L 0.4,18.9201 L 0.0,25.3201 L 0.0,30.9201 L 1.2,36.1199 L 3.0,40.9201 L 5.4,44.52 L 8.0,46.92 L 10.80005,48.32 L 13.6,48.72 L 16.2,48.12 L 16.2,48.12" fill="none" id="path910" stroke="rgb(25,25,25)" stroke-linejoin="round" stroke-width="1"/>
	<path d="M 24.180055,0.12004 L 24.180055,0.12004 L 24.180055,0.52 L 24.180055,1.52 L 23.980055,4.32 L 23.580055,7.52 L 23.180055,11.92 L 22.780055,16.92 L 22.380055,22.32005 L 22.180055,27.92 L 21.780055,33.72 L 21.780055,38.72 L 21.780055,43.32005 L 22.180055,46.52 L 22.380055,48.32005 L 23.180055,48.72 L 23.580055,48.32005 L 23.980055,46.52 L 23.980055,46.52" fill="none" id="path132" stroke="rgb(25,25,25)" stroke-linejoin="round" stroke-width="1"/>
	<path d="M 32.540055,39.52004 L 32.540055,39.12 L 32.540055,39.12 L 32.540055,39.12 L 32.140055,38.72 L 31.940055,38.72 L 31.140055,39.12 L 29.740055,39.12 L 28.740155,39.92 L 27.540055,40.52 L 26.540055,41.72005 L 26.140055,43.12 L 25.740055,44.52004 L 26.140055,46.32 L 26.140055,47.32 L 26.540055,48.12 L 27.140055,48.72 L 28.340155,48.72 L 29.340055,48.72 L 30.340055,48.72 L 31.540055,47.72005 L 32.940055,46.92 L 33.740155,45.92 L 34.340055,44.52004 L 34.340055,42.32 L 33.940055,40.52 L 33.340155,38.12 L 32.540055,36.92 L 31.940055,36.32 L 31.140055,36.32 L 30.740055,36.72005 L 30.740055,36.72005" fill="none" id="path124" stroke="rgb(25,25,25)" stroke-linejoin="round" stroke-width="1"/>
	<path d="M 35.200055,40.72 L 35.600055,40.72 L 35.600055,40.72 L 35.600055,40.72 L 35.600055,40.72 L 35.200055,40.72 L 35.200055,40.72 L 35.200055,41.52005 L 35.600055,42.32004 L 35.600055,43.72 L 36.000055,45.12 L 36.200055,46.52005 L 37.000055,47.52 L 37.400155,48.32004 L 38.000055,48.72 L 39.200055,48.72 L 39.800055,48.32004 L 40.600055,47.92 L 41.600055,47.32004 L 42.800155,46.12 L 43.800055,44.72 L 44.800055,42.92 L 45.600055,41.92 L 46.000055,40.72 L 46.200055,39.72 L 46.200055,38.92 L 46.200055,38.72 L 46.200055,38.92 L 46.200055,38.92 L 46.200055,39.32 L 46.200055,40.12 L 46.200055,41.12 L 46.600055,42.92 L 46.600055,43.92 L 47.000055,45.12 L 48.000055,46.52005 L 48.800055,47.52 L 49.800055,48.32004 L 51.000055,47.92 L 52.800155,46.92 L 52.800155,46.92" fill="none" id="path126" stroke="rgb(25,25,25)" stroke-linejoin="round" stroke-width="1"/>
	<path d="M 62.360165,38.1201 L 62.760205,37.92 L 62.760205,37.92 L 62.360165,37.92 L 62.360165,37.92 L 61.960165,37.52 L 61.760205,37.32 L 60.560165,37.52 L 59.560165,37.92 L 58.160165,38.52 L 56.760205,39.32 L 54.960215,41.5201 L 54.560165,41.7199 L 54.960215,43.1201 L 55.160165,43.72 L 55.960215,45.1201 L 56.960165,45.92 L 58.160165,46.7199 L 60.160165,47.12 L 61.360165,47.12 L 63.160165,46.7199 L 65.160165,45.92 L 66.760205,44.5201 L 68.160165,42.92 L 69.160165,37.92 L 69.160165,35.1201 L 68.760165,31.12 L 67.760205,22.12 L 66.760205,16.7199 L 65.160165,11.5201 L 63.160165,5.92 L 60.160165,-0.4799 L 59.560165,-1.48 L 59.160165,-1.48 L 59.160165,-1.28 L 58.360165,0.3199 L 58.360165,3.72 L 59.160165,8.92 L 60.160165,15.3199 L 61.360165,22.32 L 63.160165,29.32 L 65.160165,35.1201 L 66.760205,40.1201 L 68.360165,43.72 L 69.560165,46.5201 L 71.360165,48.72 L 71.360165,48.72" fill="none" id="path552" stroke="rgb(25,25,25)" stroke-linejoin="round" stroke-width="1"/>
	<path d="M 87.340165,44.1201 L 87.740065,44.3199 L 87.940065,44.72 L 87.940065,44.3199 L 87.940065,44.3199 L 87.940065,44.3199 L 87.940065,44.1201 L 87.940065,43.72 L 88.540065,42.7201 L 88.740165,41.12 L 88.740165,38.52 L 89.140065,34.92 L 89.340165,30.7201 L 89.140065,25.52 L 88.740165,20.12 L 88.140065,14.72 L 87.940065,8.52 L 87.740065,3.32 L 87.340165,-1.48 L 87.340165,-4.88 L 87.340165,-6.68 L 87.340165,-8.08 L 87.340165,-8.68 L 87.340165,-8.68 L 87.740065,-8.68 L 88.140065,-7.8799 L 89.340165,-6.48 L 90.939965,-3.48 L 92.940065,0.7201 L 95.140065,6.12 L 97.340165,12.7201 L 100.140065,20.52 L 102.740065,28.32 L 105.140065,35.7201 L 107.340165,41.52 L 108.740165,46.32 L 109.940065,48.52 L 110.740165,48.72 L 111.340065,48.72 L 111.540065,47.72 L 111.740065,45.7202 L 112.140065,42.52 L 112.140065,38.32 L 111.540065,33.32 L 111.340065,27.7201 L 110.939965,22.7201 L 110.939965,17.7201 L 110.740165,14.1201 L 110.740165,11.52 L 110.740165,9.92 L 110.939965,9.72 L 110.939965,9.72" fill="none" id="path1050" stroke="rgb(25,25,25)" stroke-linejoin="round" stroke-width="1"/>
	<path d="M 125.97003,34.1198 L 125.77005,33.72 L 125.37005,33.72 L 124.77005,34.1198 L 122.97003,34.1198 L 121.17005,34.3198 L 120.17005,34.9198 L 118.57005,36.3198 L 118.57005,39.1198 L 119.17007,40.5198 L 119.77005,41.3198 L 120.77005,42.1198 L 121.97005,42.7198 L 122.57007,42.9199 L 122.97003,42.7198 L 124.37003,42.3196 L 125.77005,41.5198 L 125.97003,40.9198 L 127.37005,39.9198 L 127.57007,39.1198 L 127.77005,38.5198 L 127.77005,37.1198 L 127.57007,36.3198 L 127.37005,35.1198 L 126.97005,34.9198 L 126.77005,34.5198 L 126.37003,35.1198 L 126.77005,35.7198 L 127.17007,37.7198 L 127.57007,40.1198 L 128.77005,42.3196 L 130.17005,44.5198 L 130.77005,46.5198 L 131.97005,47.9199 L 132.77005,48.72 L 133.77005,48.72 L 134.37003,48.72 L 134.37003,48.72" fill="none" id="path1074" stroke="rgb(25,25,25)" stroke-linejoin="round" stroke-width="1"/>
	<path d="M 123.200013,19.12 L 123.200013,17.72004 L 123.200013,17.32 L 123.600013,17.32 L 123.600013,17.32 L 124.200013,17.32 L 126.000013,17.72004 L 127.800013,18.12 L 130.000063,18.32 L 132.200013,18.72 L 134.600013,19.12 L 136.400013,19.52 L 138.200013,20.12 L 139.600013,20.92005 L 140.800053,21.32 L 140.800053,21.32 M 136.400013,-16.88 L 136.400013,-16.88 L 136.000013,-16.88 L 136.000013,-16.28 L 135.400013,-15.48 L 134.600013,-14.07995 L 134.200013,-11.68 L 134.200013,-8.08 L 133.600013,-2.68 L 133.600013,3.32 L 133.600013,9.92005 L 133.600013,17.32 L 133.600013,25.12 L 134.000063,32.32 L 134.200013,38.12 L 134.200013,41.92 L 134.600013,45.12 L 134.600013,47.32 L 134.600013,48.12 L 134.200013,48.72 L 133.600013,48.12 L 133.600013,48.12" fill="none" id="path106" stroke="rgb(25,25,25)" stroke-linejoin="round" stroke-width="1"/>
	<path d="M 141.656032128,37.5202 L 142.055992128,39.52 L 142.856011988,41.7201 L 143.455991988,44.32 L 144.656031788,46.1198 L 145.055991788,48.12 L 145.256011788,48.72 L 145.256011788,48.72 L 145.256011788,48.72 M 143.256031988,27.92000005 L 143.856011788,28.12000005 L 144.856011788,28.7200001 L 144.856011788,28.7200001" id="path1174" style="fill:none;stroke:#191919;stroke-width:1;stroke-linejoin:round"/>
	<path d="M 144.716014839,34.52 L 145.116014839,34.52 L 145.116014839,34.32 L 145.116014839,34.32 L 145.316014839,34.32 L 145.516034839,34.52 L 145.915994839,35.12 L 146.716014839,36.1199 L 147.316014839,37.5199 L 147.716014839,38.9201 L 148.716014839,40.72 L 149.116034839,41.72 L 150.116014839,43.9201 L 150.915994839,45.72 L 151.116014839,46.72 L 152.316014839,48.32 L 152.516034839,48.72 L 152.516034839,48.72 L 152.516034839,48.72 L 152.516034839,48.32 L 152.516034839,47.5199 L 152.516034839,46.72 L 152.716014839,43.9201 L 152.915994839,41.72 L 153.516014839,40.9201 L 154.116034839,39.52 L 154.315994839,38.9201 L 155.116014839,38.12 L 155.116014839,38.12" fill="none" id="path414" stroke="rgb(25,25,25)" stroke-linejoin="round" stroke-width="1"/>
	<path d="M 157.956014839,39.72 L 158.956014839,39.52005 L 159.756014839,37.92 L 161.956014839,34.12 L 162.556014839,32.32004 L 162.956014839,31.32004 L 162.956014839,30.12 L 162.556014839,28.32 L 161.956014839,27.32004 L 161.156014839,26.32004 L 160.156114839,25.92 L 158.956014839,26.32004 L 157.956014839,27.32004 L 156.956014839,29.52005 L 156.556014839,32.32004 L 156.156014839,35.12 L 156.156014839,38.32 L 156.556014839,40.92 L 157.156014839,43.72 L 158.356014839,45.92 L 159.356014839,47.32004 L 160.756014839,48.32 L 162.556014839,48.72 L 163.956014839,48.32 L 165.756014839,47.72 L 167.556014839,46.52 L 167.556014839,46.52" fill="none" id="path130" stroke="rgb(25,25,25)" stroke-linejoin="round" stroke-width="1"/>
	<path d="M 204.696014839,13.72 L 204.696014839,13.72 L 204.096014839,13.32 L 204.096014839,13.12 L 203.296014839,12.92 L 201.496014839,12.32 L 199.496054839,11.52 L 196.896014839,11.12 L 194.096014839,11.52 L 191.496014839,12.12 L 187.696064839,13.9198 L 186.496014839,15.3202 L 185.896014839,16.72 L 185.896014839,18.12 L 186.496014839,18.9198 L 187.696064839,20.3202 L 189.496054839,22.12 L 195.096014839,25.3202 L 198.296014839,27.12 L 201.896014839,29.5201 L 205.096014839,31.72 L 207.896014839,33.9198 L 209.696014839,36.12 L 211.096014839,38.12 L 211.496014839,39.7199 L 211.896014839,42.32 L 211.896014839,42.32 L 210.496054839,43.9198 L 208.296014839,45.3202 L 205.896014839,46.52 L 202.696064839,47.92 L 198.296014839,48.32 L 194.096014839,48.72 L 190.496054839,48.12 L 187.296014839,47.32 L 185.496054839,45.92 L 184.096014839,43.9198 L 184.096014839,43.9198" fill="none" id="path1112" stroke="rgb(25,25,25)" stroke-linejoin="round" stroke-width="1"/>
	<path d="M 197.776014839,14.12 L 198.176014839,14.12 L 198.776114839,14.12 L 201.376014839,14.92 L 204.376014839,15.92 L 207.976014839,16.92 L 211.576014839,17.72 L 214.576014839,18.12 L 218.176014839,18.72 L 221.776014839,19.12 L 225.176114839,19.52005 L 228.576014839,19.92 L 231.576014839,20.52 L 231.576014839,20.52 M 207.176114839,-20.47995 L 207.176114839,-20.88 L 207.176114839,-20.88 L 207.176114839,-20.88 L 207.375914839,-20.88 L 207.176114839,-20.88 L 207.176114839,-18.67996 L 207.176114839,-15.47995 L 207.776014839,-10.88 L 208.176014839,-4.48 L 209.376014839,3.72 L 210.776114839,13.12 L 212.375914839,22.32 L 214.376014839,30.92 L 215.975914839,38.12 L 217.776014839,43.72 L 218.776114839,46.92 L 219.576014839,48.72 L 219.576014839,48.72" fill="none" id="path164" stroke="rgb(25,25,25)" stroke-linejoin="round" stroke-width="1"/>
	<path d="M 235.889014839,37.32 L 235.889014839,37.32 L 235.489014839,37.32 L 235.289014839,37.32 L 234.489014839,37.32 L 233.689014839,37.72005 L 231.289014839,38.72005 L 229.889014839,39.52004 L 229.089014839,40.52004 L 228.489014839,41.92 L 227.689014839,43.32 L 227.689014839,45.12 L 227.689014839,46.52 L 229.089014839,48.32 L 230.289014839,48.72 L 231.689114839,48.72 L 235.489014839,46.92 L 236.289014839,45.92 L 236.689114839,44.1201 L 237.089114839,41.92 L 236.689114839,40.92 L 235.489014839,38.72005 L 234.889014839,37.92 L 234.089014839,37.72005 L 234.089014839,37.72005" fill="none" id="path228" stroke="rgb(25,25,25)" stroke-linejoin="round" stroke-width="1"/>
	<path d="M 238.629224839,36.72 L 238.629224839,37.1199 L 238.629224839,37.5198 L 238.629224839,38.1199 L 238.629224839,38.72 L 238.629224839,39.5199 L 238.629224839,40.32 L 238.829024839,41.1199 L 238.829024839,42.32 L 239.229124839,43.9198 L 239.429124839,45.7199 L 239.429124839,47.32 L 240.029124839,48.72 L 240.229224839,48.72 L 240.229224839,48.72 L 240.229224839,48.3199 L 240.029124839,47.9199 L 239.629124839,46.72 L 238.829024839,45.1199 L 238.629224839,43.1199 L 238.629224839,40.9199 L 238.229124839,38.72 L 238.029124839,36.72 L 238.029124839,34.5199 L 238.029124839,32.5198 L 238.029124839,31.1199 L 238.029124839,30.32 L 238.629224839,29.5199 L 238.829024839,29.5199 L 240.829124839,29.7199 L 243.029124839,30.9199 L 244.629124839,32.32 L 246.429124839,33.1199 L 247.229224839,34.5199 L 248.229124839,35.32 L 249.229124839,35.9199 L 249.229124839,35.9199" fill="none" id="path498" stroke="rgb(25,25,25)" stroke-linejoin="round" stroke-width="1"/>
	<path d="M 258.235062339,30.52 L 258.235062339,30.52 L 258.635062339,30.52 L 258.235062339,30.52 L 258.235062339,30.52 L 258.235062339,30.3201 L 258.235062339,30.3201 L 258.035102339,29.9201 L 257.235112339,29.9201 L 255.435062339,30.52 L 254.435062339,31.32 L 253.235062339,32.32 L 252.235112339,33.72 L 251.835062339,35.52 L 251.235112339,37.72 L 251.235112339,40.3201 L 251.435062339,41.72 L 251.435062339,42.72 L 251.835062339,43.52 L 252.235112339,43.72 L 253.035102339,43.72 L 253.635062339,44.12 L 254.635062339,43.72 L 255.435062339,43.12 L 256.435062339,41.92 L 257.635062339,40.92 L 258.235062339,39.52 L 259.035102339,38.52 L 259.435062339,36.72 L 259.435062339,35.3201 L 259.435062339,34.12 L 259.435062339,32.72 L 259.035102339,31.72 L 259.035102339,30.92 L 258.635062339,30.52 L 258.635062339,30.52 L 258.635062339,30.92 L 258.635062339,31.32 L 259.035102339,32.72 L 259.035102339,35.3201 L 259.435062339,38.12 L 259.435062339,41.32 L 260.435062339,43.72 L 261.235112339,46.32 L 262.235112339,47.32 L 263.035102339,48.52 L 263.635062339,48.72 L 264.635062339,48.72 L 264.635062339,48.72" fill="none" id="path316" stroke="rgb(25,25,25)" stroke-linejoin="round" stroke-width="1"/>
	<path d="M 280.725029839,35.4238998 L 281.525069839,35.0237998 L 282.125119839,35.0237998 L 282.125119839,34.8239998 L 282.125119839,34.2238998 L 280.525019839,33.4239998 L 279.125069839,32.62389977 L 277.125119839,32.22389977 L 274.725069839,32.8239998 L 271.925109839,33.2238998 L 268.725069839,35.4238998 L 268.725069839,36.4239998 L 268.725069839,37.8239998 L 269.325069839,39.2238998 L 270.325069839,40.4238998 L 271.525069839,41.4239998 L 272.725069839,42.0239 L 274.325069839,42.824 L 275.325069839,43.424 L 276.925109839,43.424 L 277.525069839,43.424 L 278.525069839,43.424 L 279.325069839,43.2239 L 279.725069839,42.824 L 279.725069839,42.2239 L 279.125069839,42.0239 L 279.125069839,41.4239998 L 279.125069839,41.2238998 L 279.125069839,41.2238998 L 279.325069839,41.2238998 L 279.325069839,41.4239998 L 279.925069839,41.4239998 L 280.125069839,42.2239 L 281.725069839,44.824 L 282.325069839,46.8239 L 283.525069839,49.0239 L 284.725069839,51.8239 L 286.525069839,55.4239 L 287.725069839,59.2239 L 289.925069839,63.424 L 291.525069839,67.2239 L 292.325069839,71.2239 L 293.125069839,74.4239 L 293.125069839,77.2239 L 292.125119839,79.2239 L 291.325069839,80.6239 L 289.125069839,81.424 L 286.325069839,82.2239 L 281.925109839,82.824 L 275.925069839,82.6239" id="path526" style="fill:none;stroke:#191919;stroke-width:1;stroke-linejoin:round"/>
	<path d="M 286.897069839,39.11995 L 287.897069839,38.31995 L 288.697119839,37.31995 L 289.697069839,36.11995 L 291.497069839,34.71995 L 292.697119839,33.72 L 293.697119839,32.91995 L 294.497109839,31.91995 L 294.697069839,30.91995 L 294.697069839,30.11995 L 294.097069839,29.11995 L 292.297069839,28.31995 L 290.097069839,28.72 L 287.897069839,28.72 L 286.497069839,30.11995 L 285.497109839,32.31995 L 284.097069839,34.51999 L 284.097069839,37.31995 L 284.697069839,40.51999 L 285.497109839,43.31995 L 286.497069839,45.51999 L 288.697119839,46.91995 L 290.497109839,47.91995 L 292.897069839,48.72 L 295.097069839,48.72 L 296.897069839,47.91995 L 298.297069839,46.11995 L 298.297069839,46.11995" fill="none" id="path108" stroke="rgb(25,25,25)" stroke-linejoin="round" stroke-width="1"/>
</svg>
