<?xml version="1.0" encoding="UTF-8" standalone="no"?>
<!-- Created with Inkscape (http://www.inkscape.org/) -->

<svg
   xmlns:dc="http://purl.org/dc/elements/1.1/"
   xmlns:cc="http://creativecommons.org/ns#"
   xmlns:rdf="http://www.w3.org/1999/02/22-rdf-syntax-ns#"
   xmlns:svg="http://www.w3.org/2000/svg"
   xmlns="http://www.w3.org/2000/svg"
   xmlns:sodipodi="http://sodipodi.sourceforge.net/DTD/sodipodi-0.dtd"
   xmlns:inkscape="http://www.inkscape.org/namespaces/inkscape"
   width="84.46508mm"
   height="44.450001mm"
   viewBox="0 0 299.28572 157.5"
   id="svg6275"
   version="1.1"
   inkscape:version="0.91 r13725"
   sodipodi:docname="page-sample.svg">
  <defs
     id="defs6277" />
  <sodipodi:namedview
     id="base"
     pagecolor="#ffffff"
     bordercolor="#666666"
     borderopacity="1.0"
     inkscape:pageopacity="0.0"
     inkscape:pageshadow="2"
     inkscape:zoom="2.8"
     inkscape:cx="11.973356"
     inkscape:cy="93.204541"
     inkscape:document-units="px"
     inkscape:current-layer="layer1"
     showgrid="false"
     fit-margin-top="0"
     fit-margin-left="0"
     fit-margin-right="0"
     fit-margin-bottom="0" />
  <metadata
     id="metadata6280">
    <rdf:RDF>
      <cc:Work
         rdf:about="">
        <dc:format>image/svg+xml</dc:format>
        <dc:type
           rdf:resource="http://purl.org/dc/dcmitype/StillImage" />
        <dc:title />
      </cc:Work>
    </rdf:RDF>
  </metadata>
  <g
     inkscape:label="Layer 1"
     inkscape:groupmode="layer"
     id="layer1"
     transform="translate(-23.571428,-18.433632)">
    <rect
       style="color:#000000;clip-rule:nonzero;display:inline;overflow:visible;visibility:visible;opacity:1;isolation:auto;mix-blend-mode:normal;color-interpolation:sRGB;color-interpolation-filters:linearRGB;solid-color:#000000;solid-opacity:1;fill:none;fill-opacity:1;fill-rule:nonzero;stroke:none;stroke-width:1.25;stroke-linecap:butt;stroke-linejoin:miter;stroke-miterlimit:4;stroke-dasharray:none;stroke-dashoffset:0;stroke-opacity:1;color-rendering:auto;image-rendering:auto;shape-rendering:auto;text-rendering:auto;enable-background:accumulate"
       id="rect7047"
       width="299.28571"
       height="157.5"
       x="23.571428"
       y="18.433632" />
    <path
       d="m 35.561149,34.705493 0,0.14312 -0.1431,0.28617 0.0716,0.71555 -0.21467,1.21639 -0.78708,4.07852 -0.71553,2.71901 -0.85864,2.57592 -0.85862,2.71902 -0.78709,2.21812 -0.78708,3.07677 -0.14311,0.9302 -0.0716,0.14312 -0.0716,-0.0716 0,-0.85863 0.64398,-3.93539"
       id="path36-9"
       inkscape:connector-curvature="0"
       style="fill:none;stroke:#000000;stroke-width:1.23431516" />
    <path
       d="m 33.772329,36.708953 0,0.0716 0,0 0.0716,-0.14311 0.0716,-0.14311 0.14309,-0.35775 0.28621,-0.28623 0.50089,-0.42932 0.85863,-0.42931 0.93018,-0.28621 2.79057,-0.21466 1.3595,0.14309 1.21641,0.57244 1.00173,1.00172 0.71553,1.14487 0.0716,3.07678 -0.57242,2.00346 -1.00175,2.00349 -1.07328,1.93194 -1.21641,1.57415 -2.86212,2.71903 -1.28794,0.71551 -1.07332,0.28622 -0.93017,0.21464 -1.0733,0.21468 -1.93193,0.50088 -0.35775,0.1431 -0.0716,0 -0.0716,-0.0716 0,0 0.2862,-0.1431 0.7871,-0.50088"
       id="path38-1"
       inkscape:connector-curvature="0"
       style="fill:none;stroke:#000000;stroke-width:1.23431516" />
    <path
       d="m 43.646639,49.159193 0.35775,0.21465 0.50087,0 0.78709,-0.14312 1.00175,-0.50086 2.00347,-1.5026 0.9302,-0.93021 0.78707,-0.93019 0.50087,-0.85863 0.35777,-0.78708 -0.0716,-0.42931 -0.35777,-0.0716 -0.57241,0.14312 -0.71553,0.28621 -1.14484,0.71551 -2.00349,1.8604 -0.35777,0.71552 -0.21466,0.64397 -0.0716,0.85863 0,1.07331 0.57243,1.50261 0.35776,0.57242 0.50088,0.21465 0.64398,0.0716 0.78708,-0.64397"
       id="path40-7"
       inkscape:connector-curvature="0"
       style="fill:none;stroke:#000000;stroke-width:1.23431516" />
    <path
       d="m 57.742549,44.651343 0,-0.14311 -0.0716,-0.0716 -0.14309,-0.0716 -0.28623,-0.0716 -1.07329,0.35776 -1.07329,0.64399 -1.00175,0.71551 -0.71552,0.78708 -0.57242,0.85862 -0.78709,2.07505 0,0.93021 0.14311,0.64398 0.64398,0.50084 0.4293,0.0716 1.64573,-1.21636 0.93018,-1.14486 0.57243,-1.07331 0.35776,-0.64396 0.0716,-0.0716 -0.0716,0.28622 -0.14311,0.4293 -0.21465,0.64398 -0.0716,0.42933 -0.0716,0.78707 0,1.14485 0,0.21466 0.14311,-0.0716 0.50086,-0.64398"
       id="path42-5"
       inkscape:connector-curvature="0"
       style="fill:none;stroke:#000000;stroke-width:1.23431516" />
    <path
       d="m 59.889149,49.230723 -0.21466,0.21465 0,0.0716 0,0 0.0716,-0.0716 0.1431,-0.28618 0.0716,-0.21467 0.0716,-0.21466 0.0716,-0.14312 0.1431,-0.35775 0.21466,-0.35778 0.0716,-0.0716 0,-0.0716 0,0 0,0 0.0716,0 0.0716,0.0716 0,0.0716 0,0.14313 0.14311,0.14312 0.14309,0.28618 0,0.0716 0,0.0716 0.0716,0 -0.0716,0.0716 0,0.35775 -0.0716,0.28623 0,0.35775 0,0.14311 0,0 0,-0.0716 0,-0.0716 0.0716,-0.0716 0,-0.42929 0.0716,-0.42933 0.0716,-0.71552 0.0716,-0.3578 0.28622,-0.85862 0.35776,-0.57241 0.42932,-0.42932 1.78882,-1.43108 1.07329,-0.64396 0.78709,-0.21465 0.35776,-0.0716 0.57242,-0.14312 1.00175,-0.14309 0.21466,0.0715 0.0716,0.0716 0.0716,0 0,0.0716 -0.0716,0 -0.0716,0 -0.0716,-0.0716 -0.0716,0 -0.21465,-0.21467"
       id="path44-9"
       inkscape:connector-curvature="0"
       style="fill:none;stroke:#000000;stroke-width:1.23431516" />
    <path
       d="m 85.362009,54.167883 0.0716,0.2862 0.0716,0.0716 0.0716,0 0.14313,-0.0716 1.14484,-1.43105 1.07329,-1.64572 1.35948,-2.21812 1.64574,-2.71902 1.50261,-2.43281 2.07504,-3.7923 0.78706,-1.28794 0.42935,-0.71556 0.0716,-0.0715 0.14308,0 0.21467,1.00172 0.28621,1.00175 0.2862,1.50263 0,1.71726 0.0716,1.71728 -0.0716,3.7923 -0.21466,1.43105 -0.14309,0.93018 -0.14312,0.64397 -0.35775,0.0716"
       id="path46-6"
       inkscape:connector-curvature="0"
       style="fill:none;stroke:#000000;stroke-width:1.23431516" />
    <path
       d="m 90.442259,45.724643 -0.0716,-0.14311 0,0 0.0716,0.0716 0.28622,0.0716 1.14484,0.1431 0.64398,0.28621 1.00173,0.14311 1.28796,0.14311 1.14485,0 2.07503,-0.0716"
       id="path48-7"
       inkscape:connector-curvature="0"
       style="fill:none;stroke:#000000;stroke-width:1.23431516" />
    <path
       d="m 106.25547,45.867733 0.0716,-0.21465 0,-0.28622 -0.0716,-0.28619 -0.0716,-0.14312 -1.07327,-0.57244 -0.7871,0 -1.00174,0.21469 -1.07331,0.5724 -0.93019,1.00174 -1.07327,2.2897 -0.14312,1.28795 0.14312,1.00174 0.64396,0.78707 0.85866,0.35777 1.6457,-0.1431 1.00173,-1.07327 1.14485,-1.64574 0.9302,-2.00345 0.50086,-1.86041 0.35777,-3.86386 0.1431,-1.6457 0.0716,-0.85864 -0.0716,-0.0716 0,0 -0.1431,1.43106 -0.1431,1.71728 -0.35777,1.86037 -0.42932,2.4328 -0.50086,2.14657 -0.64398,3.57765 0.0716,1.07331 0.14311,0.57243 0.35776,0 0.50086,-1.43105"
       id="path50-2"
       inkscape:connector-curvature="0"
       style="fill:none;stroke:#000000;stroke-width:1.23431516" />
    <path
       d="m 114.19784,45.295333 -0.42931,0.14309 -0.5009,0.14311 -0.57241,0.21466 -0.71552,0.35775 -1.2164,1.43107 -0.35778,0.78709 -0.21465,0.93019 0,0.93017 0.0716,0.71554 0.50087,0.93017 0.35778,0.0716 0.50085,-0.21466 1.00175,-0.71552 0.71553,-0.85864 1.14484,-1.21639 0.0716,-0.14309 0,0.0716 0,0.0716 -0.0716,0.21468 -0.2862,0.93015 -0.0716,0.57245 -0.14311,0.50085 -0.14312,0.42933 -0.0716,0.35776 0.64394,-0.42934"
       id="path52-4"
       inkscape:connector-curvature="0"
       style="fill:none;stroke:#000000;stroke-width:1.23431516" />
    <path
       d="m 117.05996,51.448873 -0.14311,0.2862 0,0.1431 0,0.0716 0,0 0.0716,-0.21466 0.28621,-0.2862 0.1431,-1.00174 0.64398,-0.93019 0.85864,-0.85864 1.43105,-1.6457 0.7871,-0.7871 0.71552,-0.50087 0.50086,-0.21468 0.28622,0.0716 0.21465,0.78708 -0.0716,0.85864 0.14312,1.28796 -0.0716,0.78707 -0.0716,0.21466 0.0716,0.1431 0.14312,-0.1431 0.21466,-0.57242 0.93018,-1.00176 1.14484,-1.14484 2.07505,-1.57415 0.57242,-0.28622 0.14312,0.14312 0.14308,0.1431 0.1431,0.64396 -0.21464,1.7888 -0.35777,0.93021 -0.21467,0.9302 -0.21464,0.71551 -0.14312,0.71555 -0.0716,0.50087 0,-0.0716 0.2862,-0.64398"
       id="path54-7"
       inkscape:connector-curvature="0"
       style="fill:none;stroke:#000000;stroke-width:1.23431516" />
    <path
       d="m 133.44559,50.804893 0,0.14311 0.0716,0.21465 -0.14308,0.28622 -0.21467,0.71551 -0.85864,1.78883 -0.21465,0.64398 -0.35778,0.64398 -0.14309,0.42932 -0.21466,0.28622 -0.28623,0.14309 -0.0716,-0.0716 -0.14312,-0.21465 -0.35778,-0.78707"
       id="path56-1"
       inkscape:connector-curvature="0"
       style="fill:none;stroke:#000000;stroke-width:1.23431516" />
    <path
       d="m 58.386529,62.825803 -0.0716,0.85863 -0.28622,1.28796 -0.57242,2.00348 -0.57242,2.14656 -1.43105,4.07856 -0.28623,1.43101 -0.57241,1.57418 -0.42934,1.14486 -0.21464,0.50086"
       id="path58-9"
       inkscape:connector-curvature="0"
       style="fill:none;stroke:#000000;stroke-width:1.23431516" />
    <path
       d="m 50.372619,64.757733 0,-0.0716 0.14309,-0.0716 0.21466,-0.0716 0.42932,0 1.3595,0 0.78709,0.0716 1.2164,0 1.28795,-0.14312 1.5026,-0.28621 3.29145,-1.57416 1.64572,-0.9302 1.2164,-0.78707 1.07329,-0.50087 0.71553,-0.14311 0.35777,0.14311 0,0.28622 0.0716,0.4293 0.0716,0.78708 0,1.00175 -0.21466,2.07504 -0.0716,1.28795 -0.21468,1.14484 -0.14311,1.2164 -0.2862,1.3595 -0.57242,2.07506 -0.0716,0.50087 0,0.0716 -0.0716,-0.0716 0,-0.0716 0.0716,-1.00175 0.21465,-0.78708 0.28622,-0.85862 0.78709,-1.43107 0.42931,-0.50087 1.35951,-0.78707 0.85863,0.0716 0.50087,0.14308 0.0716,0.2862 0.21466,0.7871 -0.1431,2.00346 -0.0716,1.0733 -0.2862,1.00176 -0.14312,0.71554 -0.0716,0.64396 -0.0716,0.50088 0.21467,-0.28622"
       id="path60-4"
       inkscape:connector-curvature="0"
       style="fill:none;stroke:#000000;stroke-width:1.23431516" />
    <path
       d="m 77.705839,69.122433 -0.64398,0 -0.50086,0.14313 -0.7871,0.14309 -0.78708,0.42933 -0.93019,1.21638 -0.21466,0.64398 0,0.57244 0.0716,0.71553 0.35777,0.71554 0.71553,0.35775 0.50087,-0.28623 0.57243,-0.57238 0.78707,-1.00177 0.57242,-1.00174 0.28622,-0.5724 0,0 0,0.1431 0,0.35775 -0.0716,0.57241 -0.21467,1.28797 -0.0716,0.2862 0,0.28623 0,0.0716 0.14311,-0.14309"
       id="path62-3"
       inkscape:connector-curvature="0"
       style="fill:none;stroke:#000000;stroke-width:1.23431516" />
    <path
       d="m 80.067079,73.773373 -0.21466,0.42935 -0.14309,0.21465 0.0716,0.0716 0,0.0716 0.21466,-0.28623 0.21466,-0.5724 0.57242,-0.85865 0.71556,-0.93018 0.93015,-0.93018 1.78884,-1.43108 0.64396,-0.14311 0.28623,0.14311 0.14309,0.42932 0.0716,1.00176 -0.35778,2.14658 -0.14309,0.78708 -0.0716,0.50087 0,0.14311 0.28619,-0.42932"
       id="path64-2"
       inkscape:connector-curvature="0"
       style="fill:none;stroke:#000000;stroke-width:1.23431516" />
    <path
       d="m 91.873319,65.759463 0.0716,0.14311 0.0716,0.35776 -0.21466,0.71554 -0.21465,0.85862 -1.00175,2.43281 -0.28621,1.14485 -0.14311,0.71551 0.0716,0.64401 0.0716,0.21464 0.21468,0.21468 0.0716,-0.0716 0.21466,-0.0716 0.0716,-0.14311 0.14309,-0.14309 0.85864,-1.00176 0.42933,-0.57243 0.57243,-0.71553 0.85861,-0.78707 0.57243,-0.64398 0.9302,-0.71554 0.28619,-0.0716 0.14312,0.14312 -0.0716,0.21466 -0.28623,0.35777"
       id="path66-2"
       inkscape:connector-curvature="0"
       style="fill:none;stroke:#000000;stroke-width:1.23431516" />
    <path
       d="m 94.377669,70.195743 0.1431,0.35776 0.0716,0.42933 0.0716,0.78708 0.0716,0.28622 0.21468,0.64395 0.14309,0.21468 0.28621,0.28623 0.21468,0.0716 0.57242,-0.1431"
       id="path68-8"
       inkscape:connector-curvature="0"
       style="fill:none;stroke:#000000;stroke-width:1.23431516" />
    <path
       d="m 101.24677,70.195743 -0.14312,0.0716 -0.14311,0.0716 -0.28621,-0.0716 -0.21465,0 -0.28622,0 -0.357761,0 -0.28622,0.14308 -0.2862,0.28622 -0.14311,0.93021 0,1.3595 0,0.93018 0.0716,0.85864 0.14313,0.71554 0.1431,0.5724 0.14309,0.50086 0,0.0716 -0.0716,0 -0.0716,-0.0716 -0.21466,-0.0716 -1.21641,-0.71555 -0.57242,-0.50085 -0.50086,-0.57242 -0.21467,-0.0716"
       id="path70-4"
       inkscape:connector-curvature="0"
       style="fill:none;stroke:#000000;stroke-width:1.23431516" />
    <path
       d="m 132.58695,61.680943 0,-0.85864 -0.28623,-0.64398 -0.50086,-0.35775 -0.35775,-0.0716 -1.35952,0.78709 -0.85863,1.5026 -1.00176,2.21815 -1.07327,2.79056 -0.85864,2.86209 -1.14485,4.36474 -0.28622,1.28796 -0.21466,0.7871 -0.1431,0.1431"
       id="path72-0"
       inkscape:connector-curvature="0"
       style="fill:none;stroke:#000000;stroke-width:1.23431516" />
    <path
       d="m 122.85573,70.982833 0.0716,-0.35775 0.14311,-0.2147 0.35775,-0.21464 0.57243,-0.14311 1.93194,0.21467 0.93019,0.0716 1.07329,0.21465 1.14485,0.28623 1.2164,0.35775 1.71727,0.35775 0.71553,0.0716 0.2862,0.0716 0.0716,0.0716 -0.0716,0.0716 -0.64397,0.64401 -0.78708,0.71554 -0.71553,0.85862 -0.42931,0.85865 0.0716,0.57242 0.71554,0.85863 1.00176,0.28623 1.6457,0 1.93193,-1.35953 0.50087,-0.93018 0,-1.14484 -0.21465,-0.35779 -0.35778,-0.28619 -0.42932,-0.14312 -0.4293,-0.0716 -0.93018,0.28622 -0.0716,0.14313"
       id="path74-9"
       inkscape:connector-curvature="0"
       style="fill:none;stroke:#000000;stroke-width:1.23431516" />
    <path
       d="m 137.23789,76.349303 -0.0716,0.5724 -0.0716,0.35778 -0.0715,0.21465 -0.0716,0 -0.1431,-0.42932 0.1431,-0.5724 0,-0.57245 0.28621,-0.93017 0.4293,-0.93019 0.71555,-1.00173 0.0716,-0.14311 0.21466,-0.14309 0.35776,-0.14314 0.57242,-0.14309 1.21641,-0.0716 0.42932,0.0716 0.57242,0 1.00176,0.0716 1.64571,-0.28622"
       id="path76-9"
       inkscape:connector-curvature="0"
       style="fill:none;stroke:#000000;stroke-width:1.23431516" />
    <path
       d="m 166.28839,70.768183 0.14311,0 0.0715,0.14308 0.21466,0.21467 0.42932,0.42931 1.2164,1.64575 0.57243,1.00173 0.57243,0.85863 0.4293,0.64397 0.35777,0.50086 0.50086,0.0716"
       id="path78-1"
       inkscape:connector-curvature="0"
       style="fill:none;stroke:#000000;stroke-width:1.23431516" />
    <path
       d="m 173.37211,72.986313 -0.50086,1.07329 -0.71553,1.2164 -0.71554,1.35953 -0.93017,1.71724 -1.35952,3.07678 -0.57241,1.35952 -0.28622,1.14484 -0.14311,0.50087 0,0.0716 0.64398,-1.28793"
       id="path80-1"
       inkscape:connector-curvature="0"
       style="fill:none;stroke:#000000;stroke-width:1.23431516" />
    <path
       d="m 180.38431,71.626813 -0.14308,0.0716 -0.28623,0.35779 -0.42934,0.57241 -0.42932,0.71553 -0.0716,1.2164 0.2862,0.28623 0.85865,0.35775 1.21636,-0.0716 1.78886,-0.64398 2.57588,-1.78883 0.21472,-0.64394 -0.0716,-0.35779 -0.42934,-0.21466 -1.00177,-0.2862 -2.79054,0.1431 -1.35951,0.28623 -0.93019,0.5724 -0.35776,0.14311 0,0.35775"
       id="path82-9"
       inkscape:connector-curvature="0"
       style="fill:none;stroke:#000000;stroke-width:1.23431516" />
    <path
       d="m 187.68269,71.698343 0.0716,0.1431 0.0716,0.14313 0.14306,0.21465 0,0.28622 0,0.28623 0.0716,0.21464 0.0716,0.35776 -0.0716,0.21467 0.1431,0.35775 0.3578,1.00176 0.0716,0.1431 0.21462,0.2862 0.28621,0.14313 0.50087,0.21464 1.14486,-0.28622 0.71554,-0.42931 0.71551,-0.57242 0.35774,-0.644 0.21471,-0.64395 0.21463,-1.35951 0.0716,-0.42932 -0.14308,-0.14311 -0.35781,-0.0716 -0.57238,0.14312"
       id="path84-2"
       inkscape:connector-curvature="0"
       style="fill:none;stroke:#000000;stroke-width:1.23431516" />
    <path
       d="m 195.6966,76.492413 0.0716,0.0716 0,-0.14311 0,-0.28618 0.0716,-0.42932 0.28623,-1.3595 0.2147,-0.57245 0.21463,-0.71551 0.14312,-0.35779 0.28619,-0.4293 0.50088,-0.50087 0.21466,0 0.0716,-0.0716 0.21465,0 0.64402,0.0716 1.35945,0 0.57245,0 0.71554,-0.21467 0.71551,-0.35776 0.35778,-0.50087"
       id="path86-2"
       inkscape:connector-curvature="0"
       style="fill:none;stroke:#000000;stroke-width:1.23431516" />
    <path
       d="m 229.18341,65.187033 -0.1431,-0.1431 -0.14309,-0.1431 -0.14311,-0.1431 -0.42932,-0.14311 -1.28797,0.50086 -1.00174,0.35775 -1.14484,0.21466 -1.0733,0.42932 -0.78706,0.57245 0,0.71551 0.35776,0.71552 0.7155,0.93021 1.21642,1.0733 1.21639,1.07328 1.35953,1.86039 0.14308,1.00173 -0.21465,0.64399 -0.42934,0.50086 -0.93014,0.5724 -2.79059,0.21467 -1.43106,-0.21467 -1.2164,-0.5724 -1.00173,-0.57245 -0.71555,-0.78706 0.42931,-2.50435"
       id="path88"
       inkscape:connector-curvature="0"
       style="fill:none;stroke:#000000;stroke-width:1.23431516" />
    <path
       d="m 227.60925,61.108513 0.0716,0.0716 0,0 0,0.0716 -0.0716,0.14311 -0.21468,0.71552 -0.21464,0.85865 -0.28621,1.57416 -0.57242,1.93194 -0.71555,2.43279 -1.71724,5.08023 -0.78707,2.2897 -0.35778,1.7173 -0.35778,1.3595 -0.21466,1.00176 -0.21464,0.28617 0,-0.0716 -0.0716,-0.35775 0.0716,-0.7871 0,-1.2164"
       id="path90"
       inkscape:connector-curvature="0"
       style="fill:none;stroke:#000000;stroke-width:1.23431516" />
    <path
       d="m 229.25498,59.963663 0.0715,0 0.0716,0 0.0716,0.0716 0,0.21465 -0.0716,1.00173 -0.21466,0.78709 -0.50088,1.5026 -0.64398,1.8604 -0.64399,1.93191 -1.14484,4.36472 -0.5724,2.43282 -0.57245,2.00349 -0.28619,1.78881 -0.14309,1.21641 -0.0716,1.71728 0,0.1431 0,0 0,0 0.0716,0 0,-0.71555 0.14309,-0.78708 0.14312,-0.64398"
       id="path92"
       inkscape:connector-curvature="0"
       style="fill:none;stroke:#000000;stroke-width:1.23431516" />
    <path
       d="m 241.20431,65.544793 0.14308,-0.21465 0.0716,0.0716 0,0.0716 0.14312,0.14312 0.50087,1.57418 0.4293,1.64572 0.42932,1.78883 0.50087,1.6457 0.71551,1.64571 1.07335,2.14658 0.50083,0.71555 0.35775,0.35775 0.14312,0.14311 0.0716,-0.0716"
       id="path94"
       inkscape:connector-curvature="0"
       style="fill:none;stroke:#000000;stroke-width:1.23431516" />
    <path
       d="m 247.93031,66.975873 0.2862,0 0.28619,0.0716 0.14312,-0.0716 0,0 0.21465,0.21467 -0.0716,0 0,0.14308 -0.1431,0.2862 -0.28622,0.35775 -1.14485,1.07333 -2.00344,2.28969 -1.21641,1.43108 -0.9302,0.78707 -0.50088,0.64398 -0.71554,0.85863 -0.28619,0.21465 -0.0716,0.0716 -0.14313,-0.0716 0,-0.0716 0.14313,-1.28795"
       id="path96"
       inkscape:connector-curvature="0"
       style="fill:none;stroke:#000000;stroke-width:1.23431516" />
    <path
       d="m 250.07687,66.689663 0.14312,-0.1431 0.21464,-0.0716 0.0716,-0.0716 0.0716,0 0,0.0716 0,0.14309 0.0716,0.28623 0.21468,0.35775 0.2862,0.93021 1.07329,2.86209 0.64398,1.57417 0.7871,1.57418 0.64395,1.00174 0.64398,0.93019 1.0733,1.71725 0.42931,0.42934 0.35778,0.1431 0.28622,-0.1431 0.2862,-0.7871"
       id="path98"
       inkscape:connector-curvature="0"
       style="fill:none;stroke:#000000;stroke-width:1.23431516" />
    <path
       d="m 258.30549,68.621583 -0.42934,0.28621 -0.50087,0.35777 -0.85863,0.85864 -1.07331,0.93016 -2.71901,2.57591 -0.71552,0.64398 -0.71553,0.644 -0.57243,0.35775 -0.28622,0.21468 -0.21464,0.0716 0,-0.0716 0,-0.0716 0.0716,-0.21465"
       id="path100"
       inkscape:connector-curvature="0"
       style="fill:none;stroke:#000000;stroke-width:1.23431516" />
    <path
       d="m 261.74002,67.047423 0,0.14312 0.0716,0.0716 0.0716,0.28622 0.14307,0.5724 0.35779,1.86039 0.35775,1.07329 0.42931,0.9302 0.2862,0.93019 0.42933,0.71551 0.7871,1.28798 0.42931,0.2862 0.2862,0.1431 0.28623,-0.0716"
       id="path102"
       inkscape:connector-curvature="0"
       style="fill:none;stroke:#000000;stroke-width:1.23431516" />
    <path
       d="m 267.67887,67.118973 -0.14308,0 -0.0716,0.0716 -0.0716,0.0716 -0.21463,0.35776 -1.07328,1.57418 -0.9302,1.14485 -0.93021,1.35949 -1.35948,1.35952 -1.00174,0.93016 -2.7906,2.43281 -0.42928,0.28622 -0.0716,0.0716 0,-0.0716 0,-0.0716 0.21467,-0.28622 0.21467,-0.42935 0.71551,-0.42928"
       id="path104"
       inkscape:connector-curvature="0"
       style="fill:none;stroke:#000000;stroke-width:1.23431516" />
    <path
       d="m 270.2548,67.476733 0.14311,0.0716 0.0716,0 -0.0716,0.0716 0.14312,0.50087 0.57241,1.64571 0.35779,1.28796 0.35776,1.0733 0.4293,1.00176 0.2862,1.07329 1.0733,2.43281 0.28619,0.50085 0.14312,0.14311 0.2147,-0.0716"
       id="path106"
       inkscape:connector-curvature="0"
       style="fill:none;stroke:#000000;stroke-width:1.23431516" />
    <path
       d="m 278.26872,69.694883 -0.21464,-0.42932 -0.14312,-0.0716 -0.35775,-0.0716 -0.0716,0 -1.64573,2.0035 -1.07327,1.14485 -1.14485,1.21639 -1.3595,1.14483 -0.93018,0.7871 -1.93194,1.21643 -0.78707,0.50085 -0.50089,0.1431 -0.14309,0.0716 -0.14312,0 -0.0716,-0.0716 0.0716,-0.1431"
       id="path108"
       inkscape:connector-curvature="0"
       style="fill:none;stroke:#000000;stroke-width:1.23431516" />
    <path
       d="m 51.016599,92.305603 -0.21467,1.14486 -0.35777,1.28794 -0.35775,1.21639 -0.50089,1.21642 -1.14484,2.64745 -0.14311,0.0716"
       id="path172-4"
       inkscape:connector-curvature="0"
       style="fill:none;stroke:#000000;stroke-width:1.23431516" />
    <path
       d="m 52.161439,87.583103 -0.0716,0.14311 0.21466,0.0716 0.21464,0.21467 0.35778,0.28618 1.57416,0.71557"
       id="path174-7"
       inkscape:connector-curvature="0"
       style="fill:none;stroke:#000000;stroke-width:1.23431516" />
    <path
       d="m 60.819339,89.872793 0,0.0716 -0.21466,0.21466 -0.21466,0.1431 -0.28621,0.14312 -2.00348,0.71553 -1.0733,0.57242 -0.71552,0.50086 -0.28622,0.21465 -0.0716,0.21466 0.35777,0.64399 0.50087,0.64396 0.64398,0.85864 0.2862,1.0733 0.0716,1.21641 -0.64399,1.57415 -0.35776,0.28621 -0.50086,0.28627 -0.64398,0 -0.71554,-0.0716 -0.78709,-0.42935 -0.21463,-0.28619 -0.14312,-0.21468 0.0716,-0.21466 0.21467,-0.21467"
       id="path176-0"
       inkscape:connector-curvature="0"
       style="fill:none;stroke:#000000;stroke-width:1.23431516" />
    <path
       d="m 86.149089,85.293423 0.0716,0.35776 -0.1431,1.21641 -1.21641,4.00695 -1.00173,2.79056 -1.71728,4.2932 -0.28619,1.14485 -0.21468,0.78707 -0.0716,0.0716 0,-0.0716 0.21464,-0.78707 0.57243,-1.57418 0.93018,-1.64573 1.07331,-1.35949 1.21638,-1.07329 2.50438,-0.71554 0.78706,0.21465 0.42932,0.85864 0.14311,1.00173 -0.0716,1.00175 -0.35775,1.86042 -0.57243,0.64394 -0.35776,0.35776 -0.28622,0.0716"
       id="path178-3"
       inkscape:connector-curvature="0"
       style="fill:none;stroke:#000000;stroke-width:1.23431516" />
    <path
       d="m 90.227589,97.600533 0.64399,-0.21468 0.57242,-0.28619 0.50088,-0.57244 0.85863,-0.50086 1.50259,-1.50261 0.64399,-0.9302 0.42932,-0.71551 -0.14309,-0.21468 -0.35778,0.0716 -2.14658,1.64571 -1.28796,1.28797 -1.07329,1.57414 -0.50087,0.85865 -0.0716,0.71553 0.50086,0.71553 0.78708,0 1.14484,-0.71553 1.43106,-1.00176 1.35952,-1.21639"
       id="path180-7"
       inkscape:connector-curvature="0"
       style="fill:none;stroke:#000000;stroke-width:1.23431516" />
    <path
       d="m 102.17695,88.012433 0.0716,0.0716 0.0716,0.14311 0.0716,0.42934 0,0.64396 -0.85864,3.29144 -0.57243,1.93193 -0.42931,1.64568 -0.50087,1.50268 -0.500881,1.28791 -0.35777,1.073267 0.0716,-0.0715 0.35775,-0.50088"
       id="path182-4"
       inkscape:connector-curvature="0"
       style="fill:none;stroke:#000000;stroke-width:1.23431516" />
    <path
       d="m 103.82266,97.672113 -0.85862,2.0034 -1.00175,1.717317 -0.85864,1.43106 -0.50086,1.14483 -0.28623,0.71553 0,0 0.14312,-0.42929 0.42931,-1.00177 0.71553,-1.21642 1.71728,-3.076747 0.93018,-1.64573 1.0733,-1.21636 1.35949,-1.28799 1.57416,-1.00173 2.36126,-0.71551 0.50088,0.1431 0.1431,0.4293 -0.1431,0.71554 -0.35777,0.64397 -2.28971,1.57416 -0.78707,0.0716 -0.78709,0.0715 -0.71553,0 0.0716,-0.14309"
       id="path184-4"
       inkscape:connector-curvature="0"
       style="fill:none;stroke:#000000;stroke-width:1.23431516" />
    <path
       d="m 115.62888,94.881513 -0.42931,0.7871 -0.57242,0.85861 -0.85862,1.00175 -0.57244,0.35775 -0.0716,0.35778 -0.0716,0 0.0716,-0.21466 0.57243,-0.85863"
       id="path186-6"
       inkscape:connector-curvature="0"
       style="fill:none;stroke:#000000;stroke-width:1.23431516" />
    <path
       d="m 117.48928,97.528973 -0.21466,0.50087 -0.14312,0.28621 0,0.21465 0,0 0.0716,0.0716 0.0716,-0.0716 0.21466,-0.2862 0.42931,-0.64397 0.78708,-1.00176 1.50263,-1.28792 0.78706,-0.42934 0.57243,-0.14311 0.28621,0.14311 0.21467,0.42934 -0.28622,2.075 -0.14312,0.42932 -0.14308,0.35775 -0.0716,0.14313 0.28621,0.0716"
       id="path188-4"
       inkscape:connector-curvature="0"
       style="fill:none;stroke:#000000;stroke-width:1.23431516" />
    <path
       d="m 127.72134,95.310853 -0.21466,0.0715 -0.42932,0.0716 -0.71553,0.2147 -0.50087,0.35775 -1.43104,0.85867 -0.35778,0.50082 -0.14311,0.14312 0,0.0716 0.0716,0 0.28623,-0.14312 0.71553,-0.42932 0.71551,-0.28623 0.50089,0.14316 0.28619,0.35772 0.28623,2.21816 -0.28623,1.717277 -0.50086,1.71725 -0.50088,1.50259 -0.64397,1.35955 -1.43106,1.78881 -0.85863,0.14314 -1.07329,0 -1.00175,-0.35778 -0.85862,-0.78709 0.0716,-1.28796 0.71552,-1.00173 1.21639,-1.00177 1.21641,-0.85863 1.57418,-0.5724 2.4328,-0.93021 0.93018,-0.35775 0.78709,-0.35779 0.85862,-0.572387 0.35778,-0.85865"
       id="path190-4"
       inkscape:connector-curvature="0"
       style="fill:none;stroke:#000000;stroke-width:1.23431516" />
    <path
       d="m 124.21526,89.443463 -0.0716,-0.0716 0,0.0716 0,-0.0716 -0.0716,0 -0.14311,0 -0.57243,-0.21465"
       id="path192-8"
       inkscape:connector-curvature="0"
       style="fill:none;stroke:#000000;stroke-width:1.23431516" />
    <path
       d="m 160.34947,92.162503 -0.0715,0.71554 -0.35779,1.00173 -0.42931,1.35952 -0.21465,1.28793 -0.28622,1.78883 0.21464,0.42932 0.21468,0.14311 0.28621,0 0.42932,-0.21467 2.07503,-1.57415 0.64398,-0.7871 0.14312,-0.78707 0.35775,-0.50088 0.35778,-0.35775 0.64398,-0.5009"
       id="path194-6"
       inkscape:connector-curvature="0"
       style="fill:none;stroke:#000000;stroke-width:1.23431516" />
    <path
       d="m 168.72118,92.878043 0.0716,-0.0716 0.0716,0 0,0 0,0.0716 -0.2862,0.14308 -0.42933,0.28623 -0.5724,0.21467 -0.42935,0.28619 -0.35775,0.42932 -0.35776,0.57241 -0.0716,0.5724 0,0.78709 0,0.85866 0,1.0733 -0.1431,1.71727 -0.0716,0.357747 -0.0716,0.21469 -0.21466,0.0715 -0.50088,0 -1.21638,-0.715497 -0.93018,-0.64395 -0.78708,-0.64397 -0.7871,-0.42935 -0.64398,-0.21467"
       id="path196-9"
       inkscape:connector-curvature="0"
       style="fill:none;stroke:#000000;stroke-width:1.23431516" />
    <path
       d="m 192.69142,85.722743 0,0.35776 -0.0716,1.00175 -0.35776,1.35948 -0.5724,1.71729 -1.14481,3.43453 -0.42937,1.57418 -0.64402,1.28795 -0.57236,0.93017 -0.42933,0.35775"
       id="path198-5"
       inkscape:connector-curvature="0"
       style="fill:none;stroke:#000000;stroke-width:1.23431516" />
    <path
       d="m 185.89392,92.377133 -0.14316,-0.14308 0,-0.0716 0.14316,0 0.42928,0 1.93198,0.0716 1.93189,0.21465 1.93197,0.21466 1.71723,0.21468 1.43105,0.28619 1.64571,1.0733 -0.21463,0.50087 -0.7871,0.78709 -0.71553,0.64394 -0.85863,0.7871 -0.50087,0.78707 0.0716,0.14312 0.0715,0.14312 0.21466,0.21466 0.7155,0.14312 1.86043,-0.28623 1.07327,-0.71554 0.7871,-0.64398 0.21463,-0.57244 -0.0716,-0.57239 -0.64394,-0.64398 -0.64398,-0.0716 -0.93019,0.14311 -1.00173,0.42929 -0.71551,0.57245"
       id="path200-8"
       inkscape:connector-curvature="0"
       style="fill:none;stroke:#000000;stroke-width:1.23431516" />
    <path
       d="m 233.90593,84.577903 -0.28623,1.07328 -0.64398,1.43107 -0.85862,2.14658 -0.7871,2.28969 -2.14659,4.43627 -0.93018,1.71732 -0.50086,1.21637 -0.28624,0.71554 -0.0716,0.21464"
       id="path202-8"
       inkscape:connector-curvature="0"
       style="fill:none;stroke:#000000;stroke-width:1.23431516" />
    <path
       d="m 225.17644,92.734923 0.0716,0 0.0716,0 0.28619,0.0716 0.42933,0.1431 1.64573,0.42933 0.85865,0.0716 1.14485,0.0716 1.28791,0 1.28796,0 2.57592,0.14308 1.21641,0.14311 0.93018,0.21467 0.57242,0.28618"
       id="path204-8"
       inkscape:connector-curvature="0"
       style="fill:none;stroke:#000000;stroke-width:1.23431516" />
    <path
       d="m 236.69649,98.888483 -0.35779,0.3578 -0.28619,0.0715 0,0 0,-0.14307 0.28619,-1.07332 0.42932,-0.71555 0.35775,-0.57241 0.57245,-0.71551 0.71554,-0.64401 1.28794,-0.85863 0.93018,-0.50086 2.14661,-0.42932 0.71551,0 0.5009,0.0716 0.21464,0.42931 -0.0716,0.0716 -0.50083,0.85862 -0.50087,0.64401 -0.21468,0.35776 -0.64395,1.14482 0,0.28622 0.21463,0.2862 0.0716,0 0.14312,-0.0716 0.71551,-0.4293 0.42933,-0.35777 0.50088,-0.35775 0.14309,-0.0716 0,-0.0716 0,0.21466 -0.0716,0.28619 -0.0716,0.14313 -0.0716,0.21463 0,0.21467 0,0.14315"
       id="path206-2"
       inkscape:connector-curvature="0"
       style="fill:none;stroke:#000000;stroke-width:1.23431516" />
    <path
       d="m 247.42943,98.387623 -0.0716,0.35775 -0.0716,0.14311 0.14312,0.14309 0.0716,0 0.14308,-0.14309 0.21467,-0.28622 0.42933,-0.57242 0.5724,-0.71555 0.71554,-0.85861 0.93021,-1.07334 0.71551,-0.28618 0.64396,-0.1431 0.14313,0.0716 0.50087,0.21467 0.50086,0.85864 0.14312,0.64394 0.14312,0.50088 -0.0716,0.42937 0.0716,0.14305"
       id="path208-7"
       inkscape:connector-curvature="0"
       style="fill:none;stroke:#000000;stroke-width:1.23431516" />
    <path
       d="m 259.52188,95.382343 -0.14312,-0.21461 -0.21467,-0.0716 -0.2862,-0.0716 -0.28623,0 -1.07326,0 -0.35775,0.14312 -0.14312,0.14312 -0.14312,0.28619 -0.0716,0.64395 -0.0716,1.43112 -0.21465,0.50081 -0.28623,0.57245 -0.35775,0.35778 -0.42933,0.2862 -0.93019,0.0716 -0.64398,-0.28619 -0.64397,-0.42934 -0.42929,-0.57245 -0.0716,-0.64396"
       id="path210-1"
       inkscape:connector-curvature="0"
       style="fill:none;stroke:#000000;stroke-width:1.23431516" />
    <path
       d="m 272.18674,88.298613 -0.71551,-0.78704 -0.9302,-0.50089 -0.85865,-0.14309 -0.78708,0.0716 -2.0035,1.78883 -1.28793,1.78882 -1.21641,2.21815 -0.9302,2.07502 -0.64396,1.8604 -0.50087,2.79056 0.0716,0.572387 0.0716,0.28624 0.0716,0 0.14307,-0.572427"
       id="path212-9"
       inkscape:connector-curvature="0"
       style="fill:none;stroke:#000000;stroke-width:1.23431516" />
    <path
       d="m 261.09606,96.312563 -0.35779,-0.50087 -0.0716,-0.21465 0.0716,-0.2147 0.35779,-0.0715 1.64569,-0.14312 0.9302,-0.0716 0.85863,0.2147 0.93018,0.35776 1.43104,0.14308 2.2897,0.50087 0.7871,0.14312 0.21466,0.28619 -0.0716,0.35779 -0.35775,0.64394 -1.00173,1.43111 -0.21468,0.42931 0,0.35777 0.14311,0.286187 0.21467,0.14311 0.71551,-0.14311 0.7871,-0.500877 0.64399,-0.71553 0.50088,-0.85865 0.14309,-0.78707 -0.42934,-1.21642 -0.4293,-0.50082 -0.2862,-0.28627 -0.35777,0 -0.28621,0.28627"
       id="path214-0"
       inkscape:connector-curvature="0"
       style="fill:none;stroke:#000000;stroke-width:1.23431516" />
    <path
       d="m 273.90398,100.3911 0.14312,0 0,-0.0716 0,-0.28624 0,-0.357777 0.35779,-1.57412 0.42931,-1.00174 0.57245,-0.93023 1.07326,-0.21463 0.71555,-0.64394 1.71724,-0.71557 0.644,0 0.42932,0.21466"
       id="path216-1"
       inkscape:connector-curvature="0"
       style="fill:none;stroke:#000000;stroke-width:1.23431516" />
    <path
       d="m 278.48341,100.4626 -0.21469,0.21471 -0.0716,0.14308 0,0.0716 0.1431,-0.0716 0.5724,-0.930167 0.93021,-1.00174 0.85863,-1.00176 0.71554,-1.07329 0.78709,-1.07327 0.78707,-1.35952 0.42933,-0.35776 0,0.21465 -0.14313,0.57241 -0.2862,0.93022 -0.35777,1.64569 0.14312,0.28626 0.0716,0 0.42932,0.0715 0.71556,-0.42931 1.57413,-1.00173 0.42934,-0.14313 0.0716,0 0,0.14313 -0.14312,0.28621 -0.42927,1.21639 -0.14312,0.71554 0,0.57245 -0.0716,0.57236 0.14312,0.28628"
       id="path218-2"
       inkscape:connector-curvature="0"
       style="fill:none;stroke:#000000;stroke-width:1.23431516" />
    <path
       d="m 46.222539,107.83258 0.14311,0.14311 0.0716,0.42932 0,1.00173 -0.14311,1.50257 -0.71553,4.15016 -0.50087,1.57419 -0.57243,1.57412 -0.1431,0.93018 -0.14311,0.71551 -0.35775,0.50093 -0.0716,-0.21473"
       id="path288-5"
       inkscape:connector-curvature="0"
       style="fill:none;stroke:#000000;stroke-width:1.23431516" />
    <path
       d="m 49.728629,115.70342 0,0.14314 0,0.42923 0,0.57248 -0.0716,0.78708 0.0716,2.07501 -0.0716,0.85868 0.0716,0.64393 0,0.28625 0.0716,0.14305 0.1431,-0.78703"
       id="path290-7"
       inkscape:connector-curvature="0"
       style="fill:none;stroke:#000000;stroke-width:1.23431516" />
    <path
       d="m 52.590739,113.41372 0.14311,0.50089 0.0716,0.71551 0.35777,0.7871 0.35778,1.0017 1.00173,2.57593 0.57241,1.28797 0.42932,0.78709 0.42932,0.35773 0.1431,0.14313 0.35779,0 0.2862,-0.28623 0.50086,-0.57241 0.64398,-1.00177 0.71554,-1.07327 0.57242,-1.43107 0.57242,-0.7871 0.64398,-0.78707 0.57241,-0.35775 0.64398,-0.28619"
       id="path292-0"
       inkscape:connector-curvature="0"
       style="fill:none;stroke:#000000;stroke-width:1.23431516" />
    <path
       d="m 64.039209,116.77671 -0.21464,1.00176 -0.35777,1.14482 -0.35778,0.78707 -0.2862,0.71553 -0.57242,1.07333 0.0716,-0.21468"
       id="path294-3"
       inkscape:connector-curvature="0"
       style="fill:none;stroke:#000000;stroke-width:1.23431516" />
    <path
       d="m 66.972899,119.6388 0.0716,0.42935 0.0716,0.50089 0.0716,0.50087 0,0.71551 0.0716,0.50086 0,0 0,0 0.14308,-0.0716 0,-0.21466 0.42933,-1.71724 0.50087,-0.93023 0.64397,-0.93018 0.85863,-0.71552 1.00176,-0.50087 2.28969,0.50087 0.35775,1.28796 0,0.7155 -0.14311,0.64404 -0.21464,0.50084 -0.28622,0.28616 0.21466,-0.35772"
       id="path296-9"
       inkscape:connector-curvature="0"
       style="fill:none;stroke:#000000;stroke-width:1.23431516" />
    <path
       d="m 78.492919,118.49398 -0.28622,0.14311 -0.71552,0.21463 -0.71552,0.35777 -0.93021,0.64398 -1.00173,0.9302 -0.14311,0.7871 0.0716,0.21465 0.21465,0.28622 0.57243,0.21464 1.28794,-0.21464 0.50089,0.0716 0.4293,0.21464 0.2862,0.7871 0.35777,1.07325 -0.42931,3.14833 -0.35775,1.64575 -0.28621,1.35948 -0.50089,1.00174 -0.57242,0.71557 -1.43105,0.21467 -0.50087,-0.42937 -0.71553,-0.93018 -0.0716,-0.71551 0.14311,-0.71553 1.43105,-1.64575 0.93019,-0.93014 0.93019,-1.00175 1.14484,-1.14488 1.07329,-1.43103"
       id="path298-0"
       inkscape:connector-curvature="0"
       style="fill:none;stroke:#000000;stroke-width:1.23431516" />
    <path
       d="m 74.557499,110.62317 0,0.0716 0,0.0716 0,0 0.0716,0.0716 0.50086,0.35779 0.42932,-0.2863"
       id="path300-8"
       inkscape:connector-curvature="0"
       style="fill:none;stroke:#000000;stroke-width:1.23431516" />
    <path
       d="m 109.8331,110.98093 0.0716,0.0716 0,0.0716 0,0.21463 -0.21467,0.71551 -1.2164,3.07679 -0.71551,1.93191 -0.64399,1.78883 -0.42932,1.50268 -0.21465,1.07324 -0.14312,0.85864 0.0716,0 0.0716,-0.28621"
       id="path302-0"
       inkscape:connector-curvature="0"
       style="fill:none;stroke:#000000;stroke-width:1.23431516" />
    <path
       d="m 110.69174,119.85347 0.0716,0.21468 0.0716,0.14311 0.14311,0.0716 0.28623,-0.0716 2.14658,-0.57246 1.57416,-0.71551 1.43105,-0.78709 1.07331,-0.71554 0.64397,-0.57239 0,-0.64398 -0.35775,-0.21467 -0.71554,0 -1.00174,0.28617 -1.21641,0.64401 -2.21814,1.71729 -0.64396,0.7155 -0.57244,1.00181 -0.14309,0.787 0.0716,0.7871 1.35949,0.64402 1.21641,-0.21468 1.57416,-0.71557"
       id="path304-9"
       inkscape:connector-curvature="0"
       style="fill:none;stroke:#000000;stroke-width:1.23431516" />
    <path
       d="m 124.07214,118.35086 -0.42932,0.28623 -0.71552,0.21463 -0.85863,0.28624 -0.71553,0.2862 -1.0733,0.7871 -0.21467,0.50087 -0.28621,0.71551 -0.14309,0.644 -0.0716,0.50088 0.14311,0.4293 0.21466,0 0.35777,-0.1431 0.64398,-0.50088 1.07328,-0.78707 1.50262,-1.07331 0.14309,-0.14306 0.0716,0 0,0.0715 0,0.0716 -0.14311,0.50089 0.0716,0.2862 -0.0716,0.14309 0,0.14313 0,0 0.14311,0.28622 0.21465,0.0715"
       id="path306-0"
       inkscape:connector-curvature="0"
       style="fill:none;stroke:#000000;stroke-width:1.23431516" />
    <path
       d="m 127.00581,122.57252 0,-0.21468 0,-0.35778 0.14312,-0.35779 0.14309,-0.28616 0.35777,-0.35777 0.21466,-0.0716 0.1431,-0.0716 0.14311,-0.1431 0.21465,-0.28624 0.21467,-0.28622 0.0716,-0.0715 0,0 0,0 0,0 0.0716,0 0,0 0.0716,0 0.0716,-0.0716 0.21467,-0.14312 1.07329,-0.71551 0.64398,-0.35774 0.57242,-0.28624 0.50087,-0.21463 0.57242,-0.14315 1.07329,-0.21467 0.35778,-0.14306"
       id="path308-5"
       inkscape:connector-curvature="0"
       style="fill:none;stroke:#000000;stroke-width:1.23431516" />
    <path
       d="m 135.16284,120.78367 -0.21467,0.57244 -0.35775,0.64395 -0.0716,0.21466 -0.0716,0.21465 0,0.0716 0.14309,-0.1431 0.14311,-0.35778 0.28622,-0.57243 0.64398,-0.7871 1.14485,-1.07323 0.64398,-0.50088 0.50085,-0.0716 0.42933,-0.0716 0.1431,0.14315 0.21467,1.00172 0,0.35774 0.0716,0.28624 0,0.35778 0.1431,0.0715"
       id="path310-6"
       inkscape:connector-curvature="0"
       style="fill:none;stroke:#000000;stroke-width:1.23431516" />
    <path
       d="m 142.31815,120.06815 -0.0716,0.50089 -0.21467,0.7155 -0.2862,0.71552 -0.42933,0.71553 -0.42931,0.57243 -0.14312,0.21464 -0.1431,-0.14306 -0.0716,-0.78708"
       id="path312-2"
       inkscape:connector-curvature="0"
       style="fill:none;stroke:#000000;stroke-width:1.23431516" />
    <path
       d="m 146.25355,121.57077 0,0.28621 -0.0716,0.28623 0.0716,0 0.0716,-0.0716 0.28621,-0.28623 0.14309,-0.21464 0.35778,-0.0716 0.50087,-0.21468 0.35776,-0.21463 1.14484,-0.35778 0.28621,-0.0716 0,0.0716 0,0.14311 0.0716,0.35773 0,0.57245 -0.0716,0.14308 0,0.14314 0,0.14308 0.0716,0.0716"
       id="path314-0"
       inkscape:connector-curvature="0"
       style="fill:none;stroke:#000000;stroke-width:1.23431516" />
    <path
       d="m 154.62525,120.85524 0.14311,-0.2147 0.28621,-0.21465 0,-0.0715 -0.14312,0 -0.78707,0.14306 -0.71553,0.35778 -0.85863,0.42931 -0.93021,0.57243 -0.21464,0.14309 0.0716,0.0716 0.0716,0 0.0716,0 0.21467,-0.0716 0.21466,0 0.42932,0.64401 0.2862,1.00174 0.21466,1.14481 0.21465,1.43108 0,1.64569 -0.28619,3.00522 -0.21466,1.14487 -0.21466,0.71551 -0.28623,0.28625 -0.14309,-0.0716 -0.42933,-0.64393 -0.57243,-1.14488 -0.50085,-1.28797 0,-1.2164 0.0716,-0.93015 0.42931,-1.00176 0.42933,-0.50087 1.00175,-0.64399 1.14485,-0.71551 1.21641,-0.78709 3.50609,-1.64575 1.35949,-0.8586 0.35777,-0.85864"
       id="path316-8"
       inkscape:connector-curvature="0"
       style="fill:none;stroke:#000000;stroke-width:1.23431516" />
    <path
       d="m 147.89927,114.12924 -0.0716,0.0716 0,0.28619 0,0.0716 0,0 0,0.21461 -0.14309,0.35781 -0.35778,-0.14307"
       id="path318-9"
       inkscape:connector-curvature="0"
       style="fill:none;stroke:#000000;stroke-width:1.23431516" />
    <path
       d="m 96.166499,109.62144 0.0716,0 0.14312,0.0716 0,0.28619 -0.14312,1.21642 -1.35951,3.86386 -1.2164,2.43276 -1.43105,2.28972 -0.85863,1.50259 -0.85863,1.2164 -1.07332,1.93196 -0.2862,0.57236 -0.35776,0.50087 -0.14308,0.21471 -0.21469,0.1431"
       id="path320-5"
       inkscape:connector-curvature="0"
       style="fill:none;stroke:#000000;stroke-width:1.23431516" />
    <path
       d="m 181.95847,120.42589 0.14308,0.21465 0.2147,0.0716 0.35775,0.21464 0.42932,0.21463 1.50261,-0.21463 0.85865,-0.28623 1.14485,-0.57239 2.00349,-1.93195 0.21462,-1.00174 -0.71551,-1.7888 -1.14485,0.35776 -1.28794,0.7155 -1.21643,0.85868 -0.78708,1.07326 -0.7871,2.50438 -0.0715,0.93018 0.21463,0.71553 0.71554,0.64399 0.85862,0.28615 2.14665,-0.21463"
       id="path322-2"
       inkscape:connector-curvature="0"
       style="fill:none;stroke:#000000;stroke-width:1.23431516" />
    <path
       d="m 189.25687,123.64581 -0.0716,0 -0.14307,-0.0716 0,-0.14314 0,-0.0715 0.0715,-0.42934 0.28624,-0.35775 0.2862,-0.50087 0.42931,-0.57242 0.78709,-0.71555 1.71725,-1.00172 0.57245,-0.0716 0.35775,0.21467 0.35779,0.57243 0.14311,0.71551 -0.21467,1.86038 -0.0716,0.64398 0,0.42937 -0.0716,0.21462 -0.0716,0 0.21466,-0.78708"
       id="path324-6"
       inkscape:connector-curvature="0"
       style="fill:none;stroke:#000000;stroke-width:1.23431516" />
    <path
       d="m 198.27253,119.49573 -0.0716,0.71553 -0.0716,1.00171 -0.14314,1.00175 0.0716,0.7871 0.42932,1.14488 0.2147,0.14306 0.21461,0.0716 0.28618,-0.0716 0.5009,-0.35773 1.21642,-1.21644 0.35775,-0.71553 0.35776,-0.57242 0.28622,-0.4293 0.28623,-0.64394 1.00173,-1.14491"
       id="path326-6"
       inkscape:connector-curvature="0"
       style="fill:none;stroke:#000000;stroke-width:1.23431516" />
    <path
       d="m 206.71579,120.21126 -0.14312,0.42928 -0.14307,0.71557 -0.21468,0.50087 -0.21465,0.28623 0.0716,-0.64399"
       id="path328-8"
       inkscape:connector-curvature="0"
       style="fill:none;stroke:#000000;stroke-width:1.23431516" />
    <path
       d="m 208.79085,121.35611 0.0716,1.00173 0.14311,0.57242 0.14311,0.21468 0.0716,0.21466 0.0716,0 0.0716,0 0.14311,-0.28625 0.21466,-0.35776 0.21466,-0.85861 1.14485,-1.14485 0.35777,-0.28624 0.42932,-0.28622 0.57242,-0.2862 1.00175,-0.14311 1.93194,0.14311 0.71551,0.35779 0.57241,0.42928 0.2862,0.42937 -0.0715,0.2862 -0.57244,1.00173 -0.14313,0.28624 -0.0716,0.21464 0.0716,0.21463 0.35782,0.35774 1.50259,-0.14307 0.8586,-0.50087 0.57245,-0.64394 0.35776,-0.71557 0.14312,-0.7871 -0.28623,-1.07324 -0.57242,-0.50087 -0.57243,-0.35778 -0.8586,0.0716 -0.14313,0.21464"
       id="path330-2"
       inkscape:connector-curvature="0"
       style="fill:none;stroke:#000000;stroke-width:1.23431516" />
    <path
       d="m 221.74191,124.07512 0,0.35778 -0.0716,0.14309 0,0 0.0716,-0.0716 0.42931,-1.43106 0.85866,-1.28793 0.93016,-1.21639 0.57245,-0.57245 0.50087,-0.28622 0.71551,0.28622 0.21467,0.71555 0.14311,1.07329 0.0716,0.85866 -0.14312,0.64394 -0.14311,0.93017 -0.0716,0.0716 -0.0716,-0.21464"
       id="path332-3"
       inkscape:connector-curvature="0"
       style="fill:none;stroke:#000000;stroke-width:1.23431516" />
    <path
       d="m 213.5133,112.5551 -0.42932,-0.1431 0,-0.0716 0.0716,-0.0716 0.14312,-0.14312"
       id="path334-4"
       inkscape:connector-curvature="0"
       style="fill:none;stroke:#000000;stroke-width:1.23431516" />
    <path
       d="m 229.04031,125.43463 -0.0716,0.57239 0,0.14313 0,0.0716 0.0716,-0.0716 0.35776,-0.85864 0.35777,-0.93019 0.35775,-1.0733 0.71557,-1.35952 0.57239,-1.07326 1.21642,-1.64575 0.35775,-0.35777 0.0716,0 0,0.0716 0.0716,0.64402 -0.14313,2.21811 -0.14312,0.85867 0.14312,0.64394 0.0716,0.21463 0.14312,0 0.71553,-0.7155 0.64396,-0.78709 0.78708,-0.85866 0.78708,-0.71551 0.64398,-0.35774 0.50087,0.0715 0.14313,0.35779 0,0.64394 -0.0716,0.57245 0.0716,0.35779 0,0.42931 0.0716,0.0716 0.21464,0 0.4293,0 0.35779,0.0716 1.14483,-0.14313 0.35775,-0.21467 0.42935,-0.35778 0.35775,-0.42929 0.35776,-0.4293 0.57243,-1.00176 0,-0.21468 -0.0716,-0.0715 -0.0716,0 -0.42933,0.50087 -1.28794,1.9319 -0.42935,1.0733 -0.21463,0.85867 0,0.50084 0.14312,0.21467 0.7155,0.21464 0.28623,-0.21464 0.35775,-0.28621 0.64396,-0.64397 0.93023,-0.78708 1.6457,-1.78884 1.00173,-0.93021 1.07331,-1.00174 1.14487,-0.57243 0.85858,-0.35775 0.85866,0.35775 0.1431,0.78707 0,1.07334 -0.21466,1.07328 -0.14309,0.85867 -0.35776,1.28794 -0.14313,0.21467 0,0 0.14313,-0.14316 0.42932,-0.57244"
       id="path336-5"
       inkscape:connector-curvature="0"
       style="fill:none;stroke:#000000;stroke-width:1.23431516" />
    <path
       d="m 259.95119,113.62836 -0.1431,0.57245 -0.35775,0.7871 -0.64401,0.93014 -0.64398,1.21641 -1.43105,2.71901 -0.78707,1.28793 -0.42933,1.28797 -0.42931,1.00172 -0.35775,0.57244"
       id="path338-0"
       inkscape:connector-curvature="0"
       style="fill:none;stroke:#000000;stroke-width:1.23431516" />
    <path
       d="m 253.79762,119.35259 0.21467,0.14314 0.2862,0.0716 0.42935,0.0715 0.78706,-0.0715 2.86213,-0.28623 1.43106,-0.21465 1.50261,-0.14314 1.35948,-0.0716 0.57244,-0.64394"
       id="path340-4"
       inkscape:connector-curvature="0"
       style="fill:none;stroke:#000000;stroke-width:1.23431516" />
    <path
       d="m 291.29136,110.48 -0.35777,-0.64393 -0.42928,-0.28621 -0.57245,-0.21467 -0.71551,-0.14308 -1.28797,0.57239 -0.85865,1.00177 -0.64398,1.07328 -0.71551,1.86039 -0.78707,1.71728 -0.93018,2.86213 -0.42934,1.14481 -0.35776,0.64399 -0.57242,0.28625"
       id="path342-1"
       inkscape:connector-curvature="0"
       style="fill:none;stroke:#000000;stroke-width:1.23431516" />
    <path
       d="m 280.27222,118.06464 -0.0716,-0.21468 0.14312,-0.14307 0.42932,-0.14311 0.64398,0 2.21812,-0.0716 1.35954,0 1.21638,0.0716 1.35951,0.0716 1.28794,0.21461 1.50263,0.28623 0.14312,0.21466 0,0.21469 -0.14312,0.50088 -0.2147,0.57237 -0.35775,1.00174 0.0716,0.57243 0.21467,0.50088 0.2862,0.35779 0.50087,0.14309 1.64571,0.21464 0.71551,-0.4293 0.57245,-0.64396 0.21464,-0.85865 0.0716,-0.85866 -0.57242,-1.57416"
       id="path344-3"
       inkscape:connector-curvature="0"
       style="fill:none;stroke:#000000;stroke-width:1.23431516" />
    <path
       d="m 44.791479,131.51663 0,0.21464 0.0716,0.64395 0,1.28796 -0.14311,2.21818 -0.71553,5.65268 -0.35777,2.36122 -0.14309,1.86038 -0.0716,1.14488 0,0.50087 0.0716,0.0715 0,-0.21463 0.0716,-0.57244 0.0716,-0.93017 0.50087,-1.50261 2.00348,-2.71899 1.3595,-1.00175 1.21639,-0.57243 0.93021,0 0.50087,0.64396 0.0716,2.07505 -0.21466,1.21639 0.21466,1.64573 -0.14311,0.78708 -0.21466,0.4293 -0.21466,0.0716 0,-0.21463 0.21466,-0.42936"
       id="path390-7"
       inkscape:connector-curvature="0"
       style="fill:none;stroke:#000000;stroke-width:1.23431516" />
    <path
       d="m 54.451129,144.82546 0.35777,0 0.42931,0.0716 0.50088,-0.14309 0.78708,-0.35778 1.78882,-1.07326 0.78708,-0.71554 0.35777,-0.5009 0.0716,-0.50084 -0.21464,-0.0716 -1.43107,0.1431 -1.2164,0.57243 -0.93018,0.71551 -0.64398,0.64402 -0.28622,0.85859 0.0716,1.21639 0.35777,0.64399 0.78707,0.42931 1.14484,0.21467 1.14487,0 2.00348,-0.1431 0.50087,0.0716 0.28621,0 0.21465,0 0,0 0.0716,-0.0716 0.0716,-0.21464 0.0716,-0.50087 0.21467,-0.93023 0.21465,-1.14482 0.42932,-1.93197 0.28621,-1.00171 0.35777,-0.35774 0.35776,-0.28623 0.28622,-0.14313 0.35775,0.14313 0.57243,0.57243 0.42932,0.35774 0.50087,0.42936 0.64397,0.28615"
       id="path392-6"
       inkscape:connector-curvature="0"
       style="fill:none;stroke:#000000;stroke-width:1.23431516" />
    <path
       d="m 70.407429,144.61083 0.28622,0.21463 0.21465,0.0716 0.28621,-0.0716 0.35777,-0.21463 0.93019,-0.93024 0.21466,-0.2862 0.1431,-0.42931 -0.0716,-0.21463 -0.2862,-0.21468 -1.78882,0.42931 -1.14485,0.71551 -0.85864,0.71553 -0.64398,0.85865 -0.21466,0.71551 0.1431,0.93024 0.35778,0.64394 0.71552,0.4293 0.93018,0.42937 1.00175,0.21464 2.1466,-0.35779 1.28795,-0.42928 1.07329,-0.50087 0.64398,-0.42931"
       id="path394-0"
       inkscape:connector-curvature="0"
       style="fill:none;stroke:#000000;stroke-width:1.23431516" />
    <path
       d="m 81.283489,147.47289 -0.14312,0.64401 -0.2862,0.85867 -0.57243,1.14481 -0.57241,1.07331 -0.85865,1.64566 -0.21466,0.28625 -0.0716,0.21464 -0.0716,0 0,-0.0715 -0.0716,-0.7871"
       id="path396-3"
       inkscape:connector-curvature="0"
       style="fill:none;stroke:#000000;stroke-width:1.23431516" />
    <path
       d="m 100.1019,141.53404 0.21466,-0.0716 0.0716,-0.2862 0.0716,-0.14311 0.0716,-0.14313 0.0716,-0.14307 0,0.0715 0,0 -0.0716,0.14312 -0.0716,0.28624 -0.42932,0.64394 -0.0716,0.28622 0,0.0716 0,0.0716 0,0 0,-0.0716 0,0 0.0716,0 0,-0.0716 0,-0.14308 0.0716,-0.21466 0,0 0,0 0,0 0,0 0,0.14308 -0.0716,0.14307 -0.0716,0.28624 -0.0716,0.50086 -0.1431,0.64402 0.28621,1.35946 0.2862,0.50092 0.28622,0.71552 0.21465,0.14308 0.35777,0.14312 1.3595,-0.35776 0.71553,-0.57243 0.50087,-0.71555 0.21466,-0.64394 0.14312,-0.28622 -0.14312,0 -0.0716,0.14308 -0.14312,0.57245 0.0716,0.57244 0.21466,0.42929 1.07331,0.71552 0.78708,0.14312 0.78707,-0.14312 0.71553,-0.35773 0.71553,-0.50087 0.64398,-0.78708 0,-0.64402 0,-0.7871 -0.14312,-0.85858 -0.0716,-0.93023 0.42935,-0.4293 0.0716,-0.14312"
       id="path398-6"
       inkscape:connector-curvature="0"
       style="fill:none;stroke:#000000;stroke-width:1.23431516" />
    <path
       d="m 112.62367,143.03666 0.42933,0.35773 0.35775,0.21471 0.28622,0.0715 0.42932,-0.14305 1.2164,-0.85866 0.71552,-0.78709 0.35776,-0.64395 0,-0.64401 -0.0716,-0.21465 -0.9302,-0.0716 -0.85864,0.42936 -1.21639,0.7155 -1.00174,0.93018 -0.57242,0.57243 -0.42932,1.43104 0.0716,0.42935 0.35778,0.78709 0.2862,0.35772 0.57243,0.5009 0.93019,0.42934 0.64398,-0.0716 0.57243,-0.0716 0.71552,-0.2862 0.93018,-0.35774 2.0035,-0.57244"
       id="path400-4"
       inkscape:connector-curvature="0"
       style="fill:none;stroke:#000000;stroke-width:1.23431516" />
    <path
       d="m 143.74921,134.30717 0.0716,-0.14311 0.0716,0 0.0716,0 -0.0716,0.0716 -0.14311,1.21636 -0.2862,1.28797 -0.57245,2.14663 -0.78706,2.07502 -0.7871,2.28969 -1.2164,3.93543 -0.50088,1.35948 -0.21463,0.93022 0,0.14308 0.14308,-0.64394"
       id="path402-0"
       inkscape:connector-curvature="0"
       style="fill:none;stroke:#000000;stroke-width:1.23431516" />
    <path
       d="m 137.88185,138.52878 -0.0716,-0.21464 0.0716,0 0.14313,0.0716 0.1431,0.14307 1.07328,0.50088 0.85863,0.14313 1.28796,0.28621 1.50261,0.0716 1.43105,-0.0716 3.00523,0.0716 1.35952,0.0716 0.85865,0.21464 0.2862,0.14314 0.0716,0.14308 -0.42933,0.57245 -0.71552,0.35777 -0.78709,0.85861 -0.85863,0.85867 -0.57242,0.64394 -0.14311,1.00173 0.14311,0.50087 0.2862,0.35778 0.42932,0.28623 0.71553,0.0716 2.07506,-1.14488 1.00171,-0.85859 0.644,-0.78707 0.35775,-0.57245 0.0716,-0.57244 -0.42929,-0.93017 -0.50089,-0.64401 -0.64396,-0.64396 -0.57244,-0.35778 -0.4293,0 -0.57245,0.35778 -0.14308,0.28623"
       id="path404-2"
       inkscape:connector-curvature="0"
       style="fill:none;stroke:#000000;stroke-width:1.23431516" />
    <path
       d="m 158.34602,139.459 0,-0.21464 -0.0716,0 -0.14309,0.0715 -0.28622,0.14314 -1.28794,1.35949 -0.85866,1.00178 -0.85861,1.07325 -0.21467,1.0733 0,0.78708 0.64398,1.07332 0.64398,0.21466 1.00173,0 1.14485,-0.42931 0.93018,-0.71557 0.78708,-1.50261 0,-0.78707 -0.21465,-0.78705 -0.35778,-0.85866 -0.64398,-0.85865 -0.78705,-0.71554 -0.14313,-0.0716 0.0716,-0.14307"
       id="path406-9"
       inkscape:connector-curvature="0"
       style="fill:none;stroke:#000000;stroke-width:1.23431516" />
    <path
       d="m 164.92889,137.24083 -0.0716,0 -0.0716,0.14315 0,0.14307 -0.0716,0.28621 -0.35775,1.64574 -0.28623,1.2164 -0.14312,1.43102 -0.0716,1.28797 0,1.00173 0.28622,1.21644 0.0716,0.21465 0.14312,0 0.21463,-0.21465 0.64397,-0.64399 2.57592,-2.79056 0.93019,-1.43104 0.71552,-1.00175 0.42934,-0.7871 0.35776,-0.42934 -0.21466,-0.14307 -0.28623,0.35778"
       id="path408-5"
       inkscape:connector-curvature="0"
       style="fill:none;stroke:#000000;stroke-width:1.23431516" />
    <path
       d="m 168.14875,141.67713 -0.21464,0.57244 0,0.42931 0.0716,0.71551 0,0.85865 0.35777,1.43104 0.14311,0.50087 0.21466,0.42936 0.14311,0.21463 0.0716,0 0,-0.0716 0,-0.21463 0.21464,-1.00175"
       id="path410-8"
       inkscape:connector-curvature="0"
       style="fill:none;stroke:#000000;stroke-width:1.23431516" />
    <path
       d="m 199.84672,142.10642 0.35779,-0.14307 0.0716,-0.14308 0.0715,-0.14314 -0.0715,-0.0716 -0.50091,-0.4293 -0.42932,-0.14311 -0.57245,-0.21468 -0.78709,0 -0.85859,0.14311 -1.43111,1.28798 -0.57239,0.93014 -0.21468,0.93024 0.0716,0.71551 0.78709,1.14481 1.43111,0.0716 1.07323,-0.57242 0.7871,-0.71555 0.50084,-0.57242 0,-0.14309 -0.0715,0.21465 -0.14313,0.28623 -0.14314,0.50087 0,0.35778 0,0.57236 0.35776,0.85867 0.50089,0.1431 0.78709,-0.4293"
       id="path412-0"
       inkscape:connector-curvature="0"
       style="fill:none;stroke:#000000;stroke-width:1.23431516" />
    <path
       d="m 225.03336,132.37522 -0.14312,0.21471 -0.21464,0.64395 -0.28623,1.00174 -0.42933,1.64574 -1.50261,3.64916 -0.64398,1.57419 -0.2862,0.93022 -0.0716,0.35772 0,0.0716 0.14313,-0.2862 0.35776,-0.35774 0.7155,-0.57242 1.0733,-0.42936 1.35949,-0.14308 1.78884,0.50087 0.0716,0.85865 0,1.00174 -0.35777,0.93015 -0.57244,0.71553 -1.5026,0.85865 -1.07329,-0.0716 -1.14486,-0.50087 -1.00175,-0.64397 -0.71551,-0.85865 0.14312,-1.0733"
       id="path414-3"
       inkscape:connector-curvature="0"
       style="fill:none;stroke:#000000;stroke-width:1.23431516" />
    <path
       d="m 230.68604,143.03666 -0.0716,0.71551 -0.21464,0.64395 -0.35776,0.78709 -0.42933,0.57243 -0.50087,0.3578 -0.2862,-0.14316 0.0716,-0.21464"
       id="path416-8"
       inkscape:connector-curvature="0"
       style="fill:none;stroke:#000000;stroke-width:1.23431516" />
    <path
       d="m 234.54988,138.2426 0.14311,0.78705 0.0716,0.93022 0.28622,0.64395 0.64396,0.42935 2.00349,0.93018 0.64398,0.7871 -0.85862,0.85865 -0.57245,0.28616 -0.64398,0.2147 -1.00174,1.00174 0.14312,0.14307 0.35775,-0.0716 0.7871,-0.42931 3.64918,-1.57418 0.42932,-0.14306 0,0.14306 0,0.14314 -0.35776,0.7871 -0.28622,0.85862 -1.07328,2.71902 -0.50087,1.50261 -0.78711,2.00349 -0.35775,1.64566 -0.50088,1.35955 -0.64397,1.57416 -0.35776,0.1431 -0.50087,-0.1431 -0.50086,-0.57245 -1.00175,-1.21636 -1.00176,-3.00524 0.35781,-1.00172 0.42929,-0.71555 0.64397,-0.50089 0.7871,-0.35773 2.86213,-0.28622 1.28793,0 1.00176,0.0716 1.14485,-0.0716 1.21637,-0.64402"
       id="path418-3"
       inkscape:connector-curvature="0"
       style="fill:none;stroke:#000000;stroke-width:1.23431516" />
    <path
       d="m 265.96163,141.17627 -0.50087,0 -0.64395,0 -0.71555,0 -0.71552,-0.0716 -1.5026,0.35777 -0.14312,0.14311 0,0 0.0716,0.57242 0.35775,1.00171 1.0733,2.36128 0.21463,1.00175 -0.0715,1.00172 -0.14312,0.7871 -0.50087,0.28621 -1.3595,-0.35779 -0.57243,-0.64396 -0.85864,-1.21639 -0.0716,-1.57417 0.35777,-1.64575"
       id="path420-9"
       inkscape:connector-curvature="0"
       style="fill:none;stroke:#000000;stroke-width:1.23431516" />
    <path
       d="m 272.61606,138.45728 -0.21467,0.0715 -0.35777,1.35953 -0.50083,1.2164 -0.93023,1.43107 -1.14483,2.71899 -0.50087,1.0733 -0.35776,0.57245 -0.21466,0.2862"
       id="path422-0"
       inkscape:connector-curvature="0"
       style="fill:none;stroke:#000000;stroke-width:1.23431516" />
    <path
       d="m 266.60561,143.03666 0.14308,0.2862 0.14311,0.35773 0.14312,0.14314 0.57245,0.35774 2.43279,0.0716 1.3595,-0.14308 1.28795,-0.42937 1.21637,-0.35773 1.21642,-0.2862 1.35951,-0.35778 0.21467,0"
       id="path424-1"
       inkscape:connector-curvature="0"
       style="fill:none;stroke:#000000;stroke-width:1.23431516" />
    <path
       d="m 275.83592,144.61083 0.50087,-0.0716 0.42935,0 0.78707,-0.14314 0.9302,-0.28617 1.78881,-1.00177 0.64398,-0.64398 0.2862,-0.50086 -0.0716,-0.35776 -0.14312,-0.14311 -0.85863,0.0716 -0.85865,0.57238 -1.00175,0.85866 -0.85863,1.00173 -0.50086,0.93018 -0.35776,1.35953 0.0716,0.57242 0.21468,0.28622 0.64394,0.14309 0.93019,-0.21463 2.4328,-1.6457"
       id="path426-8"
       inkscape:connector-curvature="0"
       style="fill:none;stroke:#000000;stroke-width:1.23431516" />
    <path
       d="m 284.63694,143.68059 -0.57242,0.64401 -0.78709,1.00174 -0.71551,1.0733 -0.78709,1.21639 -0.78708,2.5759 -0.21466,0.93018 -0.21468,0.93018 0.0716,0.35778 0.0716,0 0.14311,-0.71551 0.21467,-1.21638 0.64395,-1.64575 0.57245,-2.00349 1.0733,-1.71724 2.36123,-2.57593 1.43107,-1.0733 1.43106,-0.64399 0.93017,-0.0715 0.71553,0.2862 0.35777,1.28797 -0.21465,0.71552 -0.64395,0.93015 -0.7871,0.85865 -0.9302,0.57245 -2.36125,0.78704 -1.14483,-0.0715 -0.78709,-0.28622 -0.71554,-0.14313 -0.0716,-0.21464 0.71552,-0.71554"
       id="path428-4"
       inkscape:connector-curvature="0"
       style="fill:none;stroke:#000000;stroke-width:1.23431516" />
  </g>
</svg>
