<?xml version="1.0" encoding="UTF-8" standalone="no"?>
<?xml-stylesheet type="text/css" href="story1-example-anim.css" ?>
<svg
   xmlns:dc="http://purl.org/dc/elements/1.1/"
   xmlns:cc="http://creativecommons.org/ns#"
   xmlns:rdf="http://www.w3.org/1999/02/22-rdf-syntax-ns#"
   xmlns:svg="http://www.w3.org/2000/svg"
   xmlns="http://www.w3.org/2000/svg"
   xmlns:sodipodi="http://sodipodi.sourceforge.net/DTD/sodipodi-0.dtd"
   xmlns:inkscape="http://www.inkscape.org/namespaces/inkscape"
   width="518px"
   height="281px"
   version="1.1"
   id="svg2"
   inkscape:version="0.91 r13725"
   sodipodi:docname="story1-example-detail-bg.svg">
  <metadata
     id="metadata31">
    <rdf:RDF>
      <cc:Work
         rdf:about="">
        <dc:format>image/svg+xml</dc:format>
        <dc:type
           rdf:resource="http://purl.org/dc/dcmitype/StillImage" />
        <dc:title />
      </cc:Work>
    </rdf:RDF>
  </metadata>
  <sodipodi:namedview
     pagecolor="#ffffff"
     bordercolor="#666666"
     borderopacity="1"
     objecttolerance="10"
     gridtolerance="10"
     guidetolerance="10"
     inkscape:pageopacity="0"
     inkscape:pageshadow="2"
     inkscape:window-width="640"
     inkscape:window-height="480"
     id="namedview29"
     showgrid="false" />
  <defs
     id="defs4">
    <linearGradient
       x1="-0.37318897"
       y1="-0.66990191"
       x2="-0.37318897"
       y2="376.83313"
       id="mx-gradient-f5f5f5-1-ffffff-1-s-0"
       gradientTransform="scale(1.3398038,0.74637793)"
       gradientUnits="userSpaceOnUse">
      <stop
         offset="0%"
         style="stop-color:#f5f5f5"
         id="stop7" />
      <stop
         offset="100%"
         style="stop-color:#ffffff"
         id="stop9" />
    </linearGradient>
  </defs>
  <g
     transform="matrix(0.88114928,0,0,0.51916322,0.30473419,-0.00155219)"
     id="g11">
    <g
       id="cell-20">
      <path
         d="m 0,0 504.78,0 0,258 -80,0 9.33,22 L 398.78,258 0,258 Z"
         stroke-miterlimit="10"
         transform="matrix(-1,0,0,-1,504.78,280)"
         pointer-events="none"
         id="path14"
         style="fill:url(#mx-gradient-f5f5f5-1-ffffff-1-s-0);stroke:#666666;stroke-miterlimit:10"
         inkscape:connector-curvature="0" />
    </g>
  </g>
  <g
     inkscape:label="Layer 1"
     inkscape:groupmode="layer"
     transform="matrix(3.9824338,0,0,3.9824338,-4751.3733,43.084414)"
     id="g16">
    <path
       d="m 1202.2521,-1.150388 0,0.143119 -0.1431,0.28617599 0.072,0.715545 -0.2147,1.21639301 -0.7871,4.078523 -0.7155,2.719011 -0.8587,2.575916 -0.8586,2.719023 -0.7871,2.218113 -0.7871,3.076778 -0.1431,0.930192 -0.072,0.143119 -0.072,-0.07159 0,-0.858627 0.6439,-3.935392"
       id="path001"
       class="upper-D"
       inkscape:connector-curvature="0"
       style="fill:none;stroke:#000000;stroke-width:1.23431516" />
    <path
       d="m 1200.4632,0.85307899 0,0.07159 0,0 0.072,-0.143119 0.072,-0.143106 0.1431,-0.357754 0.2862,-0.286226 0.5009,-0.429319 0.8586,-0.429307 0.9302,-0.28621299 2.7906,-0.21466 1.3595,0.143094 1.2164,0.57243899 1.0017,1.00172 0.7156,1.14486501 0.072,3.076777 -0.5725,2.003466 -1.0017,2.0034905 -1.0733,1.9319375 -1.2164,1.574146 -2.8621,2.719036 -1.288,0.715508 -1.0733,0.286225 -0.9302,0.214635 -1.0733,0.214685 -1.9319,0.500872 -0.3577,0.143107 -0.072,0 -0.072,-0.07159 0,0 0.2862,-0.143107 0.7871,-0.500873"
       id="path002"
       class="upper-D"
       inkscape:connector-curvature="0"
       style="fill:none;stroke:#000000;stroke-width:1.23431516" />
    <path
       d="m 1210.3376,13.303318 0.3577,0.214647 0.5009,0 0.7871,-0.143119 1.0017,-0.50086 2.0035,-1.502606 0.9302,-0.930204 0.7871,-0.9301925 0.5008,-0.858626 0.3578,-0.7870855 -0.072,-0.429307 -0.3578,-0.07159 -0.5724,0.143119 -0.7155,0.286213 -1.1448,0.7155065 -2.0035,1.8603965 -0.3578,0.71552 -0.2147,0.643979 -0.072,0.858627 0,1.073311 0.5725,1.502606 0.3577,0.572426 0.5009,0.214647 0.644,0.07159 0.7871,-0.643967"
       id="path003"
       class="lower-e"
       inkscape:connector-curvature="0"
       style="fill:none;stroke:#000000;stroke-width:1.23431516" />
    <path
       d="m 1224.4335,8.7954635 0,-0.143106 -0.072,-0.07159 -0.1431,-0.07159 -0.2862,-0.07159 -1.0733,0.357754 -1.0733,0.643991 -1.0018,0.7155075 -0.7155,0.787086 -0.5724,0.858614 -0.7871,2.075057 0,0.930204 0.1431,0.64398 0.644,0.500848 0.4293,0.07159 1.6457,-1.216368 0.9302,-1.144852 0.5724,-1.073311 0.3578,-0.643967 0.072,-0.07159 -0.072,0.286225 -0.1431,0.429295 -0.2147,0.643979 -0.072,0.429332 -0.072,0.787073 0,1.144852 0,0.21466 0.1432,-0.07159 0.5008,-0.643979"
       id="path004"
       class="lower-a"
       inkscape:connector-curvature="0"
       style="fill:none;stroke:#000000;stroke-width:1.23431516" />
    <path
       d="m 1226.5801,13.374846 -0.2147,0.214648 0,0.07159 0,0 0.072,-0.07159 0.1431,-0.286176 0.072,-0.214672 0.072,-0.21466 0.072,-0.143119 0.1431,-0.357754 0.2146,-0.357778 0.072,-0.07159 0,-0.07159 0,0 0,0 0.072,0 0.072,0.07159 0,0.07159 0,0.143131 0.1431,0.143119 0.1431,0.286176 0,0.07159 0,0.07159 0.072,0 -0.072,0.07159 0,0.357753 -0.072,0.286226 0,0.357754 0,0.143106 0,0 0,-0.07159 0,-0.07159 0.072,-0.07159 0,-0.429282 0.072,-0.429332 0.072,-0.71552 0.072,-0.357803 0.2862,-0.858615 0.3577,-0.572413 0.4294,-0.4293195 1.7888,-1.431077 1.0733,-0.6439665 0.7871,-0.214647 0.3577,-0.07159 0.5725,-0.143118 1.0017,-0.143094 0.2147,0.07147 0.072,0.07159 0.072,0 0,0.07159 -0.072,0 -0.072,0 -0.072,-0.07159 -0.072,0 -0.2147,-0.214672"
       id="path005"
       class="lower-r"
       inkscape:connector-curvature="0"
       style="fill:none;stroke:#000000;stroke-width:1.23431516" />
    <path
       d="m 1252.0529,18.312008 0.072,0.286201 0.072,0.07159 0.072,0 0.1431,-0.07159 1.1449,-1.431053 1.0733,-1.645725 1.3594,-2.218113 1.6458,-2.719023 1.5026,-2.4328105 2.075,-3.7922965 0.7871,-1.287946 0.4293,-0.715557 0.072,-0.07147 0.1431,0 0.2147,1.00172 0.2862,1.001746 0.2862,1.50263 0,1.717266 0.072,1.7172775 -0.072,3.7922965 -0.2147,1.431053 -0.1431,0.93018 -0.1431,0.643967 -0.3577,0.07159"
       id="path006"
       class="upper-A"
       inkscape:connector-curvature="0"
       style="fill:none;stroke:#000000;stroke-width:1.23431516" />
    <path
       d="m 1257.1332,9.8687625 -0.072,-0.143106 0,0 0.072,0.07159 0.2862,0.07159 1.1448,0.1430935 0.644,0.286213 1.0017,0.143107 1.288,0.143119 1.1449,0 2.075,-0.07159"
       id="path007"
       class="upper-A"
       inkscape:connector-curvature="0"
       style="fill:none;stroke:#000000;stroke-width:1.23431516" />
    <path
       d="m 1272.9464,10.011856 0.072,-0.2146465 0,-0.286226 -0.072,-0.286188 -0.072,-0.143119 -1.0733,-0.572438 -0.7871,0 -1.0017,0.214684 -1.0733,0.572402 -0.9302,1.0017445 -1.0733,2.289692 -0.1431,1.287958 0.1431,1.001733 0.644,0.787074 0.8586,0.357766 1.6457,-0.143094 1.0018,-1.073274 1.1448,-1.645737 0.9302,-2.003454 0.5009,-1.8604085 0.3577,-3.8638625 0.1431,-1.6457 0.072,-0.858639 -0.072,-0.07159 0,0 -0.1431,1.431065 -0.1431,1.717277 -0.3577,1.860372 -0.4293,2.432798 -0.5009,2.146572 -0.644,3.57765 0.072,1.073311 0.1431,0.572426 0.3578,0 0.5008,-1.431052"
       id="path008"
       class="lower-d"
       inkscape:connector-curvature="0"
       style="fill:none;stroke:#000000;stroke-width:1.23431516" />
    <path
       d="m 1280.8888,9.4394555 -0.4293,0.143094 -0.5009,0.143107 -0.5725,0.214659 -0.7155,0.3577535 -1.2164,1.431065 -0.3578,0.787086 -0.2146,0.930192 0,0.930168 0.072,0.715544 0.5009,0.930168 0.3577,0.07159 0.5009,-0.21466 1.0017,-0.71552 0.7156,-0.858639 1.1448,-1.216393 0.072,-0.143081 0,0.07159 0,0.07159 -0.072,0.214672 -0.2862,0.930155 -0.072,0.572451 -0.1431,0.500848 -0.1431,0.429332 -0.072,0.357754 0.6439,-0.429332"
       id="path009"
       class="lower-a"
       inkscape:connector-curvature="0"
       style="fill:none;stroke:#000000;stroke-width:1.23431516" />
    <path
       d="m 1283.7509,15.592997 -0.1431,0.286201 0,0.143094 0,0.07159 0,0 0.072,-0.21466 0.2862,-0.2862 0.1431,-1.001733 0.644,-0.930193 0.8586,-0.858638 1.4311,-1.6457 0.7871,-0.787099 0.7155,-0.5008715 0.5008,-0.214685 0.2863,0.07159 0.2146,0.7870845 -0.072,0.858639 0.1431,1.287959 -0.072,0.787073 -0.072,0.21466 0.072,0.143094 0.1431,-0.143094 0.2147,-0.572426 0.9302,-1.001758 1.1448,-1.14484 2.0751,-1.5741455 0.5724,-0.286226 0.1431,0.143119 0.1431,0.143107 0.1431,0.6439535 -0.2146,1.788807 -0.3578,0.930204 -0.2147,0.930205 -0.2146,0.715508 -0.1431,0.715544 -0.072,0.500873 0,-0.07159 0.2862,-0.643979"
       id="path010"
       class="lower-m"
       inkscape:connector-curvature="0"
       style="fill:none;stroke:#000000;stroke-width:1.23431516" />
    <path
       d="m 1300.1365,14.949018 0,0.143106 0.072,0.214648 -0.1431,0.286225 -0.2146,0.715508 -0.8587,1.788831 -0.2146,0.643979 -0.3578,0.643979 -0.1431,0.42932 -0.2147,0.286225 -0.2862,0.143082 -0.072,-0.07159 -0.1431,-0.214648 -0.3578,-0.787073"
       id="path011"
       class="comma"
       inkscape:connector-curvature="0"
       style="fill:none;stroke:#000000;stroke-width:1.23431516" />
  </g>
</svg>
